%TF.GenerationSoftware,KiCad,Pcbnew,(5.1.6-0-10_14)*%
%TF.CreationDate,2021-11-26T22:59:46-06:00*%
%TF.ProjectId,EE514 Project,45453531-3420-4507-926f-6a6563742e6b,rev?*%
%TF.SameCoordinates,Original*%
%TF.FileFunction,Copper,L3,Inr*%
%TF.FilePolarity,Positive*%
%FSLAX46Y46*%
G04 Gerber Fmt 4.6, Leading zero omitted, Abs format (unit mm)*
G04 Created by KiCad (PCBNEW (5.1.6-0-10_14)) date 2021-11-26 22:59:46*
%MOMM*%
%LPD*%
G01*
G04 APERTURE LIST*
%TA.AperFunction,ViaPad*%
%ADD10O,1.700000X1.700000*%
%TD*%
%TA.AperFunction,ViaPad*%
%ADD11R,1.700000X1.700000*%
%TD*%
%TA.AperFunction,ViaPad*%
%ADD12C,0.700000*%
%TD*%
%TA.AperFunction,ViaPad*%
%ADD13C,4.400000*%
%TD*%
%TA.AperFunction,ViaPad*%
%ADD14C,1.500000*%
%TD*%
%TA.AperFunction,ViaPad*%
%ADD15R,1.440000X1.440000*%
%TD*%
%TA.AperFunction,ViaPad*%
%ADD16C,1.440000*%
%TD*%
%TA.AperFunction,ViaPad*%
%ADD17C,0.970000*%
%TD*%
%TA.AperFunction,ViaPad*%
%ADD18C,2.100000*%
%TD*%
%TA.AperFunction,ViaPad*%
%ADD19R,2.100000X2.100000*%
%TD*%
%TA.AperFunction,ViaPad*%
%ADD20C,0.800000*%
%TD*%
%TA.AperFunction,Conductor*%
%ADD21C,0.254000*%
%TD*%
G04 APERTURE END LIST*
D10*
%TO.N,/LE_PLL*%
%TO.C,J102*%
X153162000Y-124460000D03*
%TO.N,/DATA_PLL*%
X150622000Y-124460000D03*
%TO.N,/CLK_PLL*%
X148082000Y-124460000D03*
D11*
%TO.N,GND*%
X145542000Y-124460000D03*
%TD*%
D12*
%TO.N,GND*%
%TO.C,H104*%
X166012726Y-94845274D03*
X164846000Y-94362000D03*
X163679274Y-94845274D03*
X163196000Y-96012000D03*
X163679274Y-97178726D03*
X164846000Y-97662000D03*
X166012726Y-97178726D03*
X166496000Y-96012000D03*
D13*
X164846000Y-96012000D03*
%TD*%
D12*
%TO.N,GND*%
%TO.C,H103*%
X166012726Y-122277274D03*
X164846000Y-121794000D03*
X163679274Y-122277274D03*
X163196000Y-123444000D03*
X163679274Y-124610726D03*
X164846000Y-125094000D03*
X166012726Y-124610726D03*
X166496000Y-123444000D03*
D13*
X164846000Y-123444000D03*
%TD*%
D12*
%TO.N,GND*%
%TO.C,H102*%
X125880726Y-122277274D03*
X124714000Y-121794000D03*
X123547274Y-122277274D03*
X123064000Y-123444000D03*
X123547274Y-124610726D03*
X124714000Y-125094000D03*
X125880726Y-124610726D03*
X126364000Y-123444000D03*
D13*
X124714000Y-123444000D03*
%TD*%
D12*
%TO.N,GND*%
%TO.C,H101*%
X125880726Y-94845274D03*
X124714000Y-94362000D03*
X123547274Y-94845274D03*
X123064000Y-96012000D03*
X123547274Y-97178726D03*
X124714000Y-97662000D03*
X125880726Y-97178726D03*
X126364000Y-96012000D03*
D13*
X124714000Y-96012000D03*
%TD*%
D14*
%TO.N,/Reference Oscillator/10MHz_REF_OUT*%
%TO.C,TP201*%
X141478000Y-124460000D03*
%TD*%
%TO.N,/Vp*%
%TO.C,TP102*%
X157607000Y-120269000D03*
%TD*%
%TO.N,Net-(D102-Pad2)*%
%TO.C,TP101*%
X160274000Y-113030000D03*
%TD*%
D15*
%TO.N,/Reference Oscillator/10MHz_REF_OUT*%
%TO.C,RV201*%
X141478000Y-114046000D03*
D16*
X141478000Y-116586000D03*
%TO.N,Net-(R201-Pad1)*%
X141478000Y-119126000D03*
%TD*%
D17*
%TO.N,GND*%
%TO.C,J103*%
X161348000Y-100522000D03*
X161348000Y-109282000D03*
%TD*%
D18*
%TO.N,GND*%
%TO.C,J101*%
X125603000Y-104394000D03*
D19*
%TO.N,+5V*%
X125603000Y-101854000D03*
%TD*%
D20*
%TO.N,GND*%
X125476000Y-114681000D03*
X129921000Y-110617000D03*
X133985000Y-110617000D03*
X133096000Y-111506000D03*
X134239000Y-113538000D03*
X135255000Y-118373600D03*
X135636000Y-106553000D03*
X130175000Y-97536000D03*
X143510000Y-107569000D03*
X143510000Y-109601000D03*
X149479000Y-120269000D03*
X148809000Y-118491000D03*
X155194000Y-120269000D03*
X155090490Y-122324490D03*
X149455500Y-122404502D03*
X165227000Y-119507000D03*
X157988000Y-111379000D03*
X150495000Y-113030000D03*
X151537048Y-113044421D03*
X154584398Y-108839000D03*
X153441400Y-105079800D03*
X148463000Y-105816400D03*
X145288000Y-100431600D03*
X144754600Y-99491800D03*
X146608800Y-96723200D03*
X152527000Y-94894400D03*
X156057600Y-100431600D03*
X156591000Y-98171000D03*
X160426400Y-94488000D03*
%TO.N,+5V*%
X131953000Y-110617000D03*
X138049000Y-110617000D03*
X127635000Y-111506000D03*
X138303000Y-113538000D03*
X154701000Y-116063000D03*
X153885026Y-116063006D03*
X160655000Y-117221008D03*
X142113000Y-110617000D03*
X146454500Y-108481492D03*
%TO.N,/LE_PLL*%
X151098590Y-115820163D03*
%TO.N,/DATA_PLL*%
X150495000Y-118364000D03*
%TO.N,/CLK_PLL*%
X150019228Y-115839828D03*
%TO.N,/CP_OUT*%
X154686000Y-94361000D03*
X152630074Y-112934900D03*
%TD*%
D21*
%TO.N,+5V*%
G36*
X153882063Y-93701226D02*
G01*
X153768795Y-93870744D01*
X153690774Y-94059102D01*
X153651000Y-94259061D01*
X153651000Y-94462939D01*
X153690774Y-94662898D01*
X153768795Y-94851256D01*
X153882063Y-95020774D01*
X154026226Y-95164937D01*
X154195744Y-95278205D01*
X154384102Y-95356226D01*
X154584061Y-95396000D01*
X154787939Y-95396000D01*
X154987898Y-95356226D01*
X155176256Y-95278205D01*
X155345774Y-95164937D01*
X155489937Y-95020774D01*
X155603205Y-94851256D01*
X155681226Y-94662898D01*
X155721000Y-94462939D01*
X155721000Y-94259061D01*
X155681226Y-94059102D01*
X155603205Y-93870744D01*
X155489937Y-93701226D01*
X155412711Y-93624000D01*
X159856517Y-93624000D01*
X159766626Y-93684063D01*
X159622463Y-93828226D01*
X159509195Y-93997744D01*
X159431174Y-94186102D01*
X159391400Y-94386061D01*
X159391400Y-94589939D01*
X159431174Y-94789898D01*
X159509195Y-94978256D01*
X159622463Y-95147774D01*
X159766626Y-95291937D01*
X159936144Y-95405205D01*
X160124502Y-95483226D01*
X160324461Y-95523000D01*
X160528339Y-95523000D01*
X160728298Y-95483226D01*
X160916656Y-95405205D01*
X161086174Y-95291937D01*
X161230337Y-95147774D01*
X161343605Y-94978256D01*
X161421626Y-94789898D01*
X161461400Y-94589939D01*
X161461400Y-94386061D01*
X161421626Y-94186102D01*
X161343605Y-93997744D01*
X161230337Y-93828226D01*
X161086174Y-93684063D01*
X160996283Y-93624000D01*
X163317030Y-93624000D01*
X163038793Y-93809912D01*
X162643912Y-94204793D01*
X162333656Y-94669124D01*
X162119948Y-95185061D01*
X162011000Y-95732777D01*
X162011000Y-96291223D01*
X162119948Y-96838939D01*
X162333656Y-97354876D01*
X162643912Y-97819207D01*
X163038793Y-98214088D01*
X163503124Y-98524344D01*
X164019061Y-98738052D01*
X164566777Y-98847000D01*
X165125223Y-98847000D01*
X165672939Y-98738052D01*
X166188876Y-98524344D01*
X166653207Y-98214088D01*
X167048088Y-97819207D01*
X167234000Y-97540970D01*
X167234001Y-121915031D01*
X167048088Y-121636793D01*
X166653207Y-121241912D01*
X166188876Y-120931656D01*
X165672939Y-120717948D01*
X165125223Y-120609000D01*
X164566777Y-120609000D01*
X164019061Y-120717948D01*
X163503124Y-120931656D01*
X163038793Y-121241912D01*
X162643912Y-121636793D01*
X162333656Y-122101124D01*
X162119948Y-122617061D01*
X162011000Y-123164777D01*
X162011000Y-123723223D01*
X162119948Y-124270939D01*
X162333656Y-124786876D01*
X162643912Y-125251207D01*
X163038793Y-125646088D01*
X163317030Y-125832000D01*
X153730190Y-125832000D01*
X153865411Y-125775990D01*
X154108632Y-125613475D01*
X154315475Y-125406632D01*
X154477990Y-125163411D01*
X154589932Y-124893158D01*
X154647000Y-124606260D01*
X154647000Y-124313740D01*
X154589932Y-124026842D01*
X154477990Y-123756589D01*
X154315475Y-123513368D01*
X154108632Y-123306525D01*
X153865411Y-123144010D01*
X153595158Y-123032068D01*
X153308260Y-122975000D01*
X153015740Y-122975000D01*
X152728842Y-123032068D01*
X152458589Y-123144010D01*
X152215368Y-123306525D01*
X152008525Y-123513368D01*
X151892000Y-123687760D01*
X151775475Y-123513368D01*
X151568632Y-123306525D01*
X151325411Y-123144010D01*
X151055158Y-123032068D01*
X150768260Y-122975000D01*
X150475740Y-122975000D01*
X150295077Y-123010936D01*
X150372705Y-122894758D01*
X150450726Y-122706400D01*
X150490500Y-122506441D01*
X150490500Y-122302563D01*
X150474585Y-122222551D01*
X154055490Y-122222551D01*
X154055490Y-122426429D01*
X154095264Y-122626388D01*
X154173285Y-122814746D01*
X154286553Y-122984264D01*
X154430716Y-123128427D01*
X154600234Y-123241695D01*
X154788592Y-123319716D01*
X154988551Y-123359490D01*
X155192429Y-123359490D01*
X155392388Y-123319716D01*
X155580746Y-123241695D01*
X155750264Y-123128427D01*
X155894427Y-122984264D01*
X156007695Y-122814746D01*
X156085716Y-122626388D01*
X156125490Y-122426429D01*
X156125490Y-122222551D01*
X156085716Y-122022592D01*
X156007695Y-121834234D01*
X155894427Y-121664716D01*
X155750264Y-121520553D01*
X155580746Y-121407285D01*
X155392388Y-121329264D01*
X155265376Y-121304000D01*
X155295939Y-121304000D01*
X155495898Y-121264226D01*
X155684256Y-121186205D01*
X155853774Y-121072937D01*
X155997937Y-120928774D01*
X156111205Y-120759256D01*
X156189226Y-120570898D01*
X156222072Y-120405771D01*
X156275225Y-120672989D01*
X156379629Y-120925043D01*
X156531201Y-121151886D01*
X156724114Y-121344799D01*
X156950957Y-121496371D01*
X157203011Y-121600775D01*
X157470589Y-121654000D01*
X157743411Y-121654000D01*
X158010989Y-121600775D01*
X158263043Y-121496371D01*
X158489886Y-121344799D01*
X158682799Y-121151886D01*
X158834371Y-120925043D01*
X158938775Y-120672989D01*
X158992000Y-120405411D01*
X158992000Y-120132589D01*
X158938775Y-119865011D01*
X158834371Y-119612957D01*
X158695460Y-119405061D01*
X164192000Y-119405061D01*
X164192000Y-119608939D01*
X164231774Y-119808898D01*
X164309795Y-119997256D01*
X164423063Y-120166774D01*
X164567226Y-120310937D01*
X164736744Y-120424205D01*
X164925102Y-120502226D01*
X165125061Y-120542000D01*
X165328939Y-120542000D01*
X165528898Y-120502226D01*
X165717256Y-120424205D01*
X165886774Y-120310937D01*
X166030937Y-120166774D01*
X166144205Y-119997256D01*
X166222226Y-119808898D01*
X166262000Y-119608939D01*
X166262000Y-119405061D01*
X166222226Y-119205102D01*
X166144205Y-119016744D01*
X166030937Y-118847226D01*
X165886774Y-118703063D01*
X165717256Y-118589795D01*
X165528898Y-118511774D01*
X165328939Y-118472000D01*
X165125061Y-118472000D01*
X164925102Y-118511774D01*
X164736744Y-118589795D01*
X164567226Y-118703063D01*
X164423063Y-118847226D01*
X164309795Y-119016744D01*
X164231774Y-119205102D01*
X164192000Y-119405061D01*
X158695460Y-119405061D01*
X158682799Y-119386114D01*
X158489886Y-119193201D01*
X158263043Y-119041629D01*
X158010989Y-118937225D01*
X157743411Y-118884000D01*
X157470589Y-118884000D01*
X157203011Y-118937225D01*
X156950957Y-119041629D01*
X156724114Y-119193201D01*
X156531201Y-119386114D01*
X156379629Y-119612957D01*
X156275225Y-119865011D01*
X156222072Y-120132229D01*
X156189226Y-119967102D01*
X156111205Y-119778744D01*
X155997937Y-119609226D01*
X155853774Y-119465063D01*
X155684256Y-119351795D01*
X155495898Y-119273774D01*
X155295939Y-119234000D01*
X155092061Y-119234000D01*
X154892102Y-119273774D01*
X154703744Y-119351795D01*
X154534226Y-119465063D01*
X154390063Y-119609226D01*
X154276795Y-119778744D01*
X154198774Y-119967102D01*
X154159000Y-120167061D01*
X154159000Y-120370939D01*
X154198774Y-120570898D01*
X154276795Y-120759256D01*
X154390063Y-120928774D01*
X154534226Y-121072937D01*
X154703744Y-121186205D01*
X154892102Y-121264226D01*
X155019114Y-121289490D01*
X154988551Y-121289490D01*
X154788592Y-121329264D01*
X154600234Y-121407285D01*
X154430716Y-121520553D01*
X154286553Y-121664716D01*
X154173285Y-121834234D01*
X154095264Y-122022592D01*
X154055490Y-122222551D01*
X150474585Y-122222551D01*
X150450726Y-122102604D01*
X150372705Y-121914246D01*
X150259437Y-121744728D01*
X150115274Y-121600565D01*
X149945756Y-121487297D01*
X149757398Y-121409276D01*
X149557439Y-121369502D01*
X149353561Y-121369502D01*
X149153602Y-121409276D01*
X148965244Y-121487297D01*
X148795726Y-121600565D01*
X148651563Y-121744728D01*
X148538295Y-121914246D01*
X148460274Y-122102604D01*
X148420500Y-122302563D01*
X148420500Y-122506441D01*
X148460274Y-122706400D01*
X148538295Y-122894758D01*
X148651563Y-123064276D01*
X148693033Y-123105746D01*
X148515158Y-123032068D01*
X148228260Y-122975000D01*
X147935740Y-122975000D01*
X147648842Y-123032068D01*
X147378589Y-123144010D01*
X147135368Y-123306525D01*
X147003513Y-123438380D01*
X146981502Y-123365820D01*
X146922537Y-123255506D01*
X146843185Y-123158815D01*
X146746494Y-123079463D01*
X146636180Y-123020498D01*
X146516482Y-122984188D01*
X146392000Y-122971928D01*
X144692000Y-122971928D01*
X144567518Y-122984188D01*
X144447820Y-123020498D01*
X144337506Y-123079463D01*
X144240815Y-123158815D01*
X144161463Y-123255506D01*
X144102498Y-123365820D01*
X144066188Y-123485518D01*
X144053928Y-123610000D01*
X144053928Y-125310000D01*
X144066188Y-125434482D01*
X144102498Y-125554180D01*
X144161463Y-125664494D01*
X144240815Y-125761185D01*
X144327104Y-125832000D01*
X141679766Y-125832000D01*
X141881989Y-125791775D01*
X142134043Y-125687371D01*
X142360886Y-125535799D01*
X142553799Y-125342886D01*
X142705371Y-125116043D01*
X142809775Y-124863989D01*
X142863000Y-124596411D01*
X142863000Y-124323589D01*
X142809775Y-124056011D01*
X142705371Y-123803957D01*
X142553799Y-123577114D01*
X142360886Y-123384201D01*
X142134043Y-123232629D01*
X141881989Y-123128225D01*
X141614411Y-123075000D01*
X141341589Y-123075000D01*
X141074011Y-123128225D01*
X140821957Y-123232629D01*
X140595114Y-123384201D01*
X140402201Y-123577114D01*
X140250629Y-123803957D01*
X140146225Y-124056011D01*
X140093000Y-124323589D01*
X140093000Y-124596411D01*
X140146225Y-124863989D01*
X140250629Y-125116043D01*
X140402201Y-125342886D01*
X140595114Y-125535799D01*
X140821957Y-125687371D01*
X141074011Y-125791775D01*
X141276234Y-125832000D01*
X126242970Y-125832000D01*
X126521207Y-125646088D01*
X126916088Y-125251207D01*
X127226344Y-124786876D01*
X127440052Y-124270939D01*
X127549000Y-123723223D01*
X127549000Y-123164777D01*
X127440052Y-122617061D01*
X127226344Y-122101124D01*
X126916088Y-121636793D01*
X126521207Y-121241912D01*
X126056876Y-120931656D01*
X125540939Y-120717948D01*
X124993223Y-120609000D01*
X124434777Y-120609000D01*
X123887061Y-120717948D01*
X123371124Y-120931656D01*
X122906793Y-121241912D01*
X122511912Y-121636793D01*
X122326000Y-121915030D01*
X122326000Y-118271661D01*
X134220000Y-118271661D01*
X134220000Y-118475539D01*
X134259774Y-118675498D01*
X134337795Y-118863856D01*
X134451063Y-119033374D01*
X134595226Y-119177537D01*
X134764744Y-119290805D01*
X134953102Y-119368826D01*
X135153061Y-119408600D01*
X135356939Y-119408600D01*
X135556898Y-119368826D01*
X135745256Y-119290805D01*
X135914774Y-119177537D01*
X136058937Y-119033374D01*
X136172205Y-118863856D01*
X136250226Y-118675498D01*
X136290000Y-118475539D01*
X136290000Y-118271661D01*
X136250226Y-118071702D01*
X136172205Y-117883344D01*
X136058937Y-117713826D01*
X135914774Y-117569663D01*
X135745256Y-117456395D01*
X135556898Y-117378374D01*
X135356939Y-117338600D01*
X135153061Y-117338600D01*
X134953102Y-117378374D01*
X134764744Y-117456395D01*
X134595226Y-117569663D01*
X134451063Y-117713826D01*
X134337795Y-117883344D01*
X134259774Y-118071702D01*
X134220000Y-118271661D01*
X122326000Y-118271661D01*
X122326000Y-114579061D01*
X124441000Y-114579061D01*
X124441000Y-114782939D01*
X124480774Y-114982898D01*
X124558795Y-115171256D01*
X124672063Y-115340774D01*
X124816226Y-115484937D01*
X124985744Y-115598205D01*
X125174102Y-115676226D01*
X125374061Y-115716000D01*
X125577939Y-115716000D01*
X125777898Y-115676226D01*
X125966256Y-115598205D01*
X126135774Y-115484937D01*
X126279937Y-115340774D01*
X126393205Y-115171256D01*
X126471226Y-114982898D01*
X126511000Y-114782939D01*
X126511000Y-114579061D01*
X126471226Y-114379102D01*
X126393205Y-114190744D01*
X126279937Y-114021226D01*
X126135774Y-113877063D01*
X125966256Y-113763795D01*
X125777898Y-113685774D01*
X125577939Y-113646000D01*
X125374061Y-113646000D01*
X125174102Y-113685774D01*
X124985744Y-113763795D01*
X124816226Y-113877063D01*
X124672063Y-114021226D01*
X124558795Y-114190744D01*
X124480774Y-114379102D01*
X124441000Y-114579061D01*
X122326000Y-114579061D01*
X122326000Y-113436061D01*
X133204000Y-113436061D01*
X133204000Y-113639939D01*
X133243774Y-113839898D01*
X133321795Y-114028256D01*
X133435063Y-114197774D01*
X133579226Y-114341937D01*
X133748744Y-114455205D01*
X133937102Y-114533226D01*
X134137061Y-114573000D01*
X134340939Y-114573000D01*
X134540898Y-114533226D01*
X134729256Y-114455205D01*
X134898774Y-114341937D01*
X135042937Y-114197774D01*
X135156205Y-114028256D01*
X135234226Y-113839898D01*
X135274000Y-113639939D01*
X135274000Y-113436061D01*
X135252108Y-113326000D01*
X140119928Y-113326000D01*
X140119928Y-114766000D01*
X140132188Y-114890482D01*
X140168498Y-115010180D01*
X140227463Y-115120494D01*
X140306815Y-115217185D01*
X140403506Y-115296537D01*
X140513820Y-115355502D01*
X140633518Y-115391812D01*
X140758000Y-115404072D01*
X140807945Y-115404072D01*
X140614238Y-115533503D01*
X140425503Y-115722238D01*
X140277215Y-115944167D01*
X140175072Y-116190761D01*
X140123000Y-116452544D01*
X140123000Y-116719456D01*
X140175072Y-116981239D01*
X140277215Y-117227833D01*
X140425503Y-117449762D01*
X140614238Y-117638497D01*
X140836167Y-117786785D01*
X141003266Y-117856000D01*
X140836167Y-117925215D01*
X140614238Y-118073503D01*
X140425503Y-118262238D01*
X140277215Y-118484167D01*
X140175072Y-118730761D01*
X140123000Y-118992544D01*
X140123000Y-119259456D01*
X140175072Y-119521239D01*
X140277215Y-119767833D01*
X140425503Y-119989762D01*
X140614238Y-120178497D01*
X140836167Y-120326785D01*
X141082761Y-120428928D01*
X141344544Y-120481000D01*
X141611456Y-120481000D01*
X141873239Y-120428928D01*
X142119833Y-120326785D01*
X142341762Y-120178497D01*
X142530497Y-119989762D01*
X142678785Y-119767833D01*
X142780928Y-119521239D01*
X142833000Y-119259456D01*
X142833000Y-118992544D01*
X142780928Y-118730761D01*
X142678785Y-118484167D01*
X142615238Y-118389061D01*
X147774000Y-118389061D01*
X147774000Y-118592939D01*
X147813774Y-118792898D01*
X147891795Y-118981256D01*
X148005063Y-119150774D01*
X148149226Y-119294937D01*
X148318744Y-119408205D01*
X148507102Y-119486226D01*
X148707061Y-119526000D01*
X148758289Y-119526000D01*
X148675063Y-119609226D01*
X148561795Y-119778744D01*
X148483774Y-119967102D01*
X148444000Y-120167061D01*
X148444000Y-120370939D01*
X148483774Y-120570898D01*
X148561795Y-120759256D01*
X148675063Y-120928774D01*
X148819226Y-121072937D01*
X148988744Y-121186205D01*
X149177102Y-121264226D01*
X149377061Y-121304000D01*
X149580939Y-121304000D01*
X149780898Y-121264226D01*
X149969256Y-121186205D01*
X150138774Y-121072937D01*
X150282937Y-120928774D01*
X150396205Y-120759256D01*
X150474226Y-120570898D01*
X150514000Y-120370939D01*
X150514000Y-120167061D01*
X150474226Y-119967102D01*
X150396205Y-119778744D01*
X150282937Y-119609226D01*
X150138774Y-119465063D01*
X149969256Y-119351795D01*
X149780898Y-119273774D01*
X149580939Y-119234000D01*
X149529711Y-119234000D01*
X149612937Y-119150774D01*
X149695099Y-119027810D01*
X149835226Y-119167937D01*
X150004744Y-119281205D01*
X150193102Y-119359226D01*
X150393061Y-119399000D01*
X150596939Y-119399000D01*
X150796898Y-119359226D01*
X150985256Y-119281205D01*
X151154774Y-119167937D01*
X151298937Y-119023774D01*
X151412205Y-118854256D01*
X151490226Y-118665898D01*
X151530000Y-118465939D01*
X151530000Y-118262061D01*
X151490226Y-118062102D01*
X151412205Y-117873744D01*
X151298937Y-117704226D01*
X151154774Y-117560063D01*
X150985256Y-117446795D01*
X150796898Y-117368774D01*
X150596939Y-117329000D01*
X150393061Y-117329000D01*
X150193102Y-117368774D01*
X150004744Y-117446795D01*
X149835226Y-117560063D01*
X149691063Y-117704226D01*
X149608901Y-117827190D01*
X149468774Y-117687063D01*
X149299256Y-117573795D01*
X149110898Y-117495774D01*
X148910939Y-117456000D01*
X148707061Y-117456000D01*
X148507102Y-117495774D01*
X148318744Y-117573795D01*
X148149226Y-117687063D01*
X148005063Y-117831226D01*
X147891795Y-118000744D01*
X147813774Y-118189102D01*
X147774000Y-118389061D01*
X142615238Y-118389061D01*
X142530497Y-118262238D01*
X142341762Y-118073503D01*
X142119833Y-117925215D01*
X141952734Y-117856000D01*
X142119833Y-117786785D01*
X142341762Y-117638497D01*
X142530497Y-117449762D01*
X142678785Y-117227833D01*
X142780928Y-116981239D01*
X142833000Y-116719456D01*
X142833000Y-116452544D01*
X142780928Y-116190761D01*
X142678785Y-115944167D01*
X142540955Y-115737889D01*
X148984228Y-115737889D01*
X148984228Y-115941767D01*
X149024002Y-116141726D01*
X149102023Y-116330084D01*
X149215291Y-116499602D01*
X149359454Y-116643765D01*
X149528972Y-116757033D01*
X149717330Y-116835054D01*
X149917289Y-116874828D01*
X150121167Y-116874828D01*
X150321126Y-116835054D01*
X150509484Y-116757033D01*
X150573624Y-116714176D01*
X150608334Y-116737368D01*
X150796692Y-116815389D01*
X150996651Y-116855163D01*
X151200529Y-116855163D01*
X151400488Y-116815389D01*
X151588846Y-116737368D01*
X151758364Y-116624100D01*
X151902527Y-116479937D01*
X152015795Y-116310419D01*
X152093816Y-116122061D01*
X152133590Y-115922102D01*
X152133590Y-115718224D01*
X152093816Y-115518265D01*
X152015795Y-115329907D01*
X151902527Y-115160389D01*
X151758364Y-115016226D01*
X151588846Y-114902958D01*
X151400488Y-114824937D01*
X151200529Y-114785163D01*
X150996651Y-114785163D01*
X150796692Y-114824937D01*
X150608334Y-114902958D01*
X150544194Y-114945815D01*
X150509484Y-114922623D01*
X150321126Y-114844602D01*
X150121167Y-114804828D01*
X149917289Y-114804828D01*
X149717330Y-114844602D01*
X149528972Y-114922623D01*
X149359454Y-115035891D01*
X149215291Y-115180054D01*
X149102023Y-115349572D01*
X149024002Y-115537930D01*
X148984228Y-115737889D01*
X142540955Y-115737889D01*
X142530497Y-115722238D01*
X142341762Y-115533503D01*
X142148055Y-115404072D01*
X142198000Y-115404072D01*
X142322482Y-115391812D01*
X142442180Y-115355502D01*
X142552494Y-115296537D01*
X142649185Y-115217185D01*
X142728537Y-115120494D01*
X142787502Y-115010180D01*
X142823812Y-114890482D01*
X142836072Y-114766000D01*
X142836072Y-113326000D01*
X142823812Y-113201518D01*
X142787502Y-113081820D01*
X142728537Y-112971506D01*
X142692883Y-112928061D01*
X149460000Y-112928061D01*
X149460000Y-113131939D01*
X149499774Y-113331898D01*
X149577795Y-113520256D01*
X149691063Y-113689774D01*
X149835226Y-113833937D01*
X150004744Y-113947205D01*
X150193102Y-114025226D01*
X150393061Y-114065000D01*
X150596939Y-114065000D01*
X150796898Y-114025226D01*
X150985256Y-113947205D01*
X151005233Y-113933857D01*
X151046792Y-113961626D01*
X151235150Y-114039647D01*
X151435109Y-114079421D01*
X151638987Y-114079421D01*
X151838946Y-114039647D01*
X152027304Y-113961626D01*
X152171546Y-113865247D01*
X152328176Y-113930126D01*
X152528135Y-113969900D01*
X152732013Y-113969900D01*
X152931972Y-113930126D01*
X153120330Y-113852105D01*
X153289848Y-113738837D01*
X153434011Y-113594674D01*
X153547279Y-113425156D01*
X153625300Y-113236798D01*
X153665074Y-113036839D01*
X153665074Y-112893589D01*
X158889000Y-112893589D01*
X158889000Y-113166411D01*
X158942225Y-113433989D01*
X159046629Y-113686043D01*
X159198201Y-113912886D01*
X159391114Y-114105799D01*
X159617957Y-114257371D01*
X159870011Y-114361775D01*
X160137589Y-114415000D01*
X160410411Y-114415000D01*
X160677989Y-114361775D01*
X160930043Y-114257371D01*
X161156886Y-114105799D01*
X161349799Y-113912886D01*
X161501371Y-113686043D01*
X161605775Y-113433989D01*
X161659000Y-113166411D01*
X161659000Y-112893589D01*
X161605775Y-112626011D01*
X161501371Y-112373957D01*
X161349799Y-112147114D01*
X161156886Y-111954201D01*
X160930043Y-111802629D01*
X160677989Y-111698225D01*
X160410411Y-111645000D01*
X160137589Y-111645000D01*
X159870011Y-111698225D01*
X159617957Y-111802629D01*
X159391114Y-111954201D01*
X159198201Y-112147114D01*
X159046629Y-112373957D01*
X158942225Y-112626011D01*
X158889000Y-112893589D01*
X153665074Y-112893589D01*
X153665074Y-112832961D01*
X153625300Y-112633002D01*
X153547279Y-112444644D01*
X153434011Y-112275126D01*
X153289848Y-112130963D01*
X153120330Y-112017695D01*
X152931972Y-111939674D01*
X152732013Y-111899900D01*
X152528135Y-111899900D01*
X152328176Y-111939674D01*
X152139818Y-112017695D01*
X151995576Y-112114074D01*
X151838946Y-112049195D01*
X151638987Y-112009421D01*
X151435109Y-112009421D01*
X151235150Y-112049195D01*
X151046792Y-112127216D01*
X151026815Y-112140564D01*
X150985256Y-112112795D01*
X150796898Y-112034774D01*
X150596939Y-111995000D01*
X150393061Y-111995000D01*
X150193102Y-112034774D01*
X150004744Y-112112795D01*
X149835226Y-112226063D01*
X149691063Y-112370226D01*
X149577795Y-112539744D01*
X149499774Y-112728102D01*
X149460000Y-112928061D01*
X142692883Y-112928061D01*
X142649185Y-112874815D01*
X142552494Y-112795463D01*
X142442180Y-112736498D01*
X142322482Y-112700188D01*
X142198000Y-112687928D01*
X140758000Y-112687928D01*
X140633518Y-112700188D01*
X140513820Y-112736498D01*
X140403506Y-112795463D01*
X140306815Y-112874815D01*
X140227463Y-112971506D01*
X140168498Y-113081820D01*
X140132188Y-113201518D01*
X140119928Y-113326000D01*
X135252108Y-113326000D01*
X135234226Y-113236102D01*
X135156205Y-113047744D01*
X135042937Y-112878226D01*
X134898774Y-112734063D01*
X134729256Y-112620795D01*
X134540898Y-112542774D01*
X134340939Y-112503000D01*
X134137061Y-112503000D01*
X133937102Y-112542774D01*
X133748744Y-112620795D01*
X133579226Y-112734063D01*
X133435063Y-112878226D01*
X133321795Y-113047744D01*
X133243774Y-113236102D01*
X133204000Y-113436061D01*
X122326000Y-113436061D01*
X122326000Y-110515061D01*
X128886000Y-110515061D01*
X128886000Y-110718939D01*
X128925774Y-110918898D01*
X129003795Y-111107256D01*
X129117063Y-111276774D01*
X129261226Y-111420937D01*
X129430744Y-111534205D01*
X129619102Y-111612226D01*
X129819061Y-111652000D01*
X130022939Y-111652000D01*
X130222898Y-111612226D01*
X130411256Y-111534205D01*
X130580774Y-111420937D01*
X130597650Y-111404061D01*
X132061000Y-111404061D01*
X132061000Y-111607939D01*
X132100774Y-111807898D01*
X132178795Y-111996256D01*
X132292063Y-112165774D01*
X132436226Y-112309937D01*
X132605744Y-112423205D01*
X132794102Y-112501226D01*
X132994061Y-112541000D01*
X133197939Y-112541000D01*
X133397898Y-112501226D01*
X133586256Y-112423205D01*
X133755774Y-112309937D01*
X133899937Y-112165774D01*
X134013205Y-111996256D01*
X134091226Y-111807898D01*
X134123690Y-111644690D01*
X134286898Y-111612226D01*
X134475256Y-111534205D01*
X134644774Y-111420937D01*
X134788650Y-111277061D01*
X156953000Y-111277061D01*
X156953000Y-111480939D01*
X156992774Y-111680898D01*
X157070795Y-111869256D01*
X157184063Y-112038774D01*
X157328226Y-112182937D01*
X157497744Y-112296205D01*
X157686102Y-112374226D01*
X157886061Y-112414000D01*
X158089939Y-112414000D01*
X158289898Y-112374226D01*
X158478256Y-112296205D01*
X158647774Y-112182937D01*
X158791937Y-112038774D01*
X158905205Y-111869256D01*
X158983226Y-111680898D01*
X159023000Y-111480939D01*
X159023000Y-111277061D01*
X158983226Y-111077102D01*
X158905205Y-110888744D01*
X158791937Y-110719226D01*
X158647774Y-110575063D01*
X158478256Y-110461795D01*
X158289898Y-110383774D01*
X158089939Y-110344000D01*
X157886061Y-110344000D01*
X157686102Y-110383774D01*
X157497744Y-110461795D01*
X157328226Y-110575063D01*
X157184063Y-110719226D01*
X157070795Y-110888744D01*
X156992774Y-111077102D01*
X156953000Y-111277061D01*
X134788650Y-111277061D01*
X134788937Y-111276774D01*
X134902205Y-111107256D01*
X134980226Y-110918898D01*
X135020000Y-110718939D01*
X135020000Y-110515061D01*
X134980226Y-110315102D01*
X134902205Y-110126744D01*
X134788937Y-109957226D01*
X134644774Y-109813063D01*
X134475256Y-109699795D01*
X134286898Y-109621774D01*
X134086939Y-109582000D01*
X133883061Y-109582000D01*
X133683102Y-109621774D01*
X133494744Y-109699795D01*
X133325226Y-109813063D01*
X133181063Y-109957226D01*
X133067795Y-110126744D01*
X132989774Y-110315102D01*
X132957310Y-110478310D01*
X132794102Y-110510774D01*
X132605744Y-110588795D01*
X132436226Y-110702063D01*
X132292063Y-110846226D01*
X132178795Y-111015744D01*
X132100774Y-111204102D01*
X132061000Y-111404061D01*
X130597650Y-111404061D01*
X130724937Y-111276774D01*
X130838205Y-111107256D01*
X130916226Y-110918898D01*
X130956000Y-110718939D01*
X130956000Y-110515061D01*
X130916226Y-110315102D01*
X130838205Y-110126744D01*
X130724937Y-109957226D01*
X130580774Y-109813063D01*
X130411256Y-109699795D01*
X130222898Y-109621774D01*
X130022939Y-109582000D01*
X129819061Y-109582000D01*
X129619102Y-109621774D01*
X129430744Y-109699795D01*
X129261226Y-109813063D01*
X129117063Y-109957226D01*
X129003795Y-110126744D01*
X128925774Y-110315102D01*
X128886000Y-110515061D01*
X122326000Y-110515061D01*
X122326000Y-106451061D01*
X134601000Y-106451061D01*
X134601000Y-106654939D01*
X134640774Y-106854898D01*
X134718795Y-107043256D01*
X134832063Y-107212774D01*
X134976226Y-107356937D01*
X135145744Y-107470205D01*
X135334102Y-107548226D01*
X135534061Y-107588000D01*
X135737939Y-107588000D01*
X135937898Y-107548226D01*
X136126256Y-107470205D01*
X136130961Y-107467061D01*
X142475000Y-107467061D01*
X142475000Y-107670939D01*
X142514774Y-107870898D01*
X142592795Y-108059256D01*
X142706063Y-108228774D01*
X142850226Y-108372937D01*
X143019744Y-108486205D01*
X143208102Y-108564226D01*
X143312541Y-108585000D01*
X143208102Y-108605774D01*
X143019744Y-108683795D01*
X142850226Y-108797063D01*
X142706063Y-108941226D01*
X142592795Y-109110744D01*
X142514774Y-109299102D01*
X142475000Y-109499061D01*
X142475000Y-109702939D01*
X142514774Y-109902898D01*
X142592795Y-110091256D01*
X142706063Y-110260774D01*
X142850226Y-110404937D01*
X143019744Y-110518205D01*
X143208102Y-110596226D01*
X143408061Y-110636000D01*
X143611939Y-110636000D01*
X143811898Y-110596226D01*
X144000256Y-110518205D01*
X144169774Y-110404937D01*
X144313937Y-110260774D01*
X144427205Y-110091256D01*
X144505226Y-109902898D01*
X144545000Y-109702939D01*
X144545000Y-109499061D01*
X144505226Y-109299102D01*
X144427205Y-109110744D01*
X144313937Y-108941226D01*
X144169774Y-108797063D01*
X144079975Y-108737061D01*
X153549398Y-108737061D01*
X153549398Y-108940939D01*
X153589172Y-109140898D01*
X153667193Y-109329256D01*
X153780461Y-109498774D01*
X153924624Y-109642937D01*
X154094142Y-109756205D01*
X154282500Y-109834226D01*
X154482459Y-109874000D01*
X154686337Y-109874000D01*
X154886296Y-109834226D01*
X155074654Y-109756205D01*
X155244172Y-109642937D01*
X155388335Y-109498774D01*
X155501603Y-109329256D01*
X155566869Y-109171690D01*
X160228000Y-109171690D01*
X160228000Y-109392310D01*
X160271041Y-109608692D01*
X160355469Y-109812519D01*
X160478039Y-109995958D01*
X160634042Y-110151961D01*
X160817481Y-110274531D01*
X161021308Y-110358959D01*
X161237690Y-110402000D01*
X161458310Y-110402000D01*
X161674692Y-110358959D01*
X161878519Y-110274531D01*
X162061958Y-110151961D01*
X162217961Y-109995958D01*
X162340531Y-109812519D01*
X162424959Y-109608692D01*
X162468000Y-109392310D01*
X162468000Y-109171690D01*
X162424959Y-108955308D01*
X162340531Y-108751481D01*
X162217961Y-108568042D01*
X162061958Y-108412039D01*
X161878519Y-108289469D01*
X161674692Y-108205041D01*
X161458310Y-108162000D01*
X161237690Y-108162000D01*
X161021308Y-108205041D01*
X160817481Y-108289469D01*
X160634042Y-108412039D01*
X160478039Y-108568042D01*
X160355469Y-108751481D01*
X160271041Y-108955308D01*
X160228000Y-109171690D01*
X155566869Y-109171690D01*
X155579624Y-109140898D01*
X155619398Y-108940939D01*
X155619398Y-108737061D01*
X155579624Y-108537102D01*
X155501603Y-108348744D01*
X155388335Y-108179226D01*
X155244172Y-108035063D01*
X155074654Y-107921795D01*
X154886296Y-107843774D01*
X154686337Y-107804000D01*
X154482459Y-107804000D01*
X154282500Y-107843774D01*
X154094142Y-107921795D01*
X153924624Y-108035063D01*
X153780461Y-108179226D01*
X153667193Y-108348744D01*
X153589172Y-108537102D01*
X153549398Y-108737061D01*
X144079975Y-108737061D01*
X144000256Y-108683795D01*
X143811898Y-108605774D01*
X143707459Y-108585000D01*
X143811898Y-108564226D01*
X144000256Y-108486205D01*
X144169774Y-108372937D01*
X144313937Y-108228774D01*
X144427205Y-108059256D01*
X144505226Y-107870898D01*
X144545000Y-107670939D01*
X144545000Y-107467061D01*
X144505226Y-107267102D01*
X144427205Y-107078744D01*
X144313937Y-106909226D01*
X144169774Y-106765063D01*
X144000256Y-106651795D01*
X143811898Y-106573774D01*
X143611939Y-106534000D01*
X143408061Y-106534000D01*
X143208102Y-106573774D01*
X143019744Y-106651795D01*
X142850226Y-106765063D01*
X142706063Y-106909226D01*
X142592795Y-107078744D01*
X142514774Y-107267102D01*
X142475000Y-107467061D01*
X136130961Y-107467061D01*
X136295774Y-107356937D01*
X136439937Y-107212774D01*
X136553205Y-107043256D01*
X136631226Y-106854898D01*
X136671000Y-106654939D01*
X136671000Y-106451061D01*
X136631226Y-106251102D01*
X136553205Y-106062744D01*
X136439937Y-105893226D01*
X136295774Y-105749063D01*
X136243989Y-105714461D01*
X147428000Y-105714461D01*
X147428000Y-105918339D01*
X147467774Y-106118298D01*
X147545795Y-106306656D01*
X147659063Y-106476174D01*
X147803226Y-106620337D01*
X147972744Y-106733605D01*
X148161102Y-106811626D01*
X148361061Y-106851400D01*
X148564939Y-106851400D01*
X148764898Y-106811626D01*
X148953256Y-106733605D01*
X149122774Y-106620337D01*
X149266937Y-106476174D01*
X149380205Y-106306656D01*
X149458226Y-106118298D01*
X149498000Y-105918339D01*
X149498000Y-105714461D01*
X149458226Y-105514502D01*
X149380205Y-105326144D01*
X149266937Y-105156626D01*
X149122774Y-105012463D01*
X149070989Y-104977861D01*
X152406400Y-104977861D01*
X152406400Y-105181739D01*
X152446174Y-105381698D01*
X152524195Y-105570056D01*
X152637463Y-105739574D01*
X152781626Y-105883737D01*
X152951144Y-105997005D01*
X153139502Y-106075026D01*
X153339461Y-106114800D01*
X153543339Y-106114800D01*
X153743298Y-106075026D01*
X153931656Y-105997005D01*
X154101174Y-105883737D01*
X154245337Y-105739574D01*
X154358605Y-105570056D01*
X154436626Y-105381698D01*
X154476400Y-105181739D01*
X154476400Y-104977861D01*
X154436626Y-104777902D01*
X154358605Y-104589544D01*
X154245337Y-104420026D01*
X154101174Y-104275863D01*
X153931656Y-104162595D01*
X153743298Y-104084574D01*
X153543339Y-104044800D01*
X153339461Y-104044800D01*
X153139502Y-104084574D01*
X152951144Y-104162595D01*
X152781626Y-104275863D01*
X152637463Y-104420026D01*
X152524195Y-104589544D01*
X152446174Y-104777902D01*
X152406400Y-104977861D01*
X149070989Y-104977861D01*
X148953256Y-104899195D01*
X148764898Y-104821174D01*
X148564939Y-104781400D01*
X148361061Y-104781400D01*
X148161102Y-104821174D01*
X147972744Y-104899195D01*
X147803226Y-105012463D01*
X147659063Y-105156626D01*
X147545795Y-105326144D01*
X147467774Y-105514502D01*
X147428000Y-105714461D01*
X136243989Y-105714461D01*
X136126256Y-105635795D01*
X135937898Y-105557774D01*
X135737939Y-105518000D01*
X135534061Y-105518000D01*
X135334102Y-105557774D01*
X135145744Y-105635795D01*
X134976226Y-105749063D01*
X134832063Y-105893226D01*
X134718795Y-106062744D01*
X134640774Y-106251102D01*
X134601000Y-106451061D01*
X122326000Y-106451061D01*
X122326000Y-104228042D01*
X123918000Y-104228042D01*
X123918000Y-104559958D01*
X123982754Y-104885496D01*
X124109772Y-105192147D01*
X124294175Y-105468125D01*
X124528875Y-105702825D01*
X124804853Y-105887228D01*
X125111504Y-106014246D01*
X125437042Y-106079000D01*
X125768958Y-106079000D01*
X126094496Y-106014246D01*
X126401147Y-105887228D01*
X126677125Y-105702825D01*
X126911825Y-105468125D01*
X127096228Y-105192147D01*
X127223246Y-104885496D01*
X127288000Y-104559958D01*
X127288000Y-104228042D01*
X127223246Y-103902504D01*
X127096228Y-103595853D01*
X126911825Y-103319875D01*
X126677125Y-103085175D01*
X126401147Y-102900772D01*
X126094496Y-102773754D01*
X125768958Y-102709000D01*
X125437042Y-102709000D01*
X125111504Y-102773754D01*
X124804853Y-102900772D01*
X124528875Y-103085175D01*
X124294175Y-103319875D01*
X124109772Y-103595853D01*
X123982754Y-103902504D01*
X123918000Y-104228042D01*
X122326000Y-104228042D01*
X122326000Y-99389861D01*
X143719600Y-99389861D01*
X143719600Y-99593739D01*
X143759374Y-99793698D01*
X143837395Y-99982056D01*
X143950663Y-100151574D01*
X144094826Y-100295737D01*
X144253000Y-100401425D01*
X144253000Y-100533539D01*
X144292774Y-100733498D01*
X144370795Y-100921856D01*
X144484063Y-101091374D01*
X144628226Y-101235537D01*
X144797744Y-101348805D01*
X144986102Y-101426826D01*
X145186061Y-101466600D01*
X145389939Y-101466600D01*
X145589898Y-101426826D01*
X145778256Y-101348805D01*
X145947774Y-101235537D01*
X146091937Y-101091374D01*
X146205205Y-100921856D01*
X146283226Y-100733498D01*
X146323000Y-100533539D01*
X146323000Y-100329661D01*
X155022600Y-100329661D01*
X155022600Y-100533539D01*
X155062374Y-100733498D01*
X155140395Y-100921856D01*
X155253663Y-101091374D01*
X155397826Y-101235537D01*
X155567344Y-101348805D01*
X155755702Y-101426826D01*
X155955661Y-101466600D01*
X156159539Y-101466600D01*
X156359498Y-101426826D01*
X156547856Y-101348805D01*
X156717374Y-101235537D01*
X156861537Y-101091374D01*
X156974805Y-100921856D01*
X157052826Y-100733498D01*
X157092600Y-100533539D01*
X157092600Y-100411690D01*
X160228000Y-100411690D01*
X160228000Y-100632310D01*
X160271041Y-100848692D01*
X160355469Y-101052519D01*
X160478039Y-101235958D01*
X160634042Y-101391961D01*
X160817481Y-101514531D01*
X161021308Y-101598959D01*
X161237690Y-101642000D01*
X161458310Y-101642000D01*
X161674692Y-101598959D01*
X161878519Y-101514531D01*
X162061958Y-101391961D01*
X162217961Y-101235958D01*
X162340531Y-101052519D01*
X162424959Y-100848692D01*
X162468000Y-100632310D01*
X162468000Y-100411690D01*
X162424959Y-100195308D01*
X162340531Y-99991481D01*
X162217961Y-99808042D01*
X162061958Y-99652039D01*
X161878519Y-99529469D01*
X161674692Y-99445041D01*
X161458310Y-99402000D01*
X161237690Y-99402000D01*
X161021308Y-99445041D01*
X160817481Y-99529469D01*
X160634042Y-99652039D01*
X160478039Y-99808042D01*
X160355469Y-99991481D01*
X160271041Y-100195308D01*
X160228000Y-100411690D01*
X157092600Y-100411690D01*
X157092600Y-100329661D01*
X157052826Y-100129702D01*
X156974805Y-99941344D01*
X156861537Y-99771826D01*
X156717374Y-99627663D01*
X156547856Y-99514395D01*
X156359498Y-99436374D01*
X156159539Y-99396600D01*
X155955661Y-99396600D01*
X155755702Y-99436374D01*
X155567344Y-99514395D01*
X155397826Y-99627663D01*
X155253663Y-99771826D01*
X155140395Y-99941344D01*
X155062374Y-100129702D01*
X155022600Y-100329661D01*
X146323000Y-100329661D01*
X146283226Y-100129702D01*
X146205205Y-99941344D01*
X146091937Y-99771826D01*
X145947774Y-99627663D01*
X145789600Y-99521975D01*
X145789600Y-99389861D01*
X145749826Y-99189902D01*
X145671805Y-99001544D01*
X145558537Y-98832026D01*
X145414374Y-98687863D01*
X145244856Y-98574595D01*
X145056498Y-98496574D01*
X144856539Y-98456800D01*
X144652661Y-98456800D01*
X144452702Y-98496574D01*
X144264344Y-98574595D01*
X144094826Y-98687863D01*
X143950663Y-98832026D01*
X143837395Y-99001544D01*
X143759374Y-99189902D01*
X143719600Y-99389861D01*
X122326000Y-99389861D01*
X122326000Y-97540970D01*
X122511912Y-97819207D01*
X122906793Y-98214088D01*
X123371124Y-98524344D01*
X123887061Y-98738052D01*
X124434777Y-98847000D01*
X124993223Y-98847000D01*
X125540939Y-98738052D01*
X126056876Y-98524344D01*
X126521207Y-98214088D01*
X126916088Y-97819207D01*
X127173434Y-97434061D01*
X129140000Y-97434061D01*
X129140000Y-97637939D01*
X129179774Y-97837898D01*
X129257795Y-98026256D01*
X129371063Y-98195774D01*
X129515226Y-98339937D01*
X129684744Y-98453205D01*
X129873102Y-98531226D01*
X130073061Y-98571000D01*
X130276939Y-98571000D01*
X130476898Y-98531226D01*
X130665256Y-98453205D01*
X130834774Y-98339937D01*
X130978937Y-98195774D01*
X131063603Y-98069061D01*
X155556000Y-98069061D01*
X155556000Y-98272939D01*
X155595774Y-98472898D01*
X155673795Y-98661256D01*
X155787063Y-98830774D01*
X155931226Y-98974937D01*
X156100744Y-99088205D01*
X156289102Y-99166226D01*
X156489061Y-99206000D01*
X156692939Y-99206000D01*
X156892898Y-99166226D01*
X157081256Y-99088205D01*
X157250774Y-98974937D01*
X157394937Y-98830774D01*
X157508205Y-98661256D01*
X157586226Y-98472898D01*
X157626000Y-98272939D01*
X157626000Y-98069061D01*
X157586226Y-97869102D01*
X157508205Y-97680744D01*
X157394937Y-97511226D01*
X157250774Y-97367063D01*
X157081256Y-97253795D01*
X156892898Y-97175774D01*
X156692939Y-97136000D01*
X156489061Y-97136000D01*
X156289102Y-97175774D01*
X156100744Y-97253795D01*
X155931226Y-97367063D01*
X155787063Y-97511226D01*
X155673795Y-97680744D01*
X155595774Y-97869102D01*
X155556000Y-98069061D01*
X131063603Y-98069061D01*
X131092205Y-98026256D01*
X131170226Y-97837898D01*
X131210000Y-97637939D01*
X131210000Y-97434061D01*
X131170226Y-97234102D01*
X131092205Y-97045744D01*
X130978937Y-96876226D01*
X130834774Y-96732063D01*
X130668947Y-96621261D01*
X145573800Y-96621261D01*
X145573800Y-96825139D01*
X145613574Y-97025098D01*
X145691595Y-97213456D01*
X145804863Y-97382974D01*
X145949026Y-97527137D01*
X146118544Y-97640405D01*
X146306902Y-97718426D01*
X146506861Y-97758200D01*
X146710739Y-97758200D01*
X146910698Y-97718426D01*
X147099056Y-97640405D01*
X147268574Y-97527137D01*
X147412737Y-97382974D01*
X147526005Y-97213456D01*
X147604026Y-97025098D01*
X147643800Y-96825139D01*
X147643800Y-96621261D01*
X147604026Y-96421302D01*
X147526005Y-96232944D01*
X147412737Y-96063426D01*
X147268574Y-95919263D01*
X147099056Y-95805995D01*
X146910698Y-95727974D01*
X146710739Y-95688200D01*
X146506861Y-95688200D01*
X146306902Y-95727974D01*
X146118544Y-95805995D01*
X145949026Y-95919263D01*
X145804863Y-96063426D01*
X145691595Y-96232944D01*
X145613574Y-96421302D01*
X145573800Y-96621261D01*
X130668947Y-96621261D01*
X130665256Y-96618795D01*
X130476898Y-96540774D01*
X130276939Y-96501000D01*
X130073061Y-96501000D01*
X129873102Y-96540774D01*
X129684744Y-96618795D01*
X129515226Y-96732063D01*
X129371063Y-96876226D01*
X129257795Y-97045744D01*
X129179774Y-97234102D01*
X129140000Y-97434061D01*
X127173434Y-97434061D01*
X127226344Y-97354876D01*
X127440052Y-96838939D01*
X127549000Y-96291223D01*
X127549000Y-95732777D01*
X127440052Y-95185061D01*
X127277432Y-94792461D01*
X151492000Y-94792461D01*
X151492000Y-94996339D01*
X151531774Y-95196298D01*
X151609795Y-95384656D01*
X151723063Y-95554174D01*
X151867226Y-95698337D01*
X152036744Y-95811605D01*
X152225102Y-95889626D01*
X152425061Y-95929400D01*
X152628939Y-95929400D01*
X152828898Y-95889626D01*
X153017256Y-95811605D01*
X153186774Y-95698337D01*
X153330937Y-95554174D01*
X153444205Y-95384656D01*
X153522226Y-95196298D01*
X153562000Y-94996339D01*
X153562000Y-94792461D01*
X153522226Y-94592502D01*
X153444205Y-94404144D01*
X153330937Y-94234626D01*
X153186774Y-94090463D01*
X153017256Y-93977195D01*
X152828898Y-93899174D01*
X152628939Y-93859400D01*
X152425061Y-93859400D01*
X152225102Y-93899174D01*
X152036744Y-93977195D01*
X151867226Y-94090463D01*
X151723063Y-94234626D01*
X151609795Y-94404144D01*
X151531774Y-94592502D01*
X151492000Y-94792461D01*
X127277432Y-94792461D01*
X127226344Y-94669124D01*
X126916088Y-94204793D01*
X126521207Y-93809912D01*
X126242970Y-93624000D01*
X153959289Y-93624000D01*
X153882063Y-93701226D01*
G37*
X153882063Y-93701226D02*
X153768795Y-93870744D01*
X153690774Y-94059102D01*
X153651000Y-94259061D01*
X153651000Y-94462939D01*
X153690774Y-94662898D01*
X153768795Y-94851256D01*
X153882063Y-95020774D01*
X154026226Y-95164937D01*
X154195744Y-95278205D01*
X154384102Y-95356226D01*
X154584061Y-95396000D01*
X154787939Y-95396000D01*
X154987898Y-95356226D01*
X155176256Y-95278205D01*
X155345774Y-95164937D01*
X155489937Y-95020774D01*
X155603205Y-94851256D01*
X155681226Y-94662898D01*
X155721000Y-94462939D01*
X155721000Y-94259061D01*
X155681226Y-94059102D01*
X155603205Y-93870744D01*
X155489937Y-93701226D01*
X155412711Y-93624000D01*
X159856517Y-93624000D01*
X159766626Y-93684063D01*
X159622463Y-93828226D01*
X159509195Y-93997744D01*
X159431174Y-94186102D01*
X159391400Y-94386061D01*
X159391400Y-94589939D01*
X159431174Y-94789898D01*
X159509195Y-94978256D01*
X159622463Y-95147774D01*
X159766626Y-95291937D01*
X159936144Y-95405205D01*
X160124502Y-95483226D01*
X160324461Y-95523000D01*
X160528339Y-95523000D01*
X160728298Y-95483226D01*
X160916656Y-95405205D01*
X161086174Y-95291937D01*
X161230337Y-95147774D01*
X161343605Y-94978256D01*
X161421626Y-94789898D01*
X161461400Y-94589939D01*
X161461400Y-94386061D01*
X161421626Y-94186102D01*
X161343605Y-93997744D01*
X161230337Y-93828226D01*
X161086174Y-93684063D01*
X160996283Y-93624000D01*
X163317030Y-93624000D01*
X163038793Y-93809912D01*
X162643912Y-94204793D01*
X162333656Y-94669124D01*
X162119948Y-95185061D01*
X162011000Y-95732777D01*
X162011000Y-96291223D01*
X162119948Y-96838939D01*
X162333656Y-97354876D01*
X162643912Y-97819207D01*
X163038793Y-98214088D01*
X163503124Y-98524344D01*
X164019061Y-98738052D01*
X164566777Y-98847000D01*
X165125223Y-98847000D01*
X165672939Y-98738052D01*
X166188876Y-98524344D01*
X166653207Y-98214088D01*
X167048088Y-97819207D01*
X167234000Y-97540970D01*
X167234001Y-121915031D01*
X167048088Y-121636793D01*
X166653207Y-121241912D01*
X166188876Y-120931656D01*
X165672939Y-120717948D01*
X165125223Y-120609000D01*
X164566777Y-120609000D01*
X164019061Y-120717948D01*
X163503124Y-120931656D01*
X163038793Y-121241912D01*
X162643912Y-121636793D01*
X162333656Y-122101124D01*
X162119948Y-122617061D01*
X162011000Y-123164777D01*
X162011000Y-123723223D01*
X162119948Y-124270939D01*
X162333656Y-124786876D01*
X162643912Y-125251207D01*
X163038793Y-125646088D01*
X163317030Y-125832000D01*
X153730190Y-125832000D01*
X153865411Y-125775990D01*
X154108632Y-125613475D01*
X154315475Y-125406632D01*
X154477990Y-125163411D01*
X154589932Y-124893158D01*
X154647000Y-124606260D01*
X154647000Y-124313740D01*
X154589932Y-124026842D01*
X154477990Y-123756589D01*
X154315475Y-123513368D01*
X154108632Y-123306525D01*
X153865411Y-123144010D01*
X153595158Y-123032068D01*
X153308260Y-122975000D01*
X153015740Y-122975000D01*
X152728842Y-123032068D01*
X152458589Y-123144010D01*
X152215368Y-123306525D01*
X152008525Y-123513368D01*
X151892000Y-123687760D01*
X151775475Y-123513368D01*
X151568632Y-123306525D01*
X151325411Y-123144010D01*
X151055158Y-123032068D01*
X150768260Y-122975000D01*
X150475740Y-122975000D01*
X150295077Y-123010936D01*
X150372705Y-122894758D01*
X150450726Y-122706400D01*
X150490500Y-122506441D01*
X150490500Y-122302563D01*
X150474585Y-122222551D01*
X154055490Y-122222551D01*
X154055490Y-122426429D01*
X154095264Y-122626388D01*
X154173285Y-122814746D01*
X154286553Y-122984264D01*
X154430716Y-123128427D01*
X154600234Y-123241695D01*
X154788592Y-123319716D01*
X154988551Y-123359490D01*
X155192429Y-123359490D01*
X155392388Y-123319716D01*
X155580746Y-123241695D01*
X155750264Y-123128427D01*
X155894427Y-122984264D01*
X156007695Y-122814746D01*
X156085716Y-122626388D01*
X156125490Y-122426429D01*
X156125490Y-122222551D01*
X156085716Y-122022592D01*
X156007695Y-121834234D01*
X155894427Y-121664716D01*
X155750264Y-121520553D01*
X155580746Y-121407285D01*
X155392388Y-121329264D01*
X155265376Y-121304000D01*
X155295939Y-121304000D01*
X155495898Y-121264226D01*
X155684256Y-121186205D01*
X155853774Y-121072937D01*
X155997937Y-120928774D01*
X156111205Y-120759256D01*
X156189226Y-120570898D01*
X156222072Y-120405771D01*
X156275225Y-120672989D01*
X156379629Y-120925043D01*
X156531201Y-121151886D01*
X156724114Y-121344799D01*
X156950957Y-121496371D01*
X157203011Y-121600775D01*
X157470589Y-121654000D01*
X157743411Y-121654000D01*
X158010989Y-121600775D01*
X158263043Y-121496371D01*
X158489886Y-121344799D01*
X158682799Y-121151886D01*
X158834371Y-120925043D01*
X158938775Y-120672989D01*
X158992000Y-120405411D01*
X158992000Y-120132589D01*
X158938775Y-119865011D01*
X158834371Y-119612957D01*
X158695460Y-119405061D01*
X164192000Y-119405061D01*
X164192000Y-119608939D01*
X164231774Y-119808898D01*
X164309795Y-119997256D01*
X164423063Y-120166774D01*
X164567226Y-120310937D01*
X164736744Y-120424205D01*
X164925102Y-120502226D01*
X165125061Y-120542000D01*
X165328939Y-120542000D01*
X165528898Y-120502226D01*
X165717256Y-120424205D01*
X165886774Y-120310937D01*
X166030937Y-120166774D01*
X166144205Y-119997256D01*
X166222226Y-119808898D01*
X166262000Y-119608939D01*
X166262000Y-119405061D01*
X166222226Y-119205102D01*
X166144205Y-119016744D01*
X166030937Y-118847226D01*
X165886774Y-118703063D01*
X165717256Y-118589795D01*
X165528898Y-118511774D01*
X165328939Y-118472000D01*
X165125061Y-118472000D01*
X164925102Y-118511774D01*
X164736744Y-118589795D01*
X164567226Y-118703063D01*
X164423063Y-118847226D01*
X164309795Y-119016744D01*
X164231774Y-119205102D01*
X164192000Y-119405061D01*
X158695460Y-119405061D01*
X158682799Y-119386114D01*
X158489886Y-119193201D01*
X158263043Y-119041629D01*
X158010989Y-118937225D01*
X157743411Y-118884000D01*
X157470589Y-118884000D01*
X157203011Y-118937225D01*
X156950957Y-119041629D01*
X156724114Y-119193201D01*
X156531201Y-119386114D01*
X156379629Y-119612957D01*
X156275225Y-119865011D01*
X156222072Y-120132229D01*
X156189226Y-119967102D01*
X156111205Y-119778744D01*
X155997937Y-119609226D01*
X155853774Y-119465063D01*
X155684256Y-119351795D01*
X155495898Y-119273774D01*
X155295939Y-119234000D01*
X155092061Y-119234000D01*
X154892102Y-119273774D01*
X154703744Y-119351795D01*
X154534226Y-119465063D01*
X154390063Y-119609226D01*
X154276795Y-119778744D01*
X154198774Y-119967102D01*
X154159000Y-120167061D01*
X154159000Y-120370939D01*
X154198774Y-120570898D01*
X154276795Y-120759256D01*
X154390063Y-120928774D01*
X154534226Y-121072937D01*
X154703744Y-121186205D01*
X154892102Y-121264226D01*
X155019114Y-121289490D01*
X154988551Y-121289490D01*
X154788592Y-121329264D01*
X154600234Y-121407285D01*
X154430716Y-121520553D01*
X154286553Y-121664716D01*
X154173285Y-121834234D01*
X154095264Y-122022592D01*
X154055490Y-122222551D01*
X150474585Y-122222551D01*
X150450726Y-122102604D01*
X150372705Y-121914246D01*
X150259437Y-121744728D01*
X150115274Y-121600565D01*
X149945756Y-121487297D01*
X149757398Y-121409276D01*
X149557439Y-121369502D01*
X149353561Y-121369502D01*
X149153602Y-121409276D01*
X148965244Y-121487297D01*
X148795726Y-121600565D01*
X148651563Y-121744728D01*
X148538295Y-121914246D01*
X148460274Y-122102604D01*
X148420500Y-122302563D01*
X148420500Y-122506441D01*
X148460274Y-122706400D01*
X148538295Y-122894758D01*
X148651563Y-123064276D01*
X148693033Y-123105746D01*
X148515158Y-123032068D01*
X148228260Y-122975000D01*
X147935740Y-122975000D01*
X147648842Y-123032068D01*
X147378589Y-123144010D01*
X147135368Y-123306525D01*
X147003513Y-123438380D01*
X146981502Y-123365820D01*
X146922537Y-123255506D01*
X146843185Y-123158815D01*
X146746494Y-123079463D01*
X146636180Y-123020498D01*
X146516482Y-122984188D01*
X146392000Y-122971928D01*
X144692000Y-122971928D01*
X144567518Y-122984188D01*
X144447820Y-123020498D01*
X144337506Y-123079463D01*
X144240815Y-123158815D01*
X144161463Y-123255506D01*
X144102498Y-123365820D01*
X144066188Y-123485518D01*
X144053928Y-123610000D01*
X144053928Y-125310000D01*
X144066188Y-125434482D01*
X144102498Y-125554180D01*
X144161463Y-125664494D01*
X144240815Y-125761185D01*
X144327104Y-125832000D01*
X141679766Y-125832000D01*
X141881989Y-125791775D01*
X142134043Y-125687371D01*
X142360886Y-125535799D01*
X142553799Y-125342886D01*
X142705371Y-125116043D01*
X142809775Y-124863989D01*
X142863000Y-124596411D01*
X142863000Y-124323589D01*
X142809775Y-124056011D01*
X142705371Y-123803957D01*
X142553799Y-123577114D01*
X142360886Y-123384201D01*
X142134043Y-123232629D01*
X141881989Y-123128225D01*
X141614411Y-123075000D01*
X141341589Y-123075000D01*
X141074011Y-123128225D01*
X140821957Y-123232629D01*
X140595114Y-123384201D01*
X140402201Y-123577114D01*
X140250629Y-123803957D01*
X140146225Y-124056011D01*
X140093000Y-124323589D01*
X140093000Y-124596411D01*
X140146225Y-124863989D01*
X140250629Y-125116043D01*
X140402201Y-125342886D01*
X140595114Y-125535799D01*
X140821957Y-125687371D01*
X141074011Y-125791775D01*
X141276234Y-125832000D01*
X126242970Y-125832000D01*
X126521207Y-125646088D01*
X126916088Y-125251207D01*
X127226344Y-124786876D01*
X127440052Y-124270939D01*
X127549000Y-123723223D01*
X127549000Y-123164777D01*
X127440052Y-122617061D01*
X127226344Y-122101124D01*
X126916088Y-121636793D01*
X126521207Y-121241912D01*
X126056876Y-120931656D01*
X125540939Y-120717948D01*
X124993223Y-120609000D01*
X124434777Y-120609000D01*
X123887061Y-120717948D01*
X123371124Y-120931656D01*
X122906793Y-121241912D01*
X122511912Y-121636793D01*
X122326000Y-121915030D01*
X122326000Y-118271661D01*
X134220000Y-118271661D01*
X134220000Y-118475539D01*
X134259774Y-118675498D01*
X134337795Y-118863856D01*
X134451063Y-119033374D01*
X134595226Y-119177537D01*
X134764744Y-119290805D01*
X134953102Y-119368826D01*
X135153061Y-119408600D01*
X135356939Y-119408600D01*
X135556898Y-119368826D01*
X135745256Y-119290805D01*
X135914774Y-119177537D01*
X136058937Y-119033374D01*
X136172205Y-118863856D01*
X136250226Y-118675498D01*
X136290000Y-118475539D01*
X136290000Y-118271661D01*
X136250226Y-118071702D01*
X136172205Y-117883344D01*
X136058937Y-117713826D01*
X135914774Y-117569663D01*
X135745256Y-117456395D01*
X135556898Y-117378374D01*
X135356939Y-117338600D01*
X135153061Y-117338600D01*
X134953102Y-117378374D01*
X134764744Y-117456395D01*
X134595226Y-117569663D01*
X134451063Y-117713826D01*
X134337795Y-117883344D01*
X134259774Y-118071702D01*
X134220000Y-118271661D01*
X122326000Y-118271661D01*
X122326000Y-114579061D01*
X124441000Y-114579061D01*
X124441000Y-114782939D01*
X124480774Y-114982898D01*
X124558795Y-115171256D01*
X124672063Y-115340774D01*
X124816226Y-115484937D01*
X124985744Y-115598205D01*
X125174102Y-115676226D01*
X125374061Y-115716000D01*
X125577939Y-115716000D01*
X125777898Y-115676226D01*
X125966256Y-115598205D01*
X126135774Y-115484937D01*
X126279937Y-115340774D01*
X126393205Y-115171256D01*
X126471226Y-114982898D01*
X126511000Y-114782939D01*
X126511000Y-114579061D01*
X126471226Y-114379102D01*
X126393205Y-114190744D01*
X126279937Y-114021226D01*
X126135774Y-113877063D01*
X125966256Y-113763795D01*
X125777898Y-113685774D01*
X125577939Y-113646000D01*
X125374061Y-113646000D01*
X125174102Y-113685774D01*
X124985744Y-113763795D01*
X124816226Y-113877063D01*
X124672063Y-114021226D01*
X124558795Y-114190744D01*
X124480774Y-114379102D01*
X124441000Y-114579061D01*
X122326000Y-114579061D01*
X122326000Y-113436061D01*
X133204000Y-113436061D01*
X133204000Y-113639939D01*
X133243774Y-113839898D01*
X133321795Y-114028256D01*
X133435063Y-114197774D01*
X133579226Y-114341937D01*
X133748744Y-114455205D01*
X133937102Y-114533226D01*
X134137061Y-114573000D01*
X134340939Y-114573000D01*
X134540898Y-114533226D01*
X134729256Y-114455205D01*
X134898774Y-114341937D01*
X135042937Y-114197774D01*
X135156205Y-114028256D01*
X135234226Y-113839898D01*
X135274000Y-113639939D01*
X135274000Y-113436061D01*
X135252108Y-113326000D01*
X140119928Y-113326000D01*
X140119928Y-114766000D01*
X140132188Y-114890482D01*
X140168498Y-115010180D01*
X140227463Y-115120494D01*
X140306815Y-115217185D01*
X140403506Y-115296537D01*
X140513820Y-115355502D01*
X140633518Y-115391812D01*
X140758000Y-115404072D01*
X140807945Y-115404072D01*
X140614238Y-115533503D01*
X140425503Y-115722238D01*
X140277215Y-115944167D01*
X140175072Y-116190761D01*
X140123000Y-116452544D01*
X140123000Y-116719456D01*
X140175072Y-116981239D01*
X140277215Y-117227833D01*
X140425503Y-117449762D01*
X140614238Y-117638497D01*
X140836167Y-117786785D01*
X141003266Y-117856000D01*
X140836167Y-117925215D01*
X140614238Y-118073503D01*
X140425503Y-118262238D01*
X140277215Y-118484167D01*
X140175072Y-118730761D01*
X140123000Y-118992544D01*
X140123000Y-119259456D01*
X140175072Y-119521239D01*
X140277215Y-119767833D01*
X140425503Y-119989762D01*
X140614238Y-120178497D01*
X140836167Y-120326785D01*
X141082761Y-120428928D01*
X141344544Y-120481000D01*
X141611456Y-120481000D01*
X141873239Y-120428928D01*
X142119833Y-120326785D01*
X142341762Y-120178497D01*
X142530497Y-119989762D01*
X142678785Y-119767833D01*
X142780928Y-119521239D01*
X142833000Y-119259456D01*
X142833000Y-118992544D01*
X142780928Y-118730761D01*
X142678785Y-118484167D01*
X142615238Y-118389061D01*
X147774000Y-118389061D01*
X147774000Y-118592939D01*
X147813774Y-118792898D01*
X147891795Y-118981256D01*
X148005063Y-119150774D01*
X148149226Y-119294937D01*
X148318744Y-119408205D01*
X148507102Y-119486226D01*
X148707061Y-119526000D01*
X148758289Y-119526000D01*
X148675063Y-119609226D01*
X148561795Y-119778744D01*
X148483774Y-119967102D01*
X148444000Y-120167061D01*
X148444000Y-120370939D01*
X148483774Y-120570898D01*
X148561795Y-120759256D01*
X148675063Y-120928774D01*
X148819226Y-121072937D01*
X148988744Y-121186205D01*
X149177102Y-121264226D01*
X149377061Y-121304000D01*
X149580939Y-121304000D01*
X149780898Y-121264226D01*
X149969256Y-121186205D01*
X150138774Y-121072937D01*
X150282937Y-120928774D01*
X150396205Y-120759256D01*
X150474226Y-120570898D01*
X150514000Y-120370939D01*
X150514000Y-120167061D01*
X150474226Y-119967102D01*
X150396205Y-119778744D01*
X150282937Y-119609226D01*
X150138774Y-119465063D01*
X149969256Y-119351795D01*
X149780898Y-119273774D01*
X149580939Y-119234000D01*
X149529711Y-119234000D01*
X149612937Y-119150774D01*
X149695099Y-119027810D01*
X149835226Y-119167937D01*
X150004744Y-119281205D01*
X150193102Y-119359226D01*
X150393061Y-119399000D01*
X150596939Y-119399000D01*
X150796898Y-119359226D01*
X150985256Y-119281205D01*
X151154774Y-119167937D01*
X151298937Y-119023774D01*
X151412205Y-118854256D01*
X151490226Y-118665898D01*
X151530000Y-118465939D01*
X151530000Y-118262061D01*
X151490226Y-118062102D01*
X151412205Y-117873744D01*
X151298937Y-117704226D01*
X151154774Y-117560063D01*
X150985256Y-117446795D01*
X150796898Y-117368774D01*
X150596939Y-117329000D01*
X150393061Y-117329000D01*
X150193102Y-117368774D01*
X150004744Y-117446795D01*
X149835226Y-117560063D01*
X149691063Y-117704226D01*
X149608901Y-117827190D01*
X149468774Y-117687063D01*
X149299256Y-117573795D01*
X149110898Y-117495774D01*
X148910939Y-117456000D01*
X148707061Y-117456000D01*
X148507102Y-117495774D01*
X148318744Y-117573795D01*
X148149226Y-117687063D01*
X148005063Y-117831226D01*
X147891795Y-118000744D01*
X147813774Y-118189102D01*
X147774000Y-118389061D01*
X142615238Y-118389061D01*
X142530497Y-118262238D01*
X142341762Y-118073503D01*
X142119833Y-117925215D01*
X141952734Y-117856000D01*
X142119833Y-117786785D01*
X142341762Y-117638497D01*
X142530497Y-117449762D01*
X142678785Y-117227833D01*
X142780928Y-116981239D01*
X142833000Y-116719456D01*
X142833000Y-116452544D01*
X142780928Y-116190761D01*
X142678785Y-115944167D01*
X142540955Y-115737889D01*
X148984228Y-115737889D01*
X148984228Y-115941767D01*
X149024002Y-116141726D01*
X149102023Y-116330084D01*
X149215291Y-116499602D01*
X149359454Y-116643765D01*
X149528972Y-116757033D01*
X149717330Y-116835054D01*
X149917289Y-116874828D01*
X150121167Y-116874828D01*
X150321126Y-116835054D01*
X150509484Y-116757033D01*
X150573624Y-116714176D01*
X150608334Y-116737368D01*
X150796692Y-116815389D01*
X150996651Y-116855163D01*
X151200529Y-116855163D01*
X151400488Y-116815389D01*
X151588846Y-116737368D01*
X151758364Y-116624100D01*
X151902527Y-116479937D01*
X152015795Y-116310419D01*
X152093816Y-116122061D01*
X152133590Y-115922102D01*
X152133590Y-115718224D01*
X152093816Y-115518265D01*
X152015795Y-115329907D01*
X151902527Y-115160389D01*
X151758364Y-115016226D01*
X151588846Y-114902958D01*
X151400488Y-114824937D01*
X151200529Y-114785163D01*
X150996651Y-114785163D01*
X150796692Y-114824937D01*
X150608334Y-114902958D01*
X150544194Y-114945815D01*
X150509484Y-114922623D01*
X150321126Y-114844602D01*
X150121167Y-114804828D01*
X149917289Y-114804828D01*
X149717330Y-114844602D01*
X149528972Y-114922623D01*
X149359454Y-115035891D01*
X149215291Y-115180054D01*
X149102023Y-115349572D01*
X149024002Y-115537930D01*
X148984228Y-115737889D01*
X142540955Y-115737889D01*
X142530497Y-115722238D01*
X142341762Y-115533503D01*
X142148055Y-115404072D01*
X142198000Y-115404072D01*
X142322482Y-115391812D01*
X142442180Y-115355502D01*
X142552494Y-115296537D01*
X142649185Y-115217185D01*
X142728537Y-115120494D01*
X142787502Y-115010180D01*
X142823812Y-114890482D01*
X142836072Y-114766000D01*
X142836072Y-113326000D01*
X142823812Y-113201518D01*
X142787502Y-113081820D01*
X142728537Y-112971506D01*
X142692883Y-112928061D01*
X149460000Y-112928061D01*
X149460000Y-113131939D01*
X149499774Y-113331898D01*
X149577795Y-113520256D01*
X149691063Y-113689774D01*
X149835226Y-113833937D01*
X150004744Y-113947205D01*
X150193102Y-114025226D01*
X150393061Y-114065000D01*
X150596939Y-114065000D01*
X150796898Y-114025226D01*
X150985256Y-113947205D01*
X151005233Y-113933857D01*
X151046792Y-113961626D01*
X151235150Y-114039647D01*
X151435109Y-114079421D01*
X151638987Y-114079421D01*
X151838946Y-114039647D01*
X152027304Y-113961626D01*
X152171546Y-113865247D01*
X152328176Y-113930126D01*
X152528135Y-113969900D01*
X152732013Y-113969900D01*
X152931972Y-113930126D01*
X153120330Y-113852105D01*
X153289848Y-113738837D01*
X153434011Y-113594674D01*
X153547279Y-113425156D01*
X153625300Y-113236798D01*
X153665074Y-113036839D01*
X153665074Y-112893589D01*
X158889000Y-112893589D01*
X158889000Y-113166411D01*
X158942225Y-113433989D01*
X159046629Y-113686043D01*
X159198201Y-113912886D01*
X159391114Y-114105799D01*
X159617957Y-114257371D01*
X159870011Y-114361775D01*
X160137589Y-114415000D01*
X160410411Y-114415000D01*
X160677989Y-114361775D01*
X160930043Y-114257371D01*
X161156886Y-114105799D01*
X161349799Y-113912886D01*
X161501371Y-113686043D01*
X161605775Y-113433989D01*
X161659000Y-113166411D01*
X161659000Y-112893589D01*
X161605775Y-112626011D01*
X161501371Y-112373957D01*
X161349799Y-112147114D01*
X161156886Y-111954201D01*
X160930043Y-111802629D01*
X160677989Y-111698225D01*
X160410411Y-111645000D01*
X160137589Y-111645000D01*
X159870011Y-111698225D01*
X159617957Y-111802629D01*
X159391114Y-111954201D01*
X159198201Y-112147114D01*
X159046629Y-112373957D01*
X158942225Y-112626011D01*
X158889000Y-112893589D01*
X153665074Y-112893589D01*
X153665074Y-112832961D01*
X153625300Y-112633002D01*
X153547279Y-112444644D01*
X153434011Y-112275126D01*
X153289848Y-112130963D01*
X153120330Y-112017695D01*
X152931972Y-111939674D01*
X152732013Y-111899900D01*
X152528135Y-111899900D01*
X152328176Y-111939674D01*
X152139818Y-112017695D01*
X151995576Y-112114074D01*
X151838946Y-112049195D01*
X151638987Y-112009421D01*
X151435109Y-112009421D01*
X151235150Y-112049195D01*
X151046792Y-112127216D01*
X151026815Y-112140564D01*
X150985256Y-112112795D01*
X150796898Y-112034774D01*
X150596939Y-111995000D01*
X150393061Y-111995000D01*
X150193102Y-112034774D01*
X150004744Y-112112795D01*
X149835226Y-112226063D01*
X149691063Y-112370226D01*
X149577795Y-112539744D01*
X149499774Y-112728102D01*
X149460000Y-112928061D01*
X142692883Y-112928061D01*
X142649185Y-112874815D01*
X142552494Y-112795463D01*
X142442180Y-112736498D01*
X142322482Y-112700188D01*
X142198000Y-112687928D01*
X140758000Y-112687928D01*
X140633518Y-112700188D01*
X140513820Y-112736498D01*
X140403506Y-112795463D01*
X140306815Y-112874815D01*
X140227463Y-112971506D01*
X140168498Y-113081820D01*
X140132188Y-113201518D01*
X140119928Y-113326000D01*
X135252108Y-113326000D01*
X135234226Y-113236102D01*
X135156205Y-113047744D01*
X135042937Y-112878226D01*
X134898774Y-112734063D01*
X134729256Y-112620795D01*
X134540898Y-112542774D01*
X134340939Y-112503000D01*
X134137061Y-112503000D01*
X133937102Y-112542774D01*
X133748744Y-112620795D01*
X133579226Y-112734063D01*
X133435063Y-112878226D01*
X133321795Y-113047744D01*
X133243774Y-113236102D01*
X133204000Y-113436061D01*
X122326000Y-113436061D01*
X122326000Y-110515061D01*
X128886000Y-110515061D01*
X128886000Y-110718939D01*
X128925774Y-110918898D01*
X129003795Y-111107256D01*
X129117063Y-111276774D01*
X129261226Y-111420937D01*
X129430744Y-111534205D01*
X129619102Y-111612226D01*
X129819061Y-111652000D01*
X130022939Y-111652000D01*
X130222898Y-111612226D01*
X130411256Y-111534205D01*
X130580774Y-111420937D01*
X130597650Y-111404061D01*
X132061000Y-111404061D01*
X132061000Y-111607939D01*
X132100774Y-111807898D01*
X132178795Y-111996256D01*
X132292063Y-112165774D01*
X132436226Y-112309937D01*
X132605744Y-112423205D01*
X132794102Y-112501226D01*
X132994061Y-112541000D01*
X133197939Y-112541000D01*
X133397898Y-112501226D01*
X133586256Y-112423205D01*
X133755774Y-112309937D01*
X133899937Y-112165774D01*
X134013205Y-111996256D01*
X134091226Y-111807898D01*
X134123690Y-111644690D01*
X134286898Y-111612226D01*
X134475256Y-111534205D01*
X134644774Y-111420937D01*
X134788650Y-111277061D01*
X156953000Y-111277061D01*
X156953000Y-111480939D01*
X156992774Y-111680898D01*
X157070795Y-111869256D01*
X157184063Y-112038774D01*
X157328226Y-112182937D01*
X157497744Y-112296205D01*
X157686102Y-112374226D01*
X157886061Y-112414000D01*
X158089939Y-112414000D01*
X158289898Y-112374226D01*
X158478256Y-112296205D01*
X158647774Y-112182937D01*
X158791937Y-112038774D01*
X158905205Y-111869256D01*
X158983226Y-111680898D01*
X159023000Y-111480939D01*
X159023000Y-111277061D01*
X158983226Y-111077102D01*
X158905205Y-110888744D01*
X158791937Y-110719226D01*
X158647774Y-110575063D01*
X158478256Y-110461795D01*
X158289898Y-110383774D01*
X158089939Y-110344000D01*
X157886061Y-110344000D01*
X157686102Y-110383774D01*
X157497744Y-110461795D01*
X157328226Y-110575063D01*
X157184063Y-110719226D01*
X157070795Y-110888744D01*
X156992774Y-111077102D01*
X156953000Y-111277061D01*
X134788650Y-111277061D01*
X134788937Y-111276774D01*
X134902205Y-111107256D01*
X134980226Y-110918898D01*
X135020000Y-110718939D01*
X135020000Y-110515061D01*
X134980226Y-110315102D01*
X134902205Y-110126744D01*
X134788937Y-109957226D01*
X134644774Y-109813063D01*
X134475256Y-109699795D01*
X134286898Y-109621774D01*
X134086939Y-109582000D01*
X133883061Y-109582000D01*
X133683102Y-109621774D01*
X133494744Y-109699795D01*
X133325226Y-109813063D01*
X133181063Y-109957226D01*
X133067795Y-110126744D01*
X132989774Y-110315102D01*
X132957310Y-110478310D01*
X132794102Y-110510774D01*
X132605744Y-110588795D01*
X132436226Y-110702063D01*
X132292063Y-110846226D01*
X132178795Y-111015744D01*
X132100774Y-111204102D01*
X132061000Y-111404061D01*
X130597650Y-111404061D01*
X130724937Y-111276774D01*
X130838205Y-111107256D01*
X130916226Y-110918898D01*
X130956000Y-110718939D01*
X130956000Y-110515061D01*
X130916226Y-110315102D01*
X130838205Y-110126744D01*
X130724937Y-109957226D01*
X130580774Y-109813063D01*
X130411256Y-109699795D01*
X130222898Y-109621774D01*
X130022939Y-109582000D01*
X129819061Y-109582000D01*
X129619102Y-109621774D01*
X129430744Y-109699795D01*
X129261226Y-109813063D01*
X129117063Y-109957226D01*
X129003795Y-110126744D01*
X128925774Y-110315102D01*
X128886000Y-110515061D01*
X122326000Y-110515061D01*
X122326000Y-106451061D01*
X134601000Y-106451061D01*
X134601000Y-106654939D01*
X134640774Y-106854898D01*
X134718795Y-107043256D01*
X134832063Y-107212774D01*
X134976226Y-107356937D01*
X135145744Y-107470205D01*
X135334102Y-107548226D01*
X135534061Y-107588000D01*
X135737939Y-107588000D01*
X135937898Y-107548226D01*
X136126256Y-107470205D01*
X136130961Y-107467061D01*
X142475000Y-107467061D01*
X142475000Y-107670939D01*
X142514774Y-107870898D01*
X142592795Y-108059256D01*
X142706063Y-108228774D01*
X142850226Y-108372937D01*
X143019744Y-108486205D01*
X143208102Y-108564226D01*
X143312541Y-108585000D01*
X143208102Y-108605774D01*
X143019744Y-108683795D01*
X142850226Y-108797063D01*
X142706063Y-108941226D01*
X142592795Y-109110744D01*
X142514774Y-109299102D01*
X142475000Y-109499061D01*
X142475000Y-109702939D01*
X142514774Y-109902898D01*
X142592795Y-110091256D01*
X142706063Y-110260774D01*
X142850226Y-110404937D01*
X143019744Y-110518205D01*
X143208102Y-110596226D01*
X143408061Y-110636000D01*
X143611939Y-110636000D01*
X143811898Y-110596226D01*
X144000256Y-110518205D01*
X144169774Y-110404937D01*
X144313937Y-110260774D01*
X144427205Y-110091256D01*
X144505226Y-109902898D01*
X144545000Y-109702939D01*
X144545000Y-109499061D01*
X144505226Y-109299102D01*
X144427205Y-109110744D01*
X144313937Y-108941226D01*
X144169774Y-108797063D01*
X144079975Y-108737061D01*
X153549398Y-108737061D01*
X153549398Y-108940939D01*
X153589172Y-109140898D01*
X153667193Y-109329256D01*
X153780461Y-109498774D01*
X153924624Y-109642937D01*
X154094142Y-109756205D01*
X154282500Y-109834226D01*
X154482459Y-109874000D01*
X154686337Y-109874000D01*
X154886296Y-109834226D01*
X155074654Y-109756205D01*
X155244172Y-109642937D01*
X155388335Y-109498774D01*
X155501603Y-109329256D01*
X155566869Y-109171690D01*
X160228000Y-109171690D01*
X160228000Y-109392310D01*
X160271041Y-109608692D01*
X160355469Y-109812519D01*
X160478039Y-109995958D01*
X160634042Y-110151961D01*
X160817481Y-110274531D01*
X161021308Y-110358959D01*
X161237690Y-110402000D01*
X161458310Y-110402000D01*
X161674692Y-110358959D01*
X161878519Y-110274531D01*
X162061958Y-110151961D01*
X162217961Y-109995958D01*
X162340531Y-109812519D01*
X162424959Y-109608692D01*
X162468000Y-109392310D01*
X162468000Y-109171690D01*
X162424959Y-108955308D01*
X162340531Y-108751481D01*
X162217961Y-108568042D01*
X162061958Y-108412039D01*
X161878519Y-108289469D01*
X161674692Y-108205041D01*
X161458310Y-108162000D01*
X161237690Y-108162000D01*
X161021308Y-108205041D01*
X160817481Y-108289469D01*
X160634042Y-108412039D01*
X160478039Y-108568042D01*
X160355469Y-108751481D01*
X160271041Y-108955308D01*
X160228000Y-109171690D01*
X155566869Y-109171690D01*
X155579624Y-109140898D01*
X155619398Y-108940939D01*
X155619398Y-108737061D01*
X155579624Y-108537102D01*
X155501603Y-108348744D01*
X155388335Y-108179226D01*
X155244172Y-108035063D01*
X155074654Y-107921795D01*
X154886296Y-107843774D01*
X154686337Y-107804000D01*
X154482459Y-107804000D01*
X154282500Y-107843774D01*
X154094142Y-107921795D01*
X153924624Y-108035063D01*
X153780461Y-108179226D01*
X153667193Y-108348744D01*
X153589172Y-108537102D01*
X153549398Y-108737061D01*
X144079975Y-108737061D01*
X144000256Y-108683795D01*
X143811898Y-108605774D01*
X143707459Y-108585000D01*
X143811898Y-108564226D01*
X144000256Y-108486205D01*
X144169774Y-108372937D01*
X144313937Y-108228774D01*
X144427205Y-108059256D01*
X144505226Y-107870898D01*
X144545000Y-107670939D01*
X144545000Y-107467061D01*
X144505226Y-107267102D01*
X144427205Y-107078744D01*
X144313937Y-106909226D01*
X144169774Y-106765063D01*
X144000256Y-106651795D01*
X143811898Y-106573774D01*
X143611939Y-106534000D01*
X143408061Y-106534000D01*
X143208102Y-106573774D01*
X143019744Y-106651795D01*
X142850226Y-106765063D01*
X142706063Y-106909226D01*
X142592795Y-107078744D01*
X142514774Y-107267102D01*
X142475000Y-107467061D01*
X136130961Y-107467061D01*
X136295774Y-107356937D01*
X136439937Y-107212774D01*
X136553205Y-107043256D01*
X136631226Y-106854898D01*
X136671000Y-106654939D01*
X136671000Y-106451061D01*
X136631226Y-106251102D01*
X136553205Y-106062744D01*
X136439937Y-105893226D01*
X136295774Y-105749063D01*
X136243989Y-105714461D01*
X147428000Y-105714461D01*
X147428000Y-105918339D01*
X147467774Y-106118298D01*
X147545795Y-106306656D01*
X147659063Y-106476174D01*
X147803226Y-106620337D01*
X147972744Y-106733605D01*
X148161102Y-106811626D01*
X148361061Y-106851400D01*
X148564939Y-106851400D01*
X148764898Y-106811626D01*
X148953256Y-106733605D01*
X149122774Y-106620337D01*
X149266937Y-106476174D01*
X149380205Y-106306656D01*
X149458226Y-106118298D01*
X149498000Y-105918339D01*
X149498000Y-105714461D01*
X149458226Y-105514502D01*
X149380205Y-105326144D01*
X149266937Y-105156626D01*
X149122774Y-105012463D01*
X149070989Y-104977861D01*
X152406400Y-104977861D01*
X152406400Y-105181739D01*
X152446174Y-105381698D01*
X152524195Y-105570056D01*
X152637463Y-105739574D01*
X152781626Y-105883737D01*
X152951144Y-105997005D01*
X153139502Y-106075026D01*
X153339461Y-106114800D01*
X153543339Y-106114800D01*
X153743298Y-106075026D01*
X153931656Y-105997005D01*
X154101174Y-105883737D01*
X154245337Y-105739574D01*
X154358605Y-105570056D01*
X154436626Y-105381698D01*
X154476400Y-105181739D01*
X154476400Y-104977861D01*
X154436626Y-104777902D01*
X154358605Y-104589544D01*
X154245337Y-104420026D01*
X154101174Y-104275863D01*
X153931656Y-104162595D01*
X153743298Y-104084574D01*
X153543339Y-104044800D01*
X153339461Y-104044800D01*
X153139502Y-104084574D01*
X152951144Y-104162595D01*
X152781626Y-104275863D01*
X152637463Y-104420026D01*
X152524195Y-104589544D01*
X152446174Y-104777902D01*
X152406400Y-104977861D01*
X149070989Y-104977861D01*
X148953256Y-104899195D01*
X148764898Y-104821174D01*
X148564939Y-104781400D01*
X148361061Y-104781400D01*
X148161102Y-104821174D01*
X147972744Y-104899195D01*
X147803226Y-105012463D01*
X147659063Y-105156626D01*
X147545795Y-105326144D01*
X147467774Y-105514502D01*
X147428000Y-105714461D01*
X136243989Y-105714461D01*
X136126256Y-105635795D01*
X135937898Y-105557774D01*
X135737939Y-105518000D01*
X135534061Y-105518000D01*
X135334102Y-105557774D01*
X135145744Y-105635795D01*
X134976226Y-105749063D01*
X134832063Y-105893226D01*
X134718795Y-106062744D01*
X134640774Y-106251102D01*
X134601000Y-106451061D01*
X122326000Y-106451061D01*
X122326000Y-104228042D01*
X123918000Y-104228042D01*
X123918000Y-104559958D01*
X123982754Y-104885496D01*
X124109772Y-105192147D01*
X124294175Y-105468125D01*
X124528875Y-105702825D01*
X124804853Y-105887228D01*
X125111504Y-106014246D01*
X125437042Y-106079000D01*
X125768958Y-106079000D01*
X126094496Y-106014246D01*
X126401147Y-105887228D01*
X126677125Y-105702825D01*
X126911825Y-105468125D01*
X127096228Y-105192147D01*
X127223246Y-104885496D01*
X127288000Y-104559958D01*
X127288000Y-104228042D01*
X127223246Y-103902504D01*
X127096228Y-103595853D01*
X126911825Y-103319875D01*
X126677125Y-103085175D01*
X126401147Y-102900772D01*
X126094496Y-102773754D01*
X125768958Y-102709000D01*
X125437042Y-102709000D01*
X125111504Y-102773754D01*
X124804853Y-102900772D01*
X124528875Y-103085175D01*
X124294175Y-103319875D01*
X124109772Y-103595853D01*
X123982754Y-103902504D01*
X123918000Y-104228042D01*
X122326000Y-104228042D01*
X122326000Y-99389861D01*
X143719600Y-99389861D01*
X143719600Y-99593739D01*
X143759374Y-99793698D01*
X143837395Y-99982056D01*
X143950663Y-100151574D01*
X144094826Y-100295737D01*
X144253000Y-100401425D01*
X144253000Y-100533539D01*
X144292774Y-100733498D01*
X144370795Y-100921856D01*
X144484063Y-101091374D01*
X144628226Y-101235537D01*
X144797744Y-101348805D01*
X144986102Y-101426826D01*
X145186061Y-101466600D01*
X145389939Y-101466600D01*
X145589898Y-101426826D01*
X145778256Y-101348805D01*
X145947774Y-101235537D01*
X146091937Y-101091374D01*
X146205205Y-100921856D01*
X146283226Y-100733498D01*
X146323000Y-100533539D01*
X146323000Y-100329661D01*
X155022600Y-100329661D01*
X155022600Y-100533539D01*
X155062374Y-100733498D01*
X155140395Y-100921856D01*
X155253663Y-101091374D01*
X155397826Y-101235537D01*
X155567344Y-101348805D01*
X155755702Y-101426826D01*
X155955661Y-101466600D01*
X156159539Y-101466600D01*
X156359498Y-101426826D01*
X156547856Y-101348805D01*
X156717374Y-101235537D01*
X156861537Y-101091374D01*
X156974805Y-100921856D01*
X157052826Y-100733498D01*
X157092600Y-100533539D01*
X157092600Y-100411690D01*
X160228000Y-100411690D01*
X160228000Y-100632310D01*
X160271041Y-100848692D01*
X160355469Y-101052519D01*
X160478039Y-101235958D01*
X160634042Y-101391961D01*
X160817481Y-101514531D01*
X161021308Y-101598959D01*
X161237690Y-101642000D01*
X161458310Y-101642000D01*
X161674692Y-101598959D01*
X161878519Y-101514531D01*
X162061958Y-101391961D01*
X162217961Y-101235958D01*
X162340531Y-101052519D01*
X162424959Y-100848692D01*
X162468000Y-100632310D01*
X162468000Y-100411690D01*
X162424959Y-100195308D01*
X162340531Y-99991481D01*
X162217961Y-99808042D01*
X162061958Y-99652039D01*
X161878519Y-99529469D01*
X161674692Y-99445041D01*
X161458310Y-99402000D01*
X161237690Y-99402000D01*
X161021308Y-99445041D01*
X160817481Y-99529469D01*
X160634042Y-99652039D01*
X160478039Y-99808042D01*
X160355469Y-99991481D01*
X160271041Y-100195308D01*
X160228000Y-100411690D01*
X157092600Y-100411690D01*
X157092600Y-100329661D01*
X157052826Y-100129702D01*
X156974805Y-99941344D01*
X156861537Y-99771826D01*
X156717374Y-99627663D01*
X156547856Y-99514395D01*
X156359498Y-99436374D01*
X156159539Y-99396600D01*
X155955661Y-99396600D01*
X155755702Y-99436374D01*
X155567344Y-99514395D01*
X155397826Y-99627663D01*
X155253663Y-99771826D01*
X155140395Y-99941344D01*
X155062374Y-100129702D01*
X155022600Y-100329661D01*
X146323000Y-100329661D01*
X146283226Y-100129702D01*
X146205205Y-99941344D01*
X146091937Y-99771826D01*
X145947774Y-99627663D01*
X145789600Y-99521975D01*
X145789600Y-99389861D01*
X145749826Y-99189902D01*
X145671805Y-99001544D01*
X145558537Y-98832026D01*
X145414374Y-98687863D01*
X145244856Y-98574595D01*
X145056498Y-98496574D01*
X144856539Y-98456800D01*
X144652661Y-98456800D01*
X144452702Y-98496574D01*
X144264344Y-98574595D01*
X144094826Y-98687863D01*
X143950663Y-98832026D01*
X143837395Y-99001544D01*
X143759374Y-99189902D01*
X143719600Y-99389861D01*
X122326000Y-99389861D01*
X122326000Y-97540970D01*
X122511912Y-97819207D01*
X122906793Y-98214088D01*
X123371124Y-98524344D01*
X123887061Y-98738052D01*
X124434777Y-98847000D01*
X124993223Y-98847000D01*
X125540939Y-98738052D01*
X126056876Y-98524344D01*
X126521207Y-98214088D01*
X126916088Y-97819207D01*
X127173434Y-97434061D01*
X129140000Y-97434061D01*
X129140000Y-97637939D01*
X129179774Y-97837898D01*
X129257795Y-98026256D01*
X129371063Y-98195774D01*
X129515226Y-98339937D01*
X129684744Y-98453205D01*
X129873102Y-98531226D01*
X130073061Y-98571000D01*
X130276939Y-98571000D01*
X130476898Y-98531226D01*
X130665256Y-98453205D01*
X130834774Y-98339937D01*
X130978937Y-98195774D01*
X131063603Y-98069061D01*
X155556000Y-98069061D01*
X155556000Y-98272939D01*
X155595774Y-98472898D01*
X155673795Y-98661256D01*
X155787063Y-98830774D01*
X155931226Y-98974937D01*
X156100744Y-99088205D01*
X156289102Y-99166226D01*
X156489061Y-99206000D01*
X156692939Y-99206000D01*
X156892898Y-99166226D01*
X157081256Y-99088205D01*
X157250774Y-98974937D01*
X157394937Y-98830774D01*
X157508205Y-98661256D01*
X157586226Y-98472898D01*
X157626000Y-98272939D01*
X157626000Y-98069061D01*
X157586226Y-97869102D01*
X157508205Y-97680744D01*
X157394937Y-97511226D01*
X157250774Y-97367063D01*
X157081256Y-97253795D01*
X156892898Y-97175774D01*
X156692939Y-97136000D01*
X156489061Y-97136000D01*
X156289102Y-97175774D01*
X156100744Y-97253795D01*
X155931226Y-97367063D01*
X155787063Y-97511226D01*
X155673795Y-97680744D01*
X155595774Y-97869102D01*
X155556000Y-98069061D01*
X131063603Y-98069061D01*
X131092205Y-98026256D01*
X131170226Y-97837898D01*
X131210000Y-97637939D01*
X131210000Y-97434061D01*
X131170226Y-97234102D01*
X131092205Y-97045744D01*
X130978937Y-96876226D01*
X130834774Y-96732063D01*
X130668947Y-96621261D01*
X145573800Y-96621261D01*
X145573800Y-96825139D01*
X145613574Y-97025098D01*
X145691595Y-97213456D01*
X145804863Y-97382974D01*
X145949026Y-97527137D01*
X146118544Y-97640405D01*
X146306902Y-97718426D01*
X146506861Y-97758200D01*
X146710739Y-97758200D01*
X146910698Y-97718426D01*
X147099056Y-97640405D01*
X147268574Y-97527137D01*
X147412737Y-97382974D01*
X147526005Y-97213456D01*
X147604026Y-97025098D01*
X147643800Y-96825139D01*
X147643800Y-96621261D01*
X147604026Y-96421302D01*
X147526005Y-96232944D01*
X147412737Y-96063426D01*
X147268574Y-95919263D01*
X147099056Y-95805995D01*
X146910698Y-95727974D01*
X146710739Y-95688200D01*
X146506861Y-95688200D01*
X146306902Y-95727974D01*
X146118544Y-95805995D01*
X145949026Y-95919263D01*
X145804863Y-96063426D01*
X145691595Y-96232944D01*
X145613574Y-96421302D01*
X145573800Y-96621261D01*
X130668947Y-96621261D01*
X130665256Y-96618795D01*
X130476898Y-96540774D01*
X130276939Y-96501000D01*
X130073061Y-96501000D01*
X129873102Y-96540774D01*
X129684744Y-96618795D01*
X129515226Y-96732063D01*
X129371063Y-96876226D01*
X129257795Y-97045744D01*
X129179774Y-97234102D01*
X129140000Y-97434061D01*
X127173434Y-97434061D01*
X127226344Y-97354876D01*
X127440052Y-96838939D01*
X127549000Y-96291223D01*
X127549000Y-95732777D01*
X127440052Y-95185061D01*
X127277432Y-94792461D01*
X151492000Y-94792461D01*
X151492000Y-94996339D01*
X151531774Y-95196298D01*
X151609795Y-95384656D01*
X151723063Y-95554174D01*
X151867226Y-95698337D01*
X152036744Y-95811605D01*
X152225102Y-95889626D01*
X152425061Y-95929400D01*
X152628939Y-95929400D01*
X152828898Y-95889626D01*
X153017256Y-95811605D01*
X153186774Y-95698337D01*
X153330937Y-95554174D01*
X153444205Y-95384656D01*
X153522226Y-95196298D01*
X153562000Y-94996339D01*
X153562000Y-94792461D01*
X153522226Y-94592502D01*
X153444205Y-94404144D01*
X153330937Y-94234626D01*
X153186774Y-94090463D01*
X153017256Y-93977195D01*
X152828898Y-93899174D01*
X152628939Y-93859400D01*
X152425061Y-93859400D01*
X152225102Y-93899174D01*
X152036744Y-93977195D01*
X151867226Y-94090463D01*
X151723063Y-94234626D01*
X151609795Y-94404144D01*
X151531774Y-94592502D01*
X151492000Y-94792461D01*
X127277432Y-94792461D01*
X127226344Y-94669124D01*
X126916088Y-94204793D01*
X126521207Y-93809912D01*
X126242970Y-93624000D01*
X153959289Y-93624000D01*
X153882063Y-93701226D01*
%TD*%
M02*
