%TF.GenerationSoftware,KiCad,Pcbnew,(5.1.6-0-10_14)*%
%TF.CreationDate,2021-11-28T10:34:50-06:00*%
%TF.ProjectId,EE514 Project,45453531-3420-4507-926f-6a6563742e6b,rev?*%
%TF.SameCoordinates,Original*%
%TF.FileFunction,Copper,L2,Inr*%
%TF.FilePolarity,Positive*%
%FSLAX46Y46*%
G04 Gerber Fmt 4.6, Leading zero omitted, Abs format (unit mm)*
G04 Created by KiCad (PCBNEW (5.1.6-0-10_14)) date 2021-11-28 10:34:50*
%MOMM*%
%LPD*%
G01*
G04 APERTURE LIST*
%TA.AperFunction,ViaPad*%
%ADD10O,1.700000X1.700000*%
%TD*%
%TA.AperFunction,ViaPad*%
%ADD11R,1.700000X1.700000*%
%TD*%
%TA.AperFunction,ViaPad*%
%ADD12C,0.700000*%
%TD*%
%TA.AperFunction,ViaPad*%
%ADD13C,4.400000*%
%TD*%
%TA.AperFunction,ViaPad*%
%ADD14C,1.500000*%
%TD*%
%TA.AperFunction,ViaPad*%
%ADD15R,1.440000X1.440000*%
%TD*%
%TA.AperFunction,ViaPad*%
%ADD16C,1.440000*%
%TD*%
%TA.AperFunction,ViaPad*%
%ADD17C,0.970000*%
%TD*%
%TA.AperFunction,ViaPad*%
%ADD18C,2.100000*%
%TD*%
%TA.AperFunction,ViaPad*%
%ADD19R,2.100000X2.100000*%
%TD*%
%TA.AperFunction,ViaPad*%
%ADD20C,0.800000*%
%TD*%
%TA.AperFunction,Conductor*%
%ADD21C,0.254000*%
%TD*%
G04 APERTURE END LIST*
D10*
%TO.N,/LE_PLL*%
%TO.C,J102*%
X153162000Y-124460000D03*
%TO.N,/DATA_PLL*%
X150622000Y-124460000D03*
%TO.N,/CLK_PLL*%
X148082000Y-124460000D03*
D11*
%TO.N,GND*%
X145542000Y-124460000D03*
%TD*%
D12*
%TO.N,GND*%
%TO.C,H104*%
X166012726Y-94845274D03*
X164846000Y-94362000D03*
X163679274Y-94845274D03*
X163196000Y-96012000D03*
X163679274Y-97178726D03*
X164846000Y-97662000D03*
X166012726Y-97178726D03*
X166496000Y-96012000D03*
D13*
X164846000Y-96012000D03*
%TD*%
D12*
%TO.N,GND*%
%TO.C,H103*%
X166012726Y-122277274D03*
X164846000Y-121794000D03*
X163679274Y-122277274D03*
X163196000Y-123444000D03*
X163679274Y-124610726D03*
X164846000Y-125094000D03*
X166012726Y-124610726D03*
X166496000Y-123444000D03*
D13*
X164846000Y-123444000D03*
%TD*%
D12*
%TO.N,GND*%
%TO.C,H102*%
X125880726Y-122277274D03*
X124714000Y-121794000D03*
X123547274Y-122277274D03*
X123064000Y-123444000D03*
X123547274Y-124610726D03*
X124714000Y-125094000D03*
X125880726Y-124610726D03*
X126364000Y-123444000D03*
D13*
X124714000Y-123444000D03*
%TD*%
D12*
%TO.N,GND*%
%TO.C,H101*%
X125880726Y-94845274D03*
X124714000Y-94362000D03*
X123547274Y-94845274D03*
X123064000Y-96012000D03*
X123547274Y-97178726D03*
X124714000Y-97662000D03*
X125880726Y-97178726D03*
X126364000Y-96012000D03*
D13*
X124714000Y-96012000D03*
%TD*%
D14*
%TO.N,/Reference Oscillator/10MHz_REF_OUT*%
%TO.C,TP201*%
X141478000Y-124460000D03*
%TD*%
%TO.N,/Vp*%
%TO.C,TP102*%
X157607000Y-120269000D03*
%TD*%
%TO.N,Net-(D102-Pad2)*%
%TO.C,TP101*%
X160274000Y-113030000D03*
%TD*%
D15*
%TO.N,/Reference Oscillator/10MHz_REF_OUT*%
%TO.C,RV201*%
X141478000Y-114046000D03*
D16*
X141478000Y-116586000D03*
%TO.N,Net-(R201-Pad1)*%
X141478000Y-119126000D03*
%TD*%
D17*
%TO.N,GND*%
%TO.C,J103*%
X161348000Y-100522000D03*
X161348000Y-109282000D03*
%TD*%
D18*
%TO.N,GND*%
%TO.C,J101*%
X125603000Y-104394000D03*
D19*
%TO.N,+5V*%
X125603000Y-101854000D03*
%TD*%
D20*
%TO.N,GND*%
X125476000Y-114681000D03*
X129921000Y-110617000D03*
X133985000Y-110617000D03*
X133096000Y-111506000D03*
X134239000Y-113538000D03*
X135255000Y-118373600D03*
X135636000Y-106553000D03*
X130175000Y-97536000D03*
X143510000Y-107569000D03*
X143510000Y-109601000D03*
X149479000Y-120269000D03*
X148809000Y-118491000D03*
X155194000Y-120269000D03*
X155090490Y-122324490D03*
X149455500Y-122404502D03*
X165227000Y-119507000D03*
X157988000Y-111379000D03*
X150495000Y-113030000D03*
X151537048Y-113044421D03*
X154584398Y-108839000D03*
X153441400Y-105079800D03*
X148463000Y-105816400D03*
X145288000Y-100431600D03*
X144754600Y-99491800D03*
X146608800Y-96723200D03*
X152527000Y-94894400D03*
X156057600Y-100431600D03*
X156591000Y-98171000D03*
X160426400Y-94488000D03*
%TO.N,+5V*%
X131953000Y-110617000D03*
X138049000Y-110617000D03*
X127635000Y-111506000D03*
X138303000Y-113538000D03*
X154701000Y-116063000D03*
X153885026Y-116063006D03*
X160655000Y-117221008D03*
X142113000Y-110617000D03*
X146454500Y-108481492D03*
%TO.N,/LE_PLL*%
X151098590Y-115820163D03*
%TO.N,/DATA_PLL*%
X150495000Y-118364000D03*
%TO.N,/CLK_PLL*%
X150019228Y-115839828D03*
%TO.N,/CP_OUT*%
X154686000Y-94361000D03*
X152630074Y-112934900D03*
%TD*%
D21*
%TO.N,GND*%
G36*
X153882063Y-93701226D02*
G01*
X153768795Y-93870744D01*
X153690774Y-94059102D01*
X153651000Y-94259061D01*
X153651000Y-94462939D01*
X153690774Y-94662898D01*
X153768795Y-94851256D01*
X153882063Y-95020774D01*
X154026226Y-95164937D01*
X154195744Y-95278205D01*
X154384102Y-95356226D01*
X154584061Y-95396000D01*
X154787939Y-95396000D01*
X154987898Y-95356226D01*
X155176256Y-95278205D01*
X155345774Y-95164937D01*
X155489937Y-95020774D01*
X155603205Y-94851256D01*
X155681226Y-94662898D01*
X155721000Y-94462939D01*
X155721000Y-94259061D01*
X155681226Y-94059102D01*
X155603205Y-93870744D01*
X155489937Y-93701226D01*
X155412711Y-93624000D01*
X164813721Y-93624000D01*
X165309216Y-93672584D01*
X165754793Y-93807112D01*
X166165746Y-94025620D01*
X166526434Y-94319788D01*
X166823119Y-94678419D01*
X167044491Y-95087838D01*
X167182126Y-95532465D01*
X167234000Y-96026011D01*
X167234001Y-123411711D01*
X167185416Y-123907216D01*
X167050890Y-124352790D01*
X166832382Y-124763745D01*
X166538209Y-125124436D01*
X166179581Y-125421119D01*
X165770162Y-125642491D01*
X165325535Y-125780126D01*
X164831990Y-125832000D01*
X153730190Y-125832000D01*
X153865411Y-125775990D01*
X154108632Y-125613475D01*
X154315475Y-125406632D01*
X154477990Y-125163411D01*
X154589932Y-124893158D01*
X154647000Y-124606260D01*
X154647000Y-124313740D01*
X154589932Y-124026842D01*
X154477990Y-123756589D01*
X154315475Y-123513368D01*
X154108632Y-123306525D01*
X153865411Y-123144010D01*
X153595158Y-123032068D01*
X153308260Y-122975000D01*
X153015740Y-122975000D01*
X152728842Y-123032068D01*
X152458589Y-123144010D01*
X152215368Y-123306525D01*
X152008525Y-123513368D01*
X151892000Y-123687760D01*
X151775475Y-123513368D01*
X151568632Y-123306525D01*
X151325411Y-123144010D01*
X151055158Y-123032068D01*
X150768260Y-122975000D01*
X150475740Y-122975000D01*
X150188842Y-123032068D01*
X149918589Y-123144010D01*
X149675368Y-123306525D01*
X149468525Y-123513368D01*
X149352000Y-123687760D01*
X149235475Y-123513368D01*
X149028632Y-123306525D01*
X148785411Y-123144010D01*
X148515158Y-123032068D01*
X148228260Y-122975000D01*
X147935740Y-122975000D01*
X147648842Y-123032068D01*
X147378589Y-123144010D01*
X147135368Y-123306525D01*
X146928525Y-123513368D01*
X146766010Y-123756589D01*
X146654068Y-124026842D01*
X146597000Y-124313740D01*
X146597000Y-124606260D01*
X146654068Y-124893158D01*
X146766010Y-125163411D01*
X146928525Y-125406632D01*
X147135368Y-125613475D01*
X147378589Y-125775990D01*
X147513810Y-125832000D01*
X141679766Y-125832000D01*
X141881989Y-125791775D01*
X142134043Y-125687371D01*
X142360886Y-125535799D01*
X142553799Y-125342886D01*
X142705371Y-125116043D01*
X142809775Y-124863989D01*
X142863000Y-124596411D01*
X142863000Y-124323589D01*
X142809775Y-124056011D01*
X142705371Y-123803957D01*
X142553799Y-123577114D01*
X142360886Y-123384201D01*
X142134043Y-123232629D01*
X141881989Y-123128225D01*
X141614411Y-123075000D01*
X141341589Y-123075000D01*
X141074011Y-123128225D01*
X140821957Y-123232629D01*
X140595114Y-123384201D01*
X140402201Y-123577114D01*
X140250629Y-123803957D01*
X140146225Y-124056011D01*
X140093000Y-124323589D01*
X140093000Y-124596411D01*
X140146225Y-124863989D01*
X140250629Y-125116043D01*
X140402201Y-125342886D01*
X140595114Y-125535799D01*
X140821957Y-125687371D01*
X141074011Y-125791775D01*
X141276234Y-125832000D01*
X124746279Y-125832000D01*
X124250784Y-125783416D01*
X123805210Y-125648890D01*
X123394255Y-125430382D01*
X123033564Y-125136209D01*
X122736881Y-124777581D01*
X122515509Y-124368162D01*
X122377874Y-123923535D01*
X122326000Y-123429990D01*
X122326000Y-113436061D01*
X137268000Y-113436061D01*
X137268000Y-113639939D01*
X137307774Y-113839898D01*
X137385795Y-114028256D01*
X137499063Y-114197774D01*
X137643226Y-114341937D01*
X137812744Y-114455205D01*
X138001102Y-114533226D01*
X138201061Y-114573000D01*
X138404939Y-114573000D01*
X138604898Y-114533226D01*
X138793256Y-114455205D01*
X138962774Y-114341937D01*
X139106937Y-114197774D01*
X139220205Y-114028256D01*
X139298226Y-113839898D01*
X139338000Y-113639939D01*
X139338000Y-113436061D01*
X139316108Y-113326000D01*
X140119928Y-113326000D01*
X140119928Y-114766000D01*
X140132188Y-114890482D01*
X140168498Y-115010180D01*
X140227463Y-115120494D01*
X140306815Y-115217185D01*
X140403506Y-115296537D01*
X140513820Y-115355502D01*
X140633518Y-115391812D01*
X140758000Y-115404072D01*
X140807945Y-115404072D01*
X140614238Y-115533503D01*
X140425503Y-115722238D01*
X140277215Y-115944167D01*
X140175072Y-116190761D01*
X140123000Y-116452544D01*
X140123000Y-116719456D01*
X140175072Y-116981239D01*
X140277215Y-117227833D01*
X140425503Y-117449762D01*
X140614238Y-117638497D01*
X140836167Y-117786785D01*
X141003266Y-117856000D01*
X140836167Y-117925215D01*
X140614238Y-118073503D01*
X140425503Y-118262238D01*
X140277215Y-118484167D01*
X140175072Y-118730761D01*
X140123000Y-118992544D01*
X140123000Y-119259456D01*
X140175072Y-119521239D01*
X140277215Y-119767833D01*
X140425503Y-119989762D01*
X140614238Y-120178497D01*
X140836167Y-120326785D01*
X141082761Y-120428928D01*
X141344544Y-120481000D01*
X141611456Y-120481000D01*
X141873239Y-120428928D01*
X142119833Y-120326785D01*
X142341762Y-120178497D01*
X142387670Y-120132589D01*
X156222000Y-120132589D01*
X156222000Y-120405411D01*
X156275225Y-120672989D01*
X156379629Y-120925043D01*
X156531201Y-121151886D01*
X156724114Y-121344799D01*
X156950957Y-121496371D01*
X157203011Y-121600775D01*
X157470589Y-121654000D01*
X157743411Y-121654000D01*
X158010989Y-121600775D01*
X158263043Y-121496371D01*
X158489886Y-121344799D01*
X158682799Y-121151886D01*
X158834371Y-120925043D01*
X158938775Y-120672989D01*
X158992000Y-120405411D01*
X158992000Y-120132589D01*
X158938775Y-119865011D01*
X158834371Y-119612957D01*
X158682799Y-119386114D01*
X158489886Y-119193201D01*
X158263043Y-119041629D01*
X158010989Y-118937225D01*
X157743411Y-118884000D01*
X157470589Y-118884000D01*
X157203011Y-118937225D01*
X156950957Y-119041629D01*
X156724114Y-119193201D01*
X156531201Y-119386114D01*
X156379629Y-119612957D01*
X156275225Y-119865011D01*
X156222000Y-120132589D01*
X142387670Y-120132589D01*
X142530497Y-119989762D01*
X142678785Y-119767833D01*
X142780928Y-119521239D01*
X142833000Y-119259456D01*
X142833000Y-118992544D01*
X142780928Y-118730761D01*
X142678785Y-118484167D01*
X142530497Y-118262238D01*
X142530320Y-118262061D01*
X149460000Y-118262061D01*
X149460000Y-118465939D01*
X149499774Y-118665898D01*
X149577795Y-118854256D01*
X149691063Y-119023774D01*
X149835226Y-119167937D01*
X150004744Y-119281205D01*
X150193102Y-119359226D01*
X150393061Y-119399000D01*
X150596939Y-119399000D01*
X150796898Y-119359226D01*
X150985256Y-119281205D01*
X151154774Y-119167937D01*
X151298937Y-119023774D01*
X151412205Y-118854256D01*
X151490226Y-118665898D01*
X151530000Y-118465939D01*
X151530000Y-118262061D01*
X151490226Y-118062102D01*
X151412205Y-117873744D01*
X151298937Y-117704226D01*
X151154774Y-117560063D01*
X150985256Y-117446795D01*
X150796898Y-117368774D01*
X150596939Y-117329000D01*
X150393061Y-117329000D01*
X150193102Y-117368774D01*
X150004744Y-117446795D01*
X149835226Y-117560063D01*
X149691063Y-117704226D01*
X149577795Y-117873744D01*
X149499774Y-118062102D01*
X149460000Y-118262061D01*
X142530320Y-118262061D01*
X142341762Y-118073503D01*
X142119833Y-117925215D01*
X141952734Y-117856000D01*
X142119833Y-117786785D01*
X142341762Y-117638497D01*
X142530497Y-117449762D01*
X142678785Y-117227833D01*
X142723836Y-117119069D01*
X159620000Y-117119069D01*
X159620000Y-117322947D01*
X159659774Y-117522906D01*
X159737795Y-117711264D01*
X159851063Y-117880782D01*
X159995226Y-118024945D01*
X160164744Y-118138213D01*
X160353102Y-118216234D01*
X160553061Y-118256008D01*
X160756939Y-118256008D01*
X160956898Y-118216234D01*
X161145256Y-118138213D01*
X161314774Y-118024945D01*
X161458937Y-117880782D01*
X161572205Y-117711264D01*
X161650226Y-117522906D01*
X161690000Y-117322947D01*
X161690000Y-117119069D01*
X161650226Y-116919110D01*
X161572205Y-116730752D01*
X161458937Y-116561234D01*
X161314774Y-116417071D01*
X161145256Y-116303803D01*
X160956898Y-116225782D01*
X160756939Y-116186008D01*
X160553061Y-116186008D01*
X160353102Y-116225782D01*
X160164744Y-116303803D01*
X159995226Y-116417071D01*
X159851063Y-116561234D01*
X159737795Y-116730752D01*
X159659774Y-116919110D01*
X159620000Y-117119069D01*
X142723836Y-117119069D01*
X142780928Y-116981239D01*
X142833000Y-116719456D01*
X142833000Y-116452544D01*
X142780928Y-116190761D01*
X142678785Y-115944167D01*
X142540955Y-115737889D01*
X148984228Y-115737889D01*
X148984228Y-115941767D01*
X149024002Y-116141726D01*
X149102023Y-116330084D01*
X149215291Y-116499602D01*
X149359454Y-116643765D01*
X149528972Y-116757033D01*
X149717330Y-116835054D01*
X149917289Y-116874828D01*
X150121167Y-116874828D01*
X150321126Y-116835054D01*
X150509484Y-116757033D01*
X150573624Y-116714176D01*
X150608334Y-116737368D01*
X150796692Y-116815389D01*
X150996651Y-116855163D01*
X151200529Y-116855163D01*
X151400488Y-116815389D01*
X151588846Y-116737368D01*
X151758364Y-116624100D01*
X151902527Y-116479937D01*
X152015795Y-116310419D01*
X152093816Y-116122061D01*
X152125839Y-115961067D01*
X152850026Y-115961067D01*
X152850026Y-116164945D01*
X152889800Y-116364904D01*
X152967821Y-116553262D01*
X153081089Y-116722780D01*
X153225252Y-116866943D01*
X153394770Y-116980211D01*
X153583128Y-117058232D01*
X153783087Y-117098006D01*
X153986965Y-117098006D01*
X154186924Y-117058232D01*
X154293020Y-117014285D01*
X154399102Y-117058226D01*
X154599061Y-117098000D01*
X154802939Y-117098000D01*
X155002898Y-117058226D01*
X155191256Y-116980205D01*
X155360774Y-116866937D01*
X155504937Y-116722774D01*
X155618205Y-116553256D01*
X155696226Y-116364898D01*
X155736000Y-116164939D01*
X155736000Y-115961061D01*
X155696226Y-115761102D01*
X155618205Y-115572744D01*
X155504937Y-115403226D01*
X155360774Y-115259063D01*
X155191256Y-115145795D01*
X155002898Y-115067774D01*
X154802939Y-115028000D01*
X154599061Y-115028000D01*
X154399102Y-115067774D01*
X154293006Y-115111721D01*
X154186924Y-115067780D01*
X153986965Y-115028006D01*
X153783087Y-115028006D01*
X153583128Y-115067780D01*
X153394770Y-115145801D01*
X153225252Y-115259069D01*
X153081089Y-115403232D01*
X152967821Y-115572750D01*
X152889800Y-115761108D01*
X152850026Y-115961067D01*
X152125839Y-115961067D01*
X152133590Y-115922102D01*
X152133590Y-115718224D01*
X152093816Y-115518265D01*
X152015795Y-115329907D01*
X151902527Y-115160389D01*
X151758364Y-115016226D01*
X151588846Y-114902958D01*
X151400488Y-114824937D01*
X151200529Y-114785163D01*
X150996651Y-114785163D01*
X150796692Y-114824937D01*
X150608334Y-114902958D01*
X150544194Y-114945815D01*
X150509484Y-114922623D01*
X150321126Y-114844602D01*
X150121167Y-114804828D01*
X149917289Y-114804828D01*
X149717330Y-114844602D01*
X149528972Y-114922623D01*
X149359454Y-115035891D01*
X149215291Y-115180054D01*
X149102023Y-115349572D01*
X149024002Y-115537930D01*
X148984228Y-115737889D01*
X142540955Y-115737889D01*
X142530497Y-115722238D01*
X142341762Y-115533503D01*
X142148055Y-115404072D01*
X142198000Y-115404072D01*
X142322482Y-115391812D01*
X142442180Y-115355502D01*
X142552494Y-115296537D01*
X142649185Y-115217185D01*
X142728537Y-115120494D01*
X142787502Y-115010180D01*
X142823812Y-114890482D01*
X142836072Y-114766000D01*
X142836072Y-113326000D01*
X142823812Y-113201518D01*
X142787502Y-113081820D01*
X142728537Y-112971506D01*
X142649185Y-112874815D01*
X142598186Y-112832961D01*
X151595074Y-112832961D01*
X151595074Y-113036839D01*
X151634848Y-113236798D01*
X151712869Y-113425156D01*
X151826137Y-113594674D01*
X151970300Y-113738837D01*
X152139818Y-113852105D01*
X152328176Y-113930126D01*
X152528135Y-113969900D01*
X152732013Y-113969900D01*
X152931972Y-113930126D01*
X153120330Y-113852105D01*
X153289848Y-113738837D01*
X153434011Y-113594674D01*
X153547279Y-113425156D01*
X153625300Y-113236798D01*
X153665074Y-113036839D01*
X153665074Y-112893589D01*
X158889000Y-112893589D01*
X158889000Y-113166411D01*
X158942225Y-113433989D01*
X159046629Y-113686043D01*
X159198201Y-113912886D01*
X159391114Y-114105799D01*
X159617957Y-114257371D01*
X159870011Y-114361775D01*
X160137589Y-114415000D01*
X160410411Y-114415000D01*
X160677989Y-114361775D01*
X160930043Y-114257371D01*
X161156886Y-114105799D01*
X161349799Y-113912886D01*
X161501371Y-113686043D01*
X161605775Y-113433989D01*
X161659000Y-113166411D01*
X161659000Y-112893589D01*
X161605775Y-112626011D01*
X161501371Y-112373957D01*
X161349799Y-112147114D01*
X161156886Y-111954201D01*
X160930043Y-111802629D01*
X160677989Y-111698225D01*
X160410411Y-111645000D01*
X160137589Y-111645000D01*
X159870011Y-111698225D01*
X159617957Y-111802629D01*
X159391114Y-111954201D01*
X159198201Y-112147114D01*
X159046629Y-112373957D01*
X158942225Y-112626011D01*
X158889000Y-112893589D01*
X153665074Y-112893589D01*
X153665074Y-112832961D01*
X153625300Y-112633002D01*
X153547279Y-112444644D01*
X153434011Y-112275126D01*
X153289848Y-112130963D01*
X153120330Y-112017695D01*
X152931972Y-111939674D01*
X152732013Y-111899900D01*
X152528135Y-111899900D01*
X152328176Y-111939674D01*
X152139818Y-112017695D01*
X151970300Y-112130963D01*
X151826137Y-112275126D01*
X151712869Y-112444644D01*
X151634848Y-112633002D01*
X151595074Y-112832961D01*
X142598186Y-112832961D01*
X142552494Y-112795463D01*
X142442180Y-112736498D01*
X142322482Y-112700188D01*
X142198000Y-112687928D01*
X140758000Y-112687928D01*
X140633518Y-112700188D01*
X140513820Y-112736498D01*
X140403506Y-112795463D01*
X140306815Y-112874815D01*
X140227463Y-112971506D01*
X140168498Y-113081820D01*
X140132188Y-113201518D01*
X140119928Y-113326000D01*
X139316108Y-113326000D01*
X139298226Y-113236102D01*
X139220205Y-113047744D01*
X139106937Y-112878226D01*
X138962774Y-112734063D01*
X138793256Y-112620795D01*
X138604898Y-112542774D01*
X138404939Y-112503000D01*
X138201061Y-112503000D01*
X138001102Y-112542774D01*
X137812744Y-112620795D01*
X137643226Y-112734063D01*
X137499063Y-112878226D01*
X137385795Y-113047744D01*
X137307774Y-113236102D01*
X137268000Y-113436061D01*
X122326000Y-113436061D01*
X122326000Y-111404061D01*
X126600000Y-111404061D01*
X126600000Y-111607939D01*
X126639774Y-111807898D01*
X126717795Y-111996256D01*
X126831063Y-112165774D01*
X126975226Y-112309937D01*
X127144744Y-112423205D01*
X127333102Y-112501226D01*
X127533061Y-112541000D01*
X127736939Y-112541000D01*
X127936898Y-112501226D01*
X128125256Y-112423205D01*
X128294774Y-112309937D01*
X128438937Y-112165774D01*
X128552205Y-111996256D01*
X128630226Y-111807898D01*
X128670000Y-111607939D01*
X128670000Y-111404061D01*
X128630226Y-111204102D01*
X128552205Y-111015744D01*
X128438937Y-110846226D01*
X128294774Y-110702063D01*
X128125256Y-110588795D01*
X127947248Y-110515061D01*
X130918000Y-110515061D01*
X130918000Y-110718939D01*
X130957774Y-110918898D01*
X131035795Y-111107256D01*
X131149063Y-111276774D01*
X131293226Y-111420937D01*
X131462744Y-111534205D01*
X131651102Y-111612226D01*
X131851061Y-111652000D01*
X132054939Y-111652000D01*
X132254898Y-111612226D01*
X132443256Y-111534205D01*
X132612774Y-111420937D01*
X132756937Y-111276774D01*
X132870205Y-111107256D01*
X132948226Y-110918898D01*
X132988000Y-110718939D01*
X132988000Y-110515061D01*
X137014000Y-110515061D01*
X137014000Y-110718939D01*
X137053774Y-110918898D01*
X137131795Y-111107256D01*
X137245063Y-111276774D01*
X137389226Y-111420937D01*
X137558744Y-111534205D01*
X137747102Y-111612226D01*
X137947061Y-111652000D01*
X138150939Y-111652000D01*
X138350898Y-111612226D01*
X138539256Y-111534205D01*
X138708774Y-111420937D01*
X138852937Y-111276774D01*
X138966205Y-111107256D01*
X139044226Y-110918898D01*
X139084000Y-110718939D01*
X139084000Y-110515061D01*
X141078000Y-110515061D01*
X141078000Y-110718939D01*
X141117774Y-110918898D01*
X141195795Y-111107256D01*
X141309063Y-111276774D01*
X141453226Y-111420937D01*
X141622744Y-111534205D01*
X141811102Y-111612226D01*
X142011061Y-111652000D01*
X142214939Y-111652000D01*
X142414898Y-111612226D01*
X142603256Y-111534205D01*
X142772774Y-111420937D01*
X142916937Y-111276774D01*
X143030205Y-111107256D01*
X143108226Y-110918898D01*
X143148000Y-110718939D01*
X143148000Y-110515061D01*
X143108226Y-110315102D01*
X143030205Y-110126744D01*
X142916937Y-109957226D01*
X142772774Y-109813063D01*
X142603256Y-109699795D01*
X142414898Y-109621774D01*
X142214939Y-109582000D01*
X142011061Y-109582000D01*
X141811102Y-109621774D01*
X141622744Y-109699795D01*
X141453226Y-109813063D01*
X141309063Y-109957226D01*
X141195795Y-110126744D01*
X141117774Y-110315102D01*
X141078000Y-110515061D01*
X139084000Y-110515061D01*
X139044226Y-110315102D01*
X138966205Y-110126744D01*
X138852937Y-109957226D01*
X138708774Y-109813063D01*
X138539256Y-109699795D01*
X138350898Y-109621774D01*
X138150939Y-109582000D01*
X137947061Y-109582000D01*
X137747102Y-109621774D01*
X137558744Y-109699795D01*
X137389226Y-109813063D01*
X137245063Y-109957226D01*
X137131795Y-110126744D01*
X137053774Y-110315102D01*
X137014000Y-110515061D01*
X132988000Y-110515061D01*
X132948226Y-110315102D01*
X132870205Y-110126744D01*
X132756937Y-109957226D01*
X132612774Y-109813063D01*
X132443256Y-109699795D01*
X132254898Y-109621774D01*
X132054939Y-109582000D01*
X131851061Y-109582000D01*
X131651102Y-109621774D01*
X131462744Y-109699795D01*
X131293226Y-109813063D01*
X131149063Y-109957226D01*
X131035795Y-110126744D01*
X130957774Y-110315102D01*
X130918000Y-110515061D01*
X127947248Y-110515061D01*
X127936898Y-110510774D01*
X127736939Y-110471000D01*
X127533061Y-110471000D01*
X127333102Y-110510774D01*
X127144744Y-110588795D01*
X126975226Y-110702063D01*
X126831063Y-110846226D01*
X126717795Y-111015744D01*
X126639774Y-111204102D01*
X126600000Y-111404061D01*
X122326000Y-111404061D01*
X122326000Y-108379553D01*
X145419500Y-108379553D01*
X145419500Y-108583431D01*
X145459274Y-108783390D01*
X145537295Y-108971748D01*
X145650563Y-109141266D01*
X145794726Y-109285429D01*
X145964244Y-109398697D01*
X146152602Y-109476718D01*
X146352561Y-109516492D01*
X146556439Y-109516492D01*
X146756398Y-109476718D01*
X146944756Y-109398697D01*
X147114274Y-109285429D01*
X147258437Y-109141266D01*
X147371705Y-108971748D01*
X147449726Y-108783390D01*
X147489500Y-108583431D01*
X147489500Y-108379553D01*
X147449726Y-108179594D01*
X147371705Y-107991236D01*
X147258437Y-107821718D01*
X147114274Y-107677555D01*
X146944756Y-107564287D01*
X146756398Y-107486266D01*
X146556439Y-107446492D01*
X146352561Y-107446492D01*
X146152602Y-107486266D01*
X145964244Y-107564287D01*
X145794726Y-107677555D01*
X145650563Y-107821718D01*
X145537295Y-107991236D01*
X145459274Y-108179594D01*
X145419500Y-108379553D01*
X122326000Y-108379553D01*
X122326000Y-100804000D01*
X123914928Y-100804000D01*
X123914928Y-102904000D01*
X123927188Y-103028482D01*
X123963498Y-103148180D01*
X124022463Y-103258494D01*
X124101815Y-103355185D01*
X124198506Y-103434537D01*
X124308820Y-103493502D01*
X124428518Y-103529812D01*
X124553000Y-103542072D01*
X126653000Y-103542072D01*
X126777482Y-103529812D01*
X126897180Y-103493502D01*
X127007494Y-103434537D01*
X127104185Y-103355185D01*
X127183537Y-103258494D01*
X127242502Y-103148180D01*
X127278812Y-103028482D01*
X127291072Y-102904000D01*
X127291072Y-100804000D01*
X127278812Y-100679518D01*
X127242502Y-100559820D01*
X127183537Y-100449506D01*
X127104185Y-100352815D01*
X127007494Y-100273463D01*
X126897180Y-100214498D01*
X126777482Y-100178188D01*
X126653000Y-100165928D01*
X124553000Y-100165928D01*
X124428518Y-100178188D01*
X124308820Y-100214498D01*
X124198506Y-100273463D01*
X124101815Y-100352815D01*
X124022463Y-100449506D01*
X123963498Y-100559820D01*
X123927188Y-100679518D01*
X123914928Y-100804000D01*
X122326000Y-100804000D01*
X122326000Y-96044279D01*
X122374584Y-95548784D01*
X122509112Y-95103207D01*
X122727620Y-94692254D01*
X123021788Y-94331566D01*
X123380419Y-94034881D01*
X123789838Y-93813509D01*
X124234465Y-93675874D01*
X124728011Y-93624000D01*
X153959289Y-93624000D01*
X153882063Y-93701226D01*
G37*
X153882063Y-93701226D02*
X153768795Y-93870744D01*
X153690774Y-94059102D01*
X153651000Y-94259061D01*
X153651000Y-94462939D01*
X153690774Y-94662898D01*
X153768795Y-94851256D01*
X153882063Y-95020774D01*
X154026226Y-95164937D01*
X154195744Y-95278205D01*
X154384102Y-95356226D01*
X154584061Y-95396000D01*
X154787939Y-95396000D01*
X154987898Y-95356226D01*
X155176256Y-95278205D01*
X155345774Y-95164937D01*
X155489937Y-95020774D01*
X155603205Y-94851256D01*
X155681226Y-94662898D01*
X155721000Y-94462939D01*
X155721000Y-94259061D01*
X155681226Y-94059102D01*
X155603205Y-93870744D01*
X155489937Y-93701226D01*
X155412711Y-93624000D01*
X164813721Y-93624000D01*
X165309216Y-93672584D01*
X165754793Y-93807112D01*
X166165746Y-94025620D01*
X166526434Y-94319788D01*
X166823119Y-94678419D01*
X167044491Y-95087838D01*
X167182126Y-95532465D01*
X167234000Y-96026011D01*
X167234001Y-123411711D01*
X167185416Y-123907216D01*
X167050890Y-124352790D01*
X166832382Y-124763745D01*
X166538209Y-125124436D01*
X166179581Y-125421119D01*
X165770162Y-125642491D01*
X165325535Y-125780126D01*
X164831990Y-125832000D01*
X153730190Y-125832000D01*
X153865411Y-125775990D01*
X154108632Y-125613475D01*
X154315475Y-125406632D01*
X154477990Y-125163411D01*
X154589932Y-124893158D01*
X154647000Y-124606260D01*
X154647000Y-124313740D01*
X154589932Y-124026842D01*
X154477990Y-123756589D01*
X154315475Y-123513368D01*
X154108632Y-123306525D01*
X153865411Y-123144010D01*
X153595158Y-123032068D01*
X153308260Y-122975000D01*
X153015740Y-122975000D01*
X152728842Y-123032068D01*
X152458589Y-123144010D01*
X152215368Y-123306525D01*
X152008525Y-123513368D01*
X151892000Y-123687760D01*
X151775475Y-123513368D01*
X151568632Y-123306525D01*
X151325411Y-123144010D01*
X151055158Y-123032068D01*
X150768260Y-122975000D01*
X150475740Y-122975000D01*
X150188842Y-123032068D01*
X149918589Y-123144010D01*
X149675368Y-123306525D01*
X149468525Y-123513368D01*
X149352000Y-123687760D01*
X149235475Y-123513368D01*
X149028632Y-123306525D01*
X148785411Y-123144010D01*
X148515158Y-123032068D01*
X148228260Y-122975000D01*
X147935740Y-122975000D01*
X147648842Y-123032068D01*
X147378589Y-123144010D01*
X147135368Y-123306525D01*
X146928525Y-123513368D01*
X146766010Y-123756589D01*
X146654068Y-124026842D01*
X146597000Y-124313740D01*
X146597000Y-124606260D01*
X146654068Y-124893158D01*
X146766010Y-125163411D01*
X146928525Y-125406632D01*
X147135368Y-125613475D01*
X147378589Y-125775990D01*
X147513810Y-125832000D01*
X141679766Y-125832000D01*
X141881989Y-125791775D01*
X142134043Y-125687371D01*
X142360886Y-125535799D01*
X142553799Y-125342886D01*
X142705371Y-125116043D01*
X142809775Y-124863989D01*
X142863000Y-124596411D01*
X142863000Y-124323589D01*
X142809775Y-124056011D01*
X142705371Y-123803957D01*
X142553799Y-123577114D01*
X142360886Y-123384201D01*
X142134043Y-123232629D01*
X141881989Y-123128225D01*
X141614411Y-123075000D01*
X141341589Y-123075000D01*
X141074011Y-123128225D01*
X140821957Y-123232629D01*
X140595114Y-123384201D01*
X140402201Y-123577114D01*
X140250629Y-123803957D01*
X140146225Y-124056011D01*
X140093000Y-124323589D01*
X140093000Y-124596411D01*
X140146225Y-124863989D01*
X140250629Y-125116043D01*
X140402201Y-125342886D01*
X140595114Y-125535799D01*
X140821957Y-125687371D01*
X141074011Y-125791775D01*
X141276234Y-125832000D01*
X124746279Y-125832000D01*
X124250784Y-125783416D01*
X123805210Y-125648890D01*
X123394255Y-125430382D01*
X123033564Y-125136209D01*
X122736881Y-124777581D01*
X122515509Y-124368162D01*
X122377874Y-123923535D01*
X122326000Y-123429990D01*
X122326000Y-113436061D01*
X137268000Y-113436061D01*
X137268000Y-113639939D01*
X137307774Y-113839898D01*
X137385795Y-114028256D01*
X137499063Y-114197774D01*
X137643226Y-114341937D01*
X137812744Y-114455205D01*
X138001102Y-114533226D01*
X138201061Y-114573000D01*
X138404939Y-114573000D01*
X138604898Y-114533226D01*
X138793256Y-114455205D01*
X138962774Y-114341937D01*
X139106937Y-114197774D01*
X139220205Y-114028256D01*
X139298226Y-113839898D01*
X139338000Y-113639939D01*
X139338000Y-113436061D01*
X139316108Y-113326000D01*
X140119928Y-113326000D01*
X140119928Y-114766000D01*
X140132188Y-114890482D01*
X140168498Y-115010180D01*
X140227463Y-115120494D01*
X140306815Y-115217185D01*
X140403506Y-115296537D01*
X140513820Y-115355502D01*
X140633518Y-115391812D01*
X140758000Y-115404072D01*
X140807945Y-115404072D01*
X140614238Y-115533503D01*
X140425503Y-115722238D01*
X140277215Y-115944167D01*
X140175072Y-116190761D01*
X140123000Y-116452544D01*
X140123000Y-116719456D01*
X140175072Y-116981239D01*
X140277215Y-117227833D01*
X140425503Y-117449762D01*
X140614238Y-117638497D01*
X140836167Y-117786785D01*
X141003266Y-117856000D01*
X140836167Y-117925215D01*
X140614238Y-118073503D01*
X140425503Y-118262238D01*
X140277215Y-118484167D01*
X140175072Y-118730761D01*
X140123000Y-118992544D01*
X140123000Y-119259456D01*
X140175072Y-119521239D01*
X140277215Y-119767833D01*
X140425503Y-119989762D01*
X140614238Y-120178497D01*
X140836167Y-120326785D01*
X141082761Y-120428928D01*
X141344544Y-120481000D01*
X141611456Y-120481000D01*
X141873239Y-120428928D01*
X142119833Y-120326785D01*
X142341762Y-120178497D01*
X142387670Y-120132589D01*
X156222000Y-120132589D01*
X156222000Y-120405411D01*
X156275225Y-120672989D01*
X156379629Y-120925043D01*
X156531201Y-121151886D01*
X156724114Y-121344799D01*
X156950957Y-121496371D01*
X157203011Y-121600775D01*
X157470589Y-121654000D01*
X157743411Y-121654000D01*
X158010989Y-121600775D01*
X158263043Y-121496371D01*
X158489886Y-121344799D01*
X158682799Y-121151886D01*
X158834371Y-120925043D01*
X158938775Y-120672989D01*
X158992000Y-120405411D01*
X158992000Y-120132589D01*
X158938775Y-119865011D01*
X158834371Y-119612957D01*
X158682799Y-119386114D01*
X158489886Y-119193201D01*
X158263043Y-119041629D01*
X158010989Y-118937225D01*
X157743411Y-118884000D01*
X157470589Y-118884000D01*
X157203011Y-118937225D01*
X156950957Y-119041629D01*
X156724114Y-119193201D01*
X156531201Y-119386114D01*
X156379629Y-119612957D01*
X156275225Y-119865011D01*
X156222000Y-120132589D01*
X142387670Y-120132589D01*
X142530497Y-119989762D01*
X142678785Y-119767833D01*
X142780928Y-119521239D01*
X142833000Y-119259456D01*
X142833000Y-118992544D01*
X142780928Y-118730761D01*
X142678785Y-118484167D01*
X142530497Y-118262238D01*
X142530320Y-118262061D01*
X149460000Y-118262061D01*
X149460000Y-118465939D01*
X149499774Y-118665898D01*
X149577795Y-118854256D01*
X149691063Y-119023774D01*
X149835226Y-119167937D01*
X150004744Y-119281205D01*
X150193102Y-119359226D01*
X150393061Y-119399000D01*
X150596939Y-119399000D01*
X150796898Y-119359226D01*
X150985256Y-119281205D01*
X151154774Y-119167937D01*
X151298937Y-119023774D01*
X151412205Y-118854256D01*
X151490226Y-118665898D01*
X151530000Y-118465939D01*
X151530000Y-118262061D01*
X151490226Y-118062102D01*
X151412205Y-117873744D01*
X151298937Y-117704226D01*
X151154774Y-117560063D01*
X150985256Y-117446795D01*
X150796898Y-117368774D01*
X150596939Y-117329000D01*
X150393061Y-117329000D01*
X150193102Y-117368774D01*
X150004744Y-117446795D01*
X149835226Y-117560063D01*
X149691063Y-117704226D01*
X149577795Y-117873744D01*
X149499774Y-118062102D01*
X149460000Y-118262061D01*
X142530320Y-118262061D01*
X142341762Y-118073503D01*
X142119833Y-117925215D01*
X141952734Y-117856000D01*
X142119833Y-117786785D01*
X142341762Y-117638497D01*
X142530497Y-117449762D01*
X142678785Y-117227833D01*
X142723836Y-117119069D01*
X159620000Y-117119069D01*
X159620000Y-117322947D01*
X159659774Y-117522906D01*
X159737795Y-117711264D01*
X159851063Y-117880782D01*
X159995226Y-118024945D01*
X160164744Y-118138213D01*
X160353102Y-118216234D01*
X160553061Y-118256008D01*
X160756939Y-118256008D01*
X160956898Y-118216234D01*
X161145256Y-118138213D01*
X161314774Y-118024945D01*
X161458937Y-117880782D01*
X161572205Y-117711264D01*
X161650226Y-117522906D01*
X161690000Y-117322947D01*
X161690000Y-117119069D01*
X161650226Y-116919110D01*
X161572205Y-116730752D01*
X161458937Y-116561234D01*
X161314774Y-116417071D01*
X161145256Y-116303803D01*
X160956898Y-116225782D01*
X160756939Y-116186008D01*
X160553061Y-116186008D01*
X160353102Y-116225782D01*
X160164744Y-116303803D01*
X159995226Y-116417071D01*
X159851063Y-116561234D01*
X159737795Y-116730752D01*
X159659774Y-116919110D01*
X159620000Y-117119069D01*
X142723836Y-117119069D01*
X142780928Y-116981239D01*
X142833000Y-116719456D01*
X142833000Y-116452544D01*
X142780928Y-116190761D01*
X142678785Y-115944167D01*
X142540955Y-115737889D01*
X148984228Y-115737889D01*
X148984228Y-115941767D01*
X149024002Y-116141726D01*
X149102023Y-116330084D01*
X149215291Y-116499602D01*
X149359454Y-116643765D01*
X149528972Y-116757033D01*
X149717330Y-116835054D01*
X149917289Y-116874828D01*
X150121167Y-116874828D01*
X150321126Y-116835054D01*
X150509484Y-116757033D01*
X150573624Y-116714176D01*
X150608334Y-116737368D01*
X150796692Y-116815389D01*
X150996651Y-116855163D01*
X151200529Y-116855163D01*
X151400488Y-116815389D01*
X151588846Y-116737368D01*
X151758364Y-116624100D01*
X151902527Y-116479937D01*
X152015795Y-116310419D01*
X152093816Y-116122061D01*
X152125839Y-115961067D01*
X152850026Y-115961067D01*
X152850026Y-116164945D01*
X152889800Y-116364904D01*
X152967821Y-116553262D01*
X153081089Y-116722780D01*
X153225252Y-116866943D01*
X153394770Y-116980211D01*
X153583128Y-117058232D01*
X153783087Y-117098006D01*
X153986965Y-117098006D01*
X154186924Y-117058232D01*
X154293020Y-117014285D01*
X154399102Y-117058226D01*
X154599061Y-117098000D01*
X154802939Y-117098000D01*
X155002898Y-117058226D01*
X155191256Y-116980205D01*
X155360774Y-116866937D01*
X155504937Y-116722774D01*
X155618205Y-116553256D01*
X155696226Y-116364898D01*
X155736000Y-116164939D01*
X155736000Y-115961061D01*
X155696226Y-115761102D01*
X155618205Y-115572744D01*
X155504937Y-115403226D01*
X155360774Y-115259063D01*
X155191256Y-115145795D01*
X155002898Y-115067774D01*
X154802939Y-115028000D01*
X154599061Y-115028000D01*
X154399102Y-115067774D01*
X154293006Y-115111721D01*
X154186924Y-115067780D01*
X153986965Y-115028006D01*
X153783087Y-115028006D01*
X153583128Y-115067780D01*
X153394770Y-115145801D01*
X153225252Y-115259069D01*
X153081089Y-115403232D01*
X152967821Y-115572750D01*
X152889800Y-115761108D01*
X152850026Y-115961067D01*
X152125839Y-115961067D01*
X152133590Y-115922102D01*
X152133590Y-115718224D01*
X152093816Y-115518265D01*
X152015795Y-115329907D01*
X151902527Y-115160389D01*
X151758364Y-115016226D01*
X151588846Y-114902958D01*
X151400488Y-114824937D01*
X151200529Y-114785163D01*
X150996651Y-114785163D01*
X150796692Y-114824937D01*
X150608334Y-114902958D01*
X150544194Y-114945815D01*
X150509484Y-114922623D01*
X150321126Y-114844602D01*
X150121167Y-114804828D01*
X149917289Y-114804828D01*
X149717330Y-114844602D01*
X149528972Y-114922623D01*
X149359454Y-115035891D01*
X149215291Y-115180054D01*
X149102023Y-115349572D01*
X149024002Y-115537930D01*
X148984228Y-115737889D01*
X142540955Y-115737889D01*
X142530497Y-115722238D01*
X142341762Y-115533503D01*
X142148055Y-115404072D01*
X142198000Y-115404072D01*
X142322482Y-115391812D01*
X142442180Y-115355502D01*
X142552494Y-115296537D01*
X142649185Y-115217185D01*
X142728537Y-115120494D01*
X142787502Y-115010180D01*
X142823812Y-114890482D01*
X142836072Y-114766000D01*
X142836072Y-113326000D01*
X142823812Y-113201518D01*
X142787502Y-113081820D01*
X142728537Y-112971506D01*
X142649185Y-112874815D01*
X142598186Y-112832961D01*
X151595074Y-112832961D01*
X151595074Y-113036839D01*
X151634848Y-113236798D01*
X151712869Y-113425156D01*
X151826137Y-113594674D01*
X151970300Y-113738837D01*
X152139818Y-113852105D01*
X152328176Y-113930126D01*
X152528135Y-113969900D01*
X152732013Y-113969900D01*
X152931972Y-113930126D01*
X153120330Y-113852105D01*
X153289848Y-113738837D01*
X153434011Y-113594674D01*
X153547279Y-113425156D01*
X153625300Y-113236798D01*
X153665074Y-113036839D01*
X153665074Y-112893589D01*
X158889000Y-112893589D01*
X158889000Y-113166411D01*
X158942225Y-113433989D01*
X159046629Y-113686043D01*
X159198201Y-113912886D01*
X159391114Y-114105799D01*
X159617957Y-114257371D01*
X159870011Y-114361775D01*
X160137589Y-114415000D01*
X160410411Y-114415000D01*
X160677989Y-114361775D01*
X160930043Y-114257371D01*
X161156886Y-114105799D01*
X161349799Y-113912886D01*
X161501371Y-113686043D01*
X161605775Y-113433989D01*
X161659000Y-113166411D01*
X161659000Y-112893589D01*
X161605775Y-112626011D01*
X161501371Y-112373957D01*
X161349799Y-112147114D01*
X161156886Y-111954201D01*
X160930043Y-111802629D01*
X160677989Y-111698225D01*
X160410411Y-111645000D01*
X160137589Y-111645000D01*
X159870011Y-111698225D01*
X159617957Y-111802629D01*
X159391114Y-111954201D01*
X159198201Y-112147114D01*
X159046629Y-112373957D01*
X158942225Y-112626011D01*
X158889000Y-112893589D01*
X153665074Y-112893589D01*
X153665074Y-112832961D01*
X153625300Y-112633002D01*
X153547279Y-112444644D01*
X153434011Y-112275126D01*
X153289848Y-112130963D01*
X153120330Y-112017695D01*
X152931972Y-111939674D01*
X152732013Y-111899900D01*
X152528135Y-111899900D01*
X152328176Y-111939674D01*
X152139818Y-112017695D01*
X151970300Y-112130963D01*
X151826137Y-112275126D01*
X151712869Y-112444644D01*
X151634848Y-112633002D01*
X151595074Y-112832961D01*
X142598186Y-112832961D01*
X142552494Y-112795463D01*
X142442180Y-112736498D01*
X142322482Y-112700188D01*
X142198000Y-112687928D01*
X140758000Y-112687928D01*
X140633518Y-112700188D01*
X140513820Y-112736498D01*
X140403506Y-112795463D01*
X140306815Y-112874815D01*
X140227463Y-112971506D01*
X140168498Y-113081820D01*
X140132188Y-113201518D01*
X140119928Y-113326000D01*
X139316108Y-113326000D01*
X139298226Y-113236102D01*
X139220205Y-113047744D01*
X139106937Y-112878226D01*
X138962774Y-112734063D01*
X138793256Y-112620795D01*
X138604898Y-112542774D01*
X138404939Y-112503000D01*
X138201061Y-112503000D01*
X138001102Y-112542774D01*
X137812744Y-112620795D01*
X137643226Y-112734063D01*
X137499063Y-112878226D01*
X137385795Y-113047744D01*
X137307774Y-113236102D01*
X137268000Y-113436061D01*
X122326000Y-113436061D01*
X122326000Y-111404061D01*
X126600000Y-111404061D01*
X126600000Y-111607939D01*
X126639774Y-111807898D01*
X126717795Y-111996256D01*
X126831063Y-112165774D01*
X126975226Y-112309937D01*
X127144744Y-112423205D01*
X127333102Y-112501226D01*
X127533061Y-112541000D01*
X127736939Y-112541000D01*
X127936898Y-112501226D01*
X128125256Y-112423205D01*
X128294774Y-112309937D01*
X128438937Y-112165774D01*
X128552205Y-111996256D01*
X128630226Y-111807898D01*
X128670000Y-111607939D01*
X128670000Y-111404061D01*
X128630226Y-111204102D01*
X128552205Y-111015744D01*
X128438937Y-110846226D01*
X128294774Y-110702063D01*
X128125256Y-110588795D01*
X127947248Y-110515061D01*
X130918000Y-110515061D01*
X130918000Y-110718939D01*
X130957774Y-110918898D01*
X131035795Y-111107256D01*
X131149063Y-111276774D01*
X131293226Y-111420937D01*
X131462744Y-111534205D01*
X131651102Y-111612226D01*
X131851061Y-111652000D01*
X132054939Y-111652000D01*
X132254898Y-111612226D01*
X132443256Y-111534205D01*
X132612774Y-111420937D01*
X132756937Y-111276774D01*
X132870205Y-111107256D01*
X132948226Y-110918898D01*
X132988000Y-110718939D01*
X132988000Y-110515061D01*
X137014000Y-110515061D01*
X137014000Y-110718939D01*
X137053774Y-110918898D01*
X137131795Y-111107256D01*
X137245063Y-111276774D01*
X137389226Y-111420937D01*
X137558744Y-111534205D01*
X137747102Y-111612226D01*
X137947061Y-111652000D01*
X138150939Y-111652000D01*
X138350898Y-111612226D01*
X138539256Y-111534205D01*
X138708774Y-111420937D01*
X138852937Y-111276774D01*
X138966205Y-111107256D01*
X139044226Y-110918898D01*
X139084000Y-110718939D01*
X139084000Y-110515061D01*
X141078000Y-110515061D01*
X141078000Y-110718939D01*
X141117774Y-110918898D01*
X141195795Y-111107256D01*
X141309063Y-111276774D01*
X141453226Y-111420937D01*
X141622744Y-111534205D01*
X141811102Y-111612226D01*
X142011061Y-111652000D01*
X142214939Y-111652000D01*
X142414898Y-111612226D01*
X142603256Y-111534205D01*
X142772774Y-111420937D01*
X142916937Y-111276774D01*
X143030205Y-111107256D01*
X143108226Y-110918898D01*
X143148000Y-110718939D01*
X143148000Y-110515061D01*
X143108226Y-110315102D01*
X143030205Y-110126744D01*
X142916937Y-109957226D01*
X142772774Y-109813063D01*
X142603256Y-109699795D01*
X142414898Y-109621774D01*
X142214939Y-109582000D01*
X142011061Y-109582000D01*
X141811102Y-109621774D01*
X141622744Y-109699795D01*
X141453226Y-109813063D01*
X141309063Y-109957226D01*
X141195795Y-110126744D01*
X141117774Y-110315102D01*
X141078000Y-110515061D01*
X139084000Y-110515061D01*
X139044226Y-110315102D01*
X138966205Y-110126744D01*
X138852937Y-109957226D01*
X138708774Y-109813063D01*
X138539256Y-109699795D01*
X138350898Y-109621774D01*
X138150939Y-109582000D01*
X137947061Y-109582000D01*
X137747102Y-109621774D01*
X137558744Y-109699795D01*
X137389226Y-109813063D01*
X137245063Y-109957226D01*
X137131795Y-110126744D01*
X137053774Y-110315102D01*
X137014000Y-110515061D01*
X132988000Y-110515061D01*
X132948226Y-110315102D01*
X132870205Y-110126744D01*
X132756937Y-109957226D01*
X132612774Y-109813063D01*
X132443256Y-109699795D01*
X132254898Y-109621774D01*
X132054939Y-109582000D01*
X131851061Y-109582000D01*
X131651102Y-109621774D01*
X131462744Y-109699795D01*
X131293226Y-109813063D01*
X131149063Y-109957226D01*
X131035795Y-110126744D01*
X130957774Y-110315102D01*
X130918000Y-110515061D01*
X127947248Y-110515061D01*
X127936898Y-110510774D01*
X127736939Y-110471000D01*
X127533061Y-110471000D01*
X127333102Y-110510774D01*
X127144744Y-110588795D01*
X126975226Y-110702063D01*
X126831063Y-110846226D01*
X126717795Y-111015744D01*
X126639774Y-111204102D01*
X126600000Y-111404061D01*
X122326000Y-111404061D01*
X122326000Y-108379553D01*
X145419500Y-108379553D01*
X145419500Y-108583431D01*
X145459274Y-108783390D01*
X145537295Y-108971748D01*
X145650563Y-109141266D01*
X145794726Y-109285429D01*
X145964244Y-109398697D01*
X146152602Y-109476718D01*
X146352561Y-109516492D01*
X146556439Y-109516492D01*
X146756398Y-109476718D01*
X146944756Y-109398697D01*
X147114274Y-109285429D01*
X147258437Y-109141266D01*
X147371705Y-108971748D01*
X147449726Y-108783390D01*
X147489500Y-108583431D01*
X147489500Y-108379553D01*
X147449726Y-108179594D01*
X147371705Y-107991236D01*
X147258437Y-107821718D01*
X147114274Y-107677555D01*
X146944756Y-107564287D01*
X146756398Y-107486266D01*
X146556439Y-107446492D01*
X146352561Y-107446492D01*
X146152602Y-107486266D01*
X145964244Y-107564287D01*
X145794726Y-107677555D01*
X145650563Y-107821718D01*
X145537295Y-107991236D01*
X145459274Y-108179594D01*
X145419500Y-108379553D01*
X122326000Y-108379553D01*
X122326000Y-100804000D01*
X123914928Y-100804000D01*
X123914928Y-102904000D01*
X123927188Y-103028482D01*
X123963498Y-103148180D01*
X124022463Y-103258494D01*
X124101815Y-103355185D01*
X124198506Y-103434537D01*
X124308820Y-103493502D01*
X124428518Y-103529812D01*
X124553000Y-103542072D01*
X126653000Y-103542072D01*
X126777482Y-103529812D01*
X126897180Y-103493502D01*
X127007494Y-103434537D01*
X127104185Y-103355185D01*
X127183537Y-103258494D01*
X127242502Y-103148180D01*
X127278812Y-103028482D01*
X127291072Y-102904000D01*
X127291072Y-100804000D01*
X127278812Y-100679518D01*
X127242502Y-100559820D01*
X127183537Y-100449506D01*
X127104185Y-100352815D01*
X127007494Y-100273463D01*
X126897180Y-100214498D01*
X126777482Y-100178188D01*
X126653000Y-100165928D01*
X124553000Y-100165928D01*
X124428518Y-100178188D01*
X124308820Y-100214498D01*
X124198506Y-100273463D01*
X124101815Y-100352815D01*
X124022463Y-100449506D01*
X123963498Y-100559820D01*
X123927188Y-100679518D01*
X123914928Y-100804000D01*
X122326000Y-100804000D01*
X122326000Y-96044279D01*
X122374584Y-95548784D01*
X122509112Y-95103207D01*
X122727620Y-94692254D01*
X123021788Y-94331566D01*
X123380419Y-94034881D01*
X123789838Y-93813509D01*
X124234465Y-93675874D01*
X124728011Y-93624000D01*
X153959289Y-93624000D01*
X153882063Y-93701226D01*
%TD*%
M02*
