%TF.GenerationSoftware,KiCad,Pcbnew,(5.1.6-0-10_14)*%
%TF.CreationDate,2021-11-28T10:34:50-06:00*%
%TF.ProjectId,EE514 Project,45453531-3420-4507-926f-6a6563742e6b,rev?*%
%TF.SameCoordinates,Original*%
%TF.FileFunction,Paste,Top*%
%TF.FilePolarity,Positive*%
%FSLAX46Y46*%
G04 Gerber Fmt 4.6, Leading zero omitted, Abs format (unit mm)*
G04 Created by KiCad (PCBNEW (5.1.6-0-10_14)) date 2021-11-28 10:34:50*
%MOMM*%
%LPD*%
G01*
G04 APERTURE LIST*
%ADD10R,0.975000X0.950000*%
%ADD11R,2.200000X2.000000*%
%ADD12R,2.000000X2.200000*%
%ADD13R,1.060000X0.650000*%
%ADD14R,0.950000X0.975000*%
%ADD15R,0.900000X0.800000*%
%ADD16R,0.600000X0.800000*%
%ADD17R,5.080000X2.420000*%
%ADD18R,5.080000X2.290000*%
%ADD19R,0.700000X0.600000*%
G04 APERTURE END LIST*
D10*
%TO.C,C111*%
X145137500Y-112522000D03*
X146962500Y-112522000D03*
%TD*%
D11*
%TO.C,D102*%
X165237000Y-114256000D03*
G36*
G01*
X166137000Y-118856000D02*
X164337000Y-118856000D01*
G75*
G02*
X164137000Y-118656000I0J200000D01*
G01*
X164137000Y-117056000D01*
G75*
G02*
X164337000Y-116856000I200000J0D01*
G01*
X166137000Y-116856000D01*
G75*
G02*
X166337000Y-117056000I0J-200000D01*
G01*
X166337000Y-118656000D01*
G75*
G02*
X166137000Y-118856000I-200000J0D01*
G01*
G37*
%TD*%
D12*
%TO.C,D101*%
X127679000Y-114564000D03*
G36*
G01*
X123079000Y-115464000D02*
X123079000Y-113664000D01*
G75*
G02*
X123279000Y-113464000I200000J0D01*
G01*
X124879000Y-113464000D01*
G75*
G02*
X125079000Y-113664000I0J-200000D01*
G01*
X125079000Y-115464000D01*
G75*
G02*
X124879000Y-115664000I-200000J0D01*
G01*
X123279000Y-115664000D01*
G75*
G02*
X123079000Y-115464000I0J200000D01*
G01*
G37*
%TD*%
%TO.C,U401*%
G36*
G01*
X131976000Y-101043400D02*
X131676000Y-101043400D01*
G75*
G02*
X131526000Y-100893400I0J150000D01*
G01*
X131526000Y-99243400D01*
G75*
G02*
X131676000Y-99093400I150000J0D01*
G01*
X131976000Y-99093400D01*
G75*
G02*
X132126000Y-99243400I0J-150000D01*
G01*
X132126000Y-100893400D01*
G75*
G02*
X131976000Y-101043400I-150000J0D01*
G01*
G37*
G36*
G01*
X133246000Y-101043400D02*
X132946000Y-101043400D01*
G75*
G02*
X132796000Y-100893400I0J150000D01*
G01*
X132796000Y-99243400D01*
G75*
G02*
X132946000Y-99093400I150000J0D01*
G01*
X133246000Y-99093400D01*
G75*
G02*
X133396000Y-99243400I0J-150000D01*
G01*
X133396000Y-100893400D01*
G75*
G02*
X133246000Y-101043400I-150000J0D01*
G01*
G37*
G36*
G01*
X134516000Y-101043400D02*
X134216000Y-101043400D01*
G75*
G02*
X134066000Y-100893400I0J150000D01*
G01*
X134066000Y-99243400D01*
G75*
G02*
X134216000Y-99093400I150000J0D01*
G01*
X134516000Y-99093400D01*
G75*
G02*
X134666000Y-99243400I0J-150000D01*
G01*
X134666000Y-100893400D01*
G75*
G02*
X134516000Y-101043400I-150000J0D01*
G01*
G37*
G36*
G01*
X135786000Y-101043400D02*
X135486000Y-101043400D01*
G75*
G02*
X135336000Y-100893400I0J150000D01*
G01*
X135336000Y-99243400D01*
G75*
G02*
X135486000Y-99093400I150000J0D01*
G01*
X135786000Y-99093400D01*
G75*
G02*
X135936000Y-99243400I0J-150000D01*
G01*
X135936000Y-100893400D01*
G75*
G02*
X135786000Y-101043400I-150000J0D01*
G01*
G37*
G36*
G01*
X135786000Y-105993400D02*
X135486000Y-105993400D01*
G75*
G02*
X135336000Y-105843400I0J150000D01*
G01*
X135336000Y-104193400D01*
G75*
G02*
X135486000Y-104043400I150000J0D01*
G01*
X135786000Y-104043400D01*
G75*
G02*
X135936000Y-104193400I0J-150000D01*
G01*
X135936000Y-105843400D01*
G75*
G02*
X135786000Y-105993400I-150000J0D01*
G01*
G37*
G36*
G01*
X134516000Y-105993400D02*
X134216000Y-105993400D01*
G75*
G02*
X134066000Y-105843400I0J150000D01*
G01*
X134066000Y-104193400D01*
G75*
G02*
X134216000Y-104043400I150000J0D01*
G01*
X134516000Y-104043400D01*
G75*
G02*
X134666000Y-104193400I0J-150000D01*
G01*
X134666000Y-105843400D01*
G75*
G02*
X134516000Y-105993400I-150000J0D01*
G01*
G37*
G36*
G01*
X133246000Y-105993400D02*
X132946000Y-105993400D01*
G75*
G02*
X132796000Y-105843400I0J150000D01*
G01*
X132796000Y-104193400D01*
G75*
G02*
X132946000Y-104043400I150000J0D01*
G01*
X133246000Y-104043400D01*
G75*
G02*
X133396000Y-104193400I0J-150000D01*
G01*
X133396000Y-105843400D01*
G75*
G02*
X133246000Y-105993400I-150000J0D01*
G01*
G37*
G36*
G01*
X131976000Y-105993400D02*
X131676000Y-105993400D01*
G75*
G02*
X131526000Y-105843400I0J150000D01*
G01*
X131526000Y-104193400D01*
G75*
G02*
X131676000Y-104043400I150000J0D01*
G01*
X131976000Y-104043400D01*
G75*
G02*
X132126000Y-104193400I0J-150000D01*
G01*
X132126000Y-105843400D01*
G75*
G02*
X131976000Y-105993400I-150000J0D01*
G01*
G37*
%TD*%
D13*
%TO.C,U201*%
X137407000Y-115692000D03*
X137407000Y-117592000D03*
X135207000Y-117592000D03*
X135207000Y-116642000D03*
X135207000Y-115692000D03*
%TD*%
%TO.C,U101*%
G36*
G01*
X153051000Y-116425000D02*
X153251000Y-116425000D01*
G75*
G02*
X153351000Y-116525000I0J-100000D01*
G01*
X153351000Y-117800000D01*
G75*
G02*
X153251000Y-117900000I-100000J0D01*
G01*
X153051000Y-117900000D01*
G75*
G02*
X152951000Y-117800000I0J100000D01*
G01*
X152951000Y-116525000D01*
G75*
G02*
X153051000Y-116425000I100000J0D01*
G01*
G37*
G36*
G01*
X152401000Y-116425000D02*
X152601000Y-116425000D01*
G75*
G02*
X152701000Y-116525000I0J-100000D01*
G01*
X152701000Y-117800000D01*
G75*
G02*
X152601000Y-117900000I-100000J0D01*
G01*
X152401000Y-117900000D01*
G75*
G02*
X152301000Y-117800000I0J100000D01*
G01*
X152301000Y-116525000D01*
G75*
G02*
X152401000Y-116425000I100000J0D01*
G01*
G37*
G36*
G01*
X151751000Y-116425000D02*
X151951000Y-116425000D01*
G75*
G02*
X152051000Y-116525000I0J-100000D01*
G01*
X152051000Y-117800000D01*
G75*
G02*
X151951000Y-117900000I-100000J0D01*
G01*
X151751000Y-117900000D01*
G75*
G02*
X151651000Y-117800000I0J100000D01*
G01*
X151651000Y-116525000D01*
G75*
G02*
X151751000Y-116425000I100000J0D01*
G01*
G37*
G36*
G01*
X151101000Y-116425000D02*
X151301000Y-116425000D01*
G75*
G02*
X151401000Y-116525000I0J-100000D01*
G01*
X151401000Y-117800000D01*
G75*
G02*
X151301000Y-117900000I-100000J0D01*
G01*
X151101000Y-117900000D01*
G75*
G02*
X151001000Y-117800000I0J100000D01*
G01*
X151001000Y-116525000D01*
G75*
G02*
X151101000Y-116425000I100000J0D01*
G01*
G37*
G36*
G01*
X150451000Y-116425000D02*
X150651000Y-116425000D01*
G75*
G02*
X150751000Y-116525000I0J-100000D01*
G01*
X150751000Y-117800000D01*
G75*
G02*
X150651000Y-117900000I-100000J0D01*
G01*
X150451000Y-117900000D01*
G75*
G02*
X150351000Y-117800000I0J100000D01*
G01*
X150351000Y-116525000D01*
G75*
G02*
X150451000Y-116425000I100000J0D01*
G01*
G37*
G36*
G01*
X149801000Y-116425000D02*
X150001000Y-116425000D01*
G75*
G02*
X150101000Y-116525000I0J-100000D01*
G01*
X150101000Y-117800000D01*
G75*
G02*
X150001000Y-117900000I-100000J0D01*
G01*
X149801000Y-117900000D01*
G75*
G02*
X149701000Y-117800000I0J100000D01*
G01*
X149701000Y-116525000D01*
G75*
G02*
X149801000Y-116425000I100000J0D01*
G01*
G37*
G36*
G01*
X149151000Y-116425000D02*
X149351000Y-116425000D01*
G75*
G02*
X149451000Y-116525000I0J-100000D01*
G01*
X149451000Y-117800000D01*
G75*
G02*
X149351000Y-117900000I-100000J0D01*
G01*
X149151000Y-117900000D01*
G75*
G02*
X149051000Y-117800000I0J100000D01*
G01*
X149051000Y-116525000D01*
G75*
G02*
X149151000Y-116425000I100000J0D01*
G01*
G37*
G36*
G01*
X148501000Y-116425000D02*
X148701000Y-116425000D01*
G75*
G02*
X148801000Y-116525000I0J-100000D01*
G01*
X148801000Y-117800000D01*
G75*
G02*
X148701000Y-117900000I-100000J0D01*
G01*
X148501000Y-117900000D01*
G75*
G02*
X148401000Y-117800000I0J100000D01*
G01*
X148401000Y-116525000D01*
G75*
G02*
X148501000Y-116425000I100000J0D01*
G01*
G37*
G36*
G01*
X148501000Y-110700000D02*
X148701000Y-110700000D01*
G75*
G02*
X148801000Y-110800000I0J-100000D01*
G01*
X148801000Y-112075000D01*
G75*
G02*
X148701000Y-112175000I-100000J0D01*
G01*
X148501000Y-112175000D01*
G75*
G02*
X148401000Y-112075000I0J100000D01*
G01*
X148401000Y-110800000D01*
G75*
G02*
X148501000Y-110700000I100000J0D01*
G01*
G37*
G36*
G01*
X149151000Y-110700000D02*
X149351000Y-110700000D01*
G75*
G02*
X149451000Y-110800000I0J-100000D01*
G01*
X149451000Y-112075000D01*
G75*
G02*
X149351000Y-112175000I-100000J0D01*
G01*
X149151000Y-112175000D01*
G75*
G02*
X149051000Y-112075000I0J100000D01*
G01*
X149051000Y-110800000D01*
G75*
G02*
X149151000Y-110700000I100000J0D01*
G01*
G37*
G36*
G01*
X149801000Y-110700000D02*
X150001000Y-110700000D01*
G75*
G02*
X150101000Y-110800000I0J-100000D01*
G01*
X150101000Y-112075000D01*
G75*
G02*
X150001000Y-112175000I-100000J0D01*
G01*
X149801000Y-112175000D01*
G75*
G02*
X149701000Y-112075000I0J100000D01*
G01*
X149701000Y-110800000D01*
G75*
G02*
X149801000Y-110700000I100000J0D01*
G01*
G37*
G36*
G01*
X150451000Y-110700000D02*
X150651000Y-110700000D01*
G75*
G02*
X150751000Y-110800000I0J-100000D01*
G01*
X150751000Y-112075000D01*
G75*
G02*
X150651000Y-112175000I-100000J0D01*
G01*
X150451000Y-112175000D01*
G75*
G02*
X150351000Y-112075000I0J100000D01*
G01*
X150351000Y-110800000D01*
G75*
G02*
X150451000Y-110700000I100000J0D01*
G01*
G37*
G36*
G01*
X151101000Y-110700000D02*
X151301000Y-110700000D01*
G75*
G02*
X151401000Y-110800000I0J-100000D01*
G01*
X151401000Y-112075000D01*
G75*
G02*
X151301000Y-112175000I-100000J0D01*
G01*
X151101000Y-112175000D01*
G75*
G02*
X151001000Y-112075000I0J100000D01*
G01*
X151001000Y-110800000D01*
G75*
G02*
X151101000Y-110700000I100000J0D01*
G01*
G37*
G36*
G01*
X151751000Y-110700000D02*
X151951000Y-110700000D01*
G75*
G02*
X152051000Y-110800000I0J-100000D01*
G01*
X152051000Y-112075000D01*
G75*
G02*
X151951000Y-112175000I-100000J0D01*
G01*
X151751000Y-112175000D01*
G75*
G02*
X151651000Y-112075000I0J100000D01*
G01*
X151651000Y-110800000D01*
G75*
G02*
X151751000Y-110700000I100000J0D01*
G01*
G37*
G36*
G01*
X152401000Y-110700000D02*
X152601000Y-110700000D01*
G75*
G02*
X152701000Y-110800000I0J-100000D01*
G01*
X152701000Y-112075000D01*
G75*
G02*
X152601000Y-112175000I-100000J0D01*
G01*
X152401000Y-112175000D01*
G75*
G02*
X152301000Y-112075000I0J100000D01*
G01*
X152301000Y-110800000D01*
G75*
G02*
X152401000Y-110700000I100000J0D01*
G01*
G37*
G36*
G01*
X153051000Y-110700000D02*
X153251000Y-110700000D01*
G75*
G02*
X153351000Y-110800000I0J-100000D01*
G01*
X153351000Y-112075000D01*
G75*
G02*
X153251000Y-112175000I-100000J0D01*
G01*
X153051000Y-112175000D01*
G75*
G02*
X152951000Y-112075000I0J100000D01*
G01*
X152951000Y-110800000D01*
G75*
G02*
X153051000Y-110700000I100000J0D01*
G01*
G37*
%TD*%
D14*
%TO.C,R407*%
X142113000Y-109497500D03*
X142113000Y-107672500D03*
%TD*%
%TO.C,R406*%
X138049000Y-109497500D03*
X138049000Y-107672500D03*
%TD*%
%TO.C,R405*%
X136017000Y-109497500D03*
X136017000Y-107672500D03*
%TD*%
%TO.C,R404*%
X133985000Y-107672500D03*
X133985000Y-109497500D03*
%TD*%
%TO.C,R403*%
X137795000Y-99671500D03*
X137795000Y-101496500D03*
%TD*%
%TO.C,R402*%
X129921000Y-107672500D03*
X129921000Y-109497500D03*
%TD*%
%TO.C,R401*%
X131953000Y-109497500D03*
X131953000Y-107672500D03*
%TD*%
D10*
%TO.C,R301*%
X147851500Y-100431600D03*
X146026500Y-100431600D03*
%TD*%
D14*
%TO.C,R201*%
X133096000Y-118387500D03*
X133096000Y-116562500D03*
%TD*%
D10*
%TO.C,R106*%
X150877900Y-105079800D03*
X152702900Y-105079800D03*
%TD*%
D14*
%TO.C,R105*%
X154686000Y-97432500D03*
X154686000Y-95607500D03*
%TD*%
%TO.C,R104*%
X158496000Y-95607500D03*
X158496000Y-97432500D03*
%TD*%
D10*
%TO.C,R103*%
X155043500Y-111379000D03*
X156868500Y-111379000D03*
%TD*%
D14*
%TO.C,R102*%
X162052000Y-115038500D03*
X162052000Y-116863500D03*
%TD*%
D10*
%TO.C,R101*%
X124817500Y-111506000D03*
X126642500Y-111506000D03*
%TD*%
D15*
%TO.C,Q301*%
X148775800Y-100361400D03*
D16*
X149925800Y-100361400D03*
X148625800Y-102381400D03*
X149925800Y-102381400D03*
%TD*%
D10*
%TO.C,L303*%
X146026500Y-102311200D03*
X147851500Y-102311200D03*
%TD*%
D14*
%TO.C,L302*%
X150114000Y-98550100D03*
X150114000Y-96725100D03*
%TD*%
D10*
%TO.C,L301*%
X153494100Y-100431600D03*
X155319100Y-100431600D03*
%TD*%
D17*
%TO.C,J103*%
X164788000Y-100522000D03*
X164788000Y-109282000D03*
D18*
X164788000Y-104902000D03*
%TD*%
D19*
%TO.C,D301*%
X152527000Y-96889800D03*
X152527000Y-95489800D03*
%TD*%
D14*
%TO.C,C403*%
X140081000Y-107672500D03*
X140081000Y-109497500D03*
%TD*%
D10*
%TO.C,C402*%
X131294500Y-97536000D03*
X133119500Y-97536000D03*
%TD*%
D14*
%TO.C,C401*%
X137795000Y-105433500D03*
X137795000Y-103608500D03*
%TD*%
%TO.C,C307*%
X149936200Y-103252900D03*
X149936200Y-105077900D03*
%TD*%
%TO.C,C306*%
X148463000Y-103252900D03*
X148463000Y-105077900D03*
%TD*%
D10*
%TO.C,C305*%
X145493100Y-99491800D03*
X147318100Y-99491800D03*
%TD*%
%TO.C,C304*%
X148289000Y-99491800D03*
X150114000Y-99491800D03*
%TD*%
%TO.C,C303*%
X147347300Y-96723200D03*
X149172300Y-96723200D03*
%TD*%
%TO.C,C302*%
X152525100Y-100431600D03*
X150700100Y-100431600D03*
%TD*%
D14*
%TO.C,C301*%
X152527000Y-97664900D03*
X152527000Y-99489900D03*
%TD*%
D10*
%TO.C,C202*%
X135358500Y-113538000D03*
X137183500Y-113538000D03*
%TD*%
D14*
%TO.C,C201*%
X133096000Y-112625500D03*
X133096000Y-114450500D03*
%TD*%
%TO.C,C110*%
X149936200Y-107871900D03*
X149936200Y-106046900D03*
%TD*%
%TO.C,C109*%
X160401000Y-95607500D03*
X160401000Y-97432500D03*
%TD*%
%TO.C,C108*%
X156591000Y-97432500D03*
X156591000Y-95607500D03*
%TD*%
D10*
%TO.C,C107*%
X153820500Y-108839000D03*
X151995500Y-108839000D03*
%TD*%
%TO.C,C106*%
X155090500Y-121285000D03*
X153265500Y-121285000D03*
%TD*%
%TO.C,C105*%
X155090500Y-119380000D03*
X153265500Y-119380000D03*
%TD*%
%TO.C,C104*%
X144629500Y-109601000D03*
X146454500Y-109601000D03*
%TD*%
%TO.C,C103*%
X144629500Y-107569000D03*
X146454500Y-107569000D03*
%TD*%
%TO.C,C102*%
X149455500Y-119380000D03*
X151280500Y-119380000D03*
%TD*%
%TO.C,C101*%
X149455500Y-121285000D03*
X151280500Y-121285000D03*
%TD*%
M02*
