M48
; DRILL file {KiCad (5.1.6-0-10_14)} date Friday, November 26, 2021 at 10:59:49 PM
; FORMAT={-:-/ absolute / inch / decimal}
; #@! TF.CreationDate,2021-11-26T22:59:49-06:00
; #@! TF.GenerationSoftware,Kicad,Pcbnew,(5.1.6-0-10_14)
; #@! TF.FileFunction,Plated,1,4,PTH
FMAT,2
INCH
T1C0.0157
T2C0.0181
T3C0.0276
T4C0.0315
T5C0.0394
T6C0.0433
T7C0.0866
%
G90
G05
T1
X4.94Y-4.515
X5.025Y-4.39
X5.115Y-4.355
X5.125Y-3.84
X5.195Y-4.355
X5.24Y-4.39
X5.275Y-4.355
X5.285Y-4.47
X5.325Y-4.6604
X5.34Y-4.195
X5.435Y-4.355
X5.445Y-4.47
X5.595Y-4.355
X5.65Y-4.235
X5.65Y-4.315
X5.699Y-3.917
X5.72Y-3.954
X5.7659Y-4.2709
X5.772Y-3.808
X5.845Y-4.166
X5.8586Y-4.665
X5.8841Y-4.8191
X5.885Y-4.735
X5.9063Y-4.5606
X5.925Y-4.45
X5.925Y-4.66
X5.9488Y-4.5598
X5.966Y-4.4506
X6.005Y-3.736
X6.0091Y-4.4463
X6.041Y-4.137
X6.0585Y-4.5694
X6.086Y-4.285
X6.09Y-3.715
X6.0906Y-4.5694
X6.1059Y-4.8159
X6.11Y-4.735
X6.144Y-3.954
X6.165Y-3.865
X6.22Y-4.385
X6.316Y-3.72
X6.325Y-4.615
X6.505Y-4.705
X4.845Y-4.86
X4.8641Y-4.8141
X4.8641Y-4.9059
X4.91Y-4.795
X4.91Y-4.925
X4.9559Y-4.8141
X4.9559Y-4.9059
X4.975Y-4.86
X4.845Y-3.78
X4.8641Y-3.7341
X4.8641Y-3.8259
X4.91Y-3.715
X4.91Y-3.845
X4.9559Y-3.7341
X4.9559Y-3.8259
X4.975Y-3.78
X6.425Y-4.86
X6.4441Y-4.8141
X6.4441Y-4.9059
X6.49Y-4.795
X6.49Y-4.925
X6.5359Y-4.8141
X6.5359Y-4.9059
X6.555Y-4.86
X6.425Y-3.78
X6.4441Y-3.7341
X6.4441Y-3.8259
X6.49Y-3.715
X6.49Y-3.845
X6.5359Y-3.7341
X6.5359Y-3.8259
X6.555Y-3.78
T2
X6.3523Y-3.9576
X6.3523Y-4.3024
T3
X5.57Y-4.9
X6.205Y-4.735
X6.31Y-4.45
T4
X5.57Y-4.49
X5.57Y-4.59
X5.57Y-4.69
T5
X5.73Y-4.9
X5.83Y-4.9
X5.93Y-4.9
X6.03Y-4.9
T6
X4.945Y-4.01
X4.945Y-4.11
T7
X4.91Y-4.86
X4.91Y-3.78
X6.49Y-4.86
X6.49Y-3.78
T0
M30
