%TF.GenerationSoftware,KiCad,Pcbnew,(5.1.6-0-10_14)*%
%TF.CreationDate,2021-11-28T10:34:50-06:00*%
%TF.ProjectId,EE514 Project,45453531-3420-4507-926f-6a6563742e6b,rev?*%
%TF.SameCoordinates,Original*%
%TF.FileFunction,Copper,L1,Top*%
%TF.FilePolarity,Positive*%
%FSLAX46Y46*%
G04 Gerber Fmt 4.6, Leading zero omitted, Abs format (unit mm)*
G04 Created by KiCad (PCBNEW (5.1.6-0-10_14)) date 2021-11-28 10:34:50*
%MOMM*%
%LPD*%
G01*
G04 APERTURE LIST*
%TA.AperFunction,EtchedComponent*%
%ADD10C,0.100000*%
%TD*%
%TA.AperFunction,SMDPad,CuDef*%
%ADD11R,0.975000X0.950000*%
%TD*%
%TA.AperFunction,SMDPad,CuDef*%
%ADD12R,2.200000X2.000000*%
%TD*%
%TA.AperFunction,ComponentPad*%
%ADD13O,1.700000X1.700000*%
%TD*%
%TA.AperFunction,ComponentPad*%
%ADD14R,1.700000X1.700000*%
%TD*%
%TA.AperFunction,ComponentPad*%
%ADD15C,0.700000*%
%TD*%
%TA.AperFunction,ComponentPad*%
%ADD16C,4.400000*%
%TD*%
%TA.AperFunction,SMDPad,CuDef*%
%ADD17R,2.000000X2.200000*%
%TD*%
%TA.AperFunction,ComponentPad*%
%ADD18C,1.500000*%
%TD*%
%TA.AperFunction,SMDPad,CuDef*%
%ADD19R,1.060000X0.650000*%
%TD*%
%TA.AperFunction,ComponentPad*%
%ADD20R,1.440000X1.440000*%
%TD*%
%TA.AperFunction,ComponentPad*%
%ADD21C,1.440000*%
%TD*%
%TA.AperFunction,SMDPad,CuDef*%
%ADD22R,0.950000X0.975000*%
%TD*%
%TA.AperFunction,SMDPad,CuDef*%
%ADD23R,0.900000X0.800000*%
%TD*%
%TA.AperFunction,SMDPad,CuDef*%
%ADD24R,0.600000X0.800000*%
%TD*%
%TA.AperFunction,SMDPad,CuDef*%
%ADD25C,0.100000*%
%TD*%
%TA.AperFunction,Conductor*%
%ADD26R,0.950000X0.460000*%
%TD*%
%TA.AperFunction,ViaPad*%
%ADD27C,0.970000*%
%TD*%
%TA.AperFunction,SMDPad,CuDef*%
%ADD28R,5.080000X2.420000*%
%TD*%
%TA.AperFunction,SMDPad,CuDef*%
%ADD29R,5.080000X2.290000*%
%TD*%
%TA.AperFunction,ComponentPad*%
%ADD30C,2.100000*%
%TD*%
%TA.AperFunction,ComponentPad*%
%ADD31R,2.100000X2.100000*%
%TD*%
%TA.AperFunction,SMDPad,CuDef*%
%ADD32R,0.700000X0.600000*%
%TD*%
%TA.AperFunction,ViaPad*%
%ADD33C,0.800000*%
%TD*%
%TA.AperFunction,Conductor*%
%ADD34C,0.304800*%
%TD*%
%TA.AperFunction,Conductor*%
%ADD35C,0.355600*%
%TD*%
%TA.AperFunction,Conductor*%
%ADD36C,0.200152*%
%TD*%
%TA.AperFunction,Conductor*%
%ADD37C,0.254000*%
%TD*%
%TA.AperFunction,Conductor*%
%ADD38C,0.101600*%
%TD*%
G04 APERTURE END LIST*
D10*
%TO.C,JP102*%
G36*
X155756000Y-116463000D02*
G01*
X155756000Y-116963000D01*
X155356000Y-116963000D01*
X155356000Y-116463000D01*
X155756000Y-116463000D01*
G37*
G36*
X156556000Y-116463000D02*
G01*
X156556000Y-116963000D01*
X156156000Y-116963000D01*
X156156000Y-116463000D01*
X156556000Y-116463000D01*
G37*
%TO.C,JP101*%
G36*
X159331000Y-116963000D02*
G01*
X159331000Y-116463000D01*
X159731000Y-116463000D01*
X159731000Y-116963000D01*
X159331000Y-116963000D01*
G37*
G36*
X158531000Y-116963000D02*
G01*
X158531000Y-116463000D01*
X158931000Y-116463000D01*
X158931000Y-116963000D01*
X158531000Y-116963000D01*
G37*
%TD*%
D11*
%TO.P,C111,2*%
%TO.N,/Reference Oscillator/10MHz_REF_OUT*%
X145137500Y-112522000D03*
%TO.P,C111,1*%
%TO.N,Net-(C111-Pad1)*%
X146962500Y-112522000D03*
%TD*%
D12*
%TO.P,D102,2*%
%TO.N,Net-(D102-Pad2)*%
X165237000Y-114256000D03*
%TO.P,D102,1*%
%TO.N,GND*%
%TA.AperFunction,SMDPad,CuDef*%
G36*
G01*
X166137000Y-118856000D02*
X164337000Y-118856000D01*
G75*
G02*
X164137000Y-118656000I0J200000D01*
G01*
X164137000Y-117056000D01*
G75*
G02*
X164337000Y-116856000I200000J0D01*
G01*
X166137000Y-116856000D01*
G75*
G02*
X166337000Y-117056000I0J-200000D01*
G01*
X166337000Y-118656000D01*
G75*
G02*
X166137000Y-118856000I-200000J0D01*
G01*
G37*
%TD.AperFunction*%
%TD*%
D13*
%TO.P,J102,4*%
%TO.N,/LE_PLL*%
X153162000Y-124460000D03*
%TO.P,J102,3*%
%TO.N,/DATA_PLL*%
X150622000Y-124460000D03*
%TO.P,J102,2*%
%TO.N,/CLK_PLL*%
X148082000Y-124460000D03*
D14*
%TO.P,J102,1*%
%TO.N,GND*%
X145542000Y-124460000D03*
%TD*%
D15*
%TO.P,H104,1*%
%TO.N,GND*%
X166012726Y-94845274D03*
X164846000Y-94362000D03*
X163679274Y-94845274D03*
X163196000Y-96012000D03*
X163679274Y-97178726D03*
X164846000Y-97662000D03*
X166012726Y-97178726D03*
X166496000Y-96012000D03*
D16*
X164846000Y-96012000D03*
%TD*%
D15*
%TO.P,H103,1*%
%TO.N,GND*%
X166012726Y-122277274D03*
X164846000Y-121794000D03*
X163679274Y-122277274D03*
X163196000Y-123444000D03*
X163679274Y-124610726D03*
X164846000Y-125094000D03*
X166012726Y-124610726D03*
X166496000Y-123444000D03*
D16*
X164846000Y-123444000D03*
%TD*%
D15*
%TO.P,H102,1*%
%TO.N,GND*%
X125880726Y-122277274D03*
X124714000Y-121794000D03*
X123547274Y-122277274D03*
X123064000Y-123444000D03*
X123547274Y-124610726D03*
X124714000Y-125094000D03*
X125880726Y-124610726D03*
X126364000Y-123444000D03*
D16*
X124714000Y-123444000D03*
%TD*%
D15*
%TO.P,H101,1*%
%TO.N,GND*%
X125880726Y-94845274D03*
X124714000Y-94362000D03*
X123547274Y-94845274D03*
X123064000Y-96012000D03*
X123547274Y-97178726D03*
X124714000Y-97662000D03*
X125880726Y-97178726D03*
X126364000Y-96012000D03*
D16*
X124714000Y-96012000D03*
%TD*%
D17*
%TO.P,D101,2*%
%TO.N,Net-(D101-Pad2)*%
X127679000Y-114564000D03*
%TO.P,D101,1*%
%TO.N,GND*%
%TA.AperFunction,SMDPad,CuDef*%
G36*
G01*
X123079000Y-115464000D02*
X123079000Y-113664000D01*
G75*
G02*
X123279000Y-113464000I200000J0D01*
G01*
X124879000Y-113464000D01*
G75*
G02*
X125079000Y-113664000I0J-200000D01*
G01*
X125079000Y-115464000D01*
G75*
G02*
X124879000Y-115664000I-200000J0D01*
G01*
X123279000Y-115664000D01*
G75*
G02*
X123079000Y-115464000I0J200000D01*
G01*
G37*
%TD.AperFunction*%
%TD*%
D18*
%TO.P,TP201,1*%
%TO.N,/Reference Oscillator/10MHz_REF_OUT*%
X141478000Y-124460000D03*
%TD*%
%TO.P,U401,8*%
%TO.N,Net-(U401-Pad8)*%
%TA.AperFunction,SMDPad,CuDef*%
G36*
G01*
X131976000Y-101043400D02*
X131676000Y-101043400D01*
G75*
G02*
X131526000Y-100893400I0J150000D01*
G01*
X131526000Y-99243400D01*
G75*
G02*
X131676000Y-99093400I150000J0D01*
G01*
X131976000Y-99093400D01*
G75*
G02*
X132126000Y-99243400I0J-150000D01*
G01*
X132126000Y-100893400D01*
G75*
G02*
X131976000Y-101043400I-150000J0D01*
G01*
G37*
%TD.AperFunction*%
%TO.P,U401,7*%
%TO.N,+5V*%
%TA.AperFunction,SMDPad,CuDef*%
G36*
G01*
X133246000Y-101043400D02*
X132946000Y-101043400D01*
G75*
G02*
X132796000Y-100893400I0J150000D01*
G01*
X132796000Y-99243400D01*
G75*
G02*
X132946000Y-99093400I150000J0D01*
G01*
X133246000Y-99093400D01*
G75*
G02*
X133396000Y-99243400I0J-150000D01*
G01*
X133396000Y-100893400D01*
G75*
G02*
X133246000Y-101043400I-150000J0D01*
G01*
G37*
%TD.AperFunction*%
%TO.P,U401,6*%
%TO.N,Net-(C401-Pad1)*%
%TA.AperFunction,SMDPad,CuDef*%
G36*
G01*
X134516000Y-101043400D02*
X134216000Y-101043400D01*
G75*
G02*
X134066000Y-100893400I0J150000D01*
G01*
X134066000Y-99243400D01*
G75*
G02*
X134216000Y-99093400I150000J0D01*
G01*
X134516000Y-99093400D01*
G75*
G02*
X134666000Y-99243400I0J-150000D01*
G01*
X134666000Y-100893400D01*
G75*
G02*
X134516000Y-101043400I-150000J0D01*
G01*
G37*
%TD.AperFunction*%
%TO.P,U401,5*%
%TO.N,Net-(U401-Pad5)*%
%TA.AperFunction,SMDPad,CuDef*%
G36*
G01*
X135786000Y-101043400D02*
X135486000Y-101043400D01*
G75*
G02*
X135336000Y-100893400I0J150000D01*
G01*
X135336000Y-99243400D01*
G75*
G02*
X135486000Y-99093400I150000J0D01*
G01*
X135786000Y-99093400D01*
G75*
G02*
X135936000Y-99243400I0J-150000D01*
G01*
X135936000Y-100893400D01*
G75*
G02*
X135786000Y-101043400I-150000J0D01*
G01*
G37*
%TD.AperFunction*%
%TO.P,U401,4*%
%TO.N,GND*%
%TA.AperFunction,SMDPad,CuDef*%
G36*
G01*
X135786000Y-105993400D02*
X135486000Y-105993400D01*
G75*
G02*
X135336000Y-105843400I0J150000D01*
G01*
X135336000Y-104193400D01*
G75*
G02*
X135486000Y-104043400I150000J0D01*
G01*
X135786000Y-104043400D01*
G75*
G02*
X135936000Y-104193400I0J-150000D01*
G01*
X135936000Y-105843400D01*
G75*
G02*
X135786000Y-105993400I-150000J0D01*
G01*
G37*
%TD.AperFunction*%
%TO.P,U401,3*%
%TO.N,Net-(R404-Pad1)*%
%TA.AperFunction,SMDPad,CuDef*%
G36*
G01*
X134516000Y-105993400D02*
X134216000Y-105993400D01*
G75*
G02*
X134066000Y-105843400I0J150000D01*
G01*
X134066000Y-104193400D01*
G75*
G02*
X134216000Y-104043400I150000J0D01*
G01*
X134516000Y-104043400D01*
G75*
G02*
X134666000Y-104193400I0J-150000D01*
G01*
X134666000Y-105843400D01*
G75*
G02*
X134516000Y-105993400I-150000J0D01*
G01*
G37*
%TD.AperFunction*%
%TO.P,U401,2*%
%TO.N,Net-(C401-Pad2)*%
%TA.AperFunction,SMDPad,CuDef*%
G36*
G01*
X133246000Y-105993400D02*
X132946000Y-105993400D01*
G75*
G02*
X132796000Y-105843400I0J150000D01*
G01*
X132796000Y-104193400D01*
G75*
G02*
X132946000Y-104043400I150000J0D01*
G01*
X133246000Y-104043400D01*
G75*
G02*
X133396000Y-104193400I0J-150000D01*
G01*
X133396000Y-105843400D01*
G75*
G02*
X133246000Y-105993400I-150000J0D01*
G01*
G37*
%TD.AperFunction*%
%TO.P,U401,1*%
%TO.N,Net-(U401-Pad1)*%
%TA.AperFunction,SMDPad,CuDef*%
G36*
G01*
X131976000Y-105993400D02*
X131676000Y-105993400D01*
G75*
G02*
X131526000Y-105843400I0J150000D01*
G01*
X131526000Y-104193400D01*
G75*
G02*
X131676000Y-104043400I150000J0D01*
G01*
X131976000Y-104043400D01*
G75*
G02*
X132126000Y-104193400I0J-150000D01*
G01*
X132126000Y-105843400D01*
G75*
G02*
X131976000Y-105993400I-150000J0D01*
G01*
G37*
%TD.AperFunction*%
%TD*%
D19*
%TO.P,U201,5*%
%TO.N,+5V*%
X137407000Y-115692000D03*
%TO.P,U201,4*%
%TO.N,/Reference Oscillator/10MHz_REF_OUT*%
X137407000Y-117592000D03*
%TO.P,U201,3*%
%TO.N,GND*%
X135207000Y-117592000D03*
%TO.P,U201,2*%
%TO.N,Net-(C201-Pad1)*%
X135207000Y-116642000D03*
%TO.P,U201,1*%
%TO.N,Net-(U201-Pad1)*%
X135207000Y-115692000D03*
%TD*%
%TO.P,U101,16*%
%TO.N,/Vp*%
%TA.AperFunction,SMDPad,CuDef*%
G36*
G01*
X153051000Y-116425000D02*
X153251000Y-116425000D01*
G75*
G02*
X153351000Y-116525000I0J-100000D01*
G01*
X153351000Y-117800000D01*
G75*
G02*
X153251000Y-117900000I-100000J0D01*
G01*
X153051000Y-117900000D01*
G75*
G02*
X152951000Y-117800000I0J100000D01*
G01*
X152951000Y-116525000D01*
G75*
G02*
X153051000Y-116425000I100000J0D01*
G01*
G37*
%TD.AperFunction*%
%TO.P,U101,15*%
%TO.N,+5V*%
%TA.AperFunction,SMDPad,CuDef*%
G36*
G01*
X152401000Y-116425000D02*
X152601000Y-116425000D01*
G75*
G02*
X152701000Y-116525000I0J-100000D01*
G01*
X152701000Y-117800000D01*
G75*
G02*
X152601000Y-117900000I-100000J0D01*
G01*
X152401000Y-117900000D01*
G75*
G02*
X152301000Y-117800000I0J100000D01*
G01*
X152301000Y-116525000D01*
G75*
G02*
X152401000Y-116425000I100000J0D01*
G01*
G37*
%TD.AperFunction*%
%TO.P,U101,14*%
%TO.N,/LOCKED*%
%TA.AperFunction,SMDPad,CuDef*%
G36*
G01*
X151751000Y-116425000D02*
X151951000Y-116425000D01*
G75*
G02*
X152051000Y-116525000I0J-100000D01*
G01*
X152051000Y-117800000D01*
G75*
G02*
X151951000Y-117900000I-100000J0D01*
G01*
X151751000Y-117900000D01*
G75*
G02*
X151651000Y-117800000I0J100000D01*
G01*
X151651000Y-116525000D01*
G75*
G02*
X151751000Y-116425000I100000J0D01*
G01*
G37*
%TD.AperFunction*%
%TO.P,U101,13*%
%TO.N,/LE_PLL*%
%TA.AperFunction,SMDPad,CuDef*%
G36*
G01*
X151101000Y-116425000D02*
X151301000Y-116425000D01*
G75*
G02*
X151401000Y-116525000I0J-100000D01*
G01*
X151401000Y-117800000D01*
G75*
G02*
X151301000Y-117900000I-100000J0D01*
G01*
X151101000Y-117900000D01*
G75*
G02*
X151001000Y-117800000I0J100000D01*
G01*
X151001000Y-116525000D01*
G75*
G02*
X151101000Y-116425000I100000J0D01*
G01*
G37*
%TD.AperFunction*%
%TO.P,U101,12*%
%TO.N,/DATA_PLL*%
%TA.AperFunction,SMDPad,CuDef*%
G36*
G01*
X150451000Y-116425000D02*
X150651000Y-116425000D01*
G75*
G02*
X150751000Y-116525000I0J-100000D01*
G01*
X150751000Y-117800000D01*
G75*
G02*
X150651000Y-117900000I-100000J0D01*
G01*
X150451000Y-117900000D01*
G75*
G02*
X150351000Y-117800000I0J100000D01*
G01*
X150351000Y-116525000D01*
G75*
G02*
X150451000Y-116425000I100000J0D01*
G01*
G37*
%TD.AperFunction*%
%TO.P,U101,11*%
%TO.N,/CLK_PLL*%
%TA.AperFunction,SMDPad,CuDef*%
G36*
G01*
X149801000Y-116425000D02*
X150001000Y-116425000D01*
G75*
G02*
X150101000Y-116525000I0J-100000D01*
G01*
X150101000Y-117800000D01*
G75*
G02*
X150001000Y-117900000I-100000J0D01*
G01*
X149801000Y-117900000D01*
G75*
G02*
X149701000Y-117800000I0J100000D01*
G01*
X149701000Y-116525000D01*
G75*
G02*
X149801000Y-116425000I100000J0D01*
G01*
G37*
%TD.AperFunction*%
%TO.P,U101,10*%
%TO.N,Net-(JP101-Pad2)*%
%TA.AperFunction,SMDPad,CuDef*%
G36*
G01*
X149151000Y-116425000D02*
X149351000Y-116425000D01*
G75*
G02*
X149451000Y-116525000I0J-100000D01*
G01*
X149451000Y-117800000D01*
G75*
G02*
X149351000Y-117900000I-100000J0D01*
G01*
X149151000Y-117900000D01*
G75*
G02*
X149051000Y-117800000I0J100000D01*
G01*
X149051000Y-116525000D01*
G75*
G02*
X149151000Y-116425000I100000J0D01*
G01*
G37*
%TD.AperFunction*%
%TO.P,U101,9*%
%TO.N,GND*%
%TA.AperFunction,SMDPad,CuDef*%
G36*
G01*
X148501000Y-116425000D02*
X148701000Y-116425000D01*
G75*
G02*
X148801000Y-116525000I0J-100000D01*
G01*
X148801000Y-117800000D01*
G75*
G02*
X148701000Y-117900000I-100000J0D01*
G01*
X148501000Y-117900000D01*
G75*
G02*
X148401000Y-117800000I0J100000D01*
G01*
X148401000Y-116525000D01*
G75*
G02*
X148501000Y-116425000I100000J0D01*
G01*
G37*
%TD.AperFunction*%
%TO.P,U101,8*%
%TO.N,Net-(C111-Pad1)*%
%TA.AperFunction,SMDPad,CuDef*%
G36*
G01*
X148501000Y-110700000D02*
X148701000Y-110700000D01*
G75*
G02*
X148801000Y-110800000I0J-100000D01*
G01*
X148801000Y-112075000D01*
G75*
G02*
X148701000Y-112175000I-100000J0D01*
G01*
X148501000Y-112175000D01*
G75*
G02*
X148401000Y-112075000I0J100000D01*
G01*
X148401000Y-110800000D01*
G75*
G02*
X148501000Y-110700000I100000J0D01*
G01*
G37*
%TD.AperFunction*%
%TO.P,U101,7*%
%TO.N,+5V*%
%TA.AperFunction,SMDPad,CuDef*%
G36*
G01*
X149151000Y-110700000D02*
X149351000Y-110700000D01*
G75*
G02*
X149451000Y-110800000I0J-100000D01*
G01*
X149451000Y-112075000D01*
G75*
G02*
X149351000Y-112175000I-100000J0D01*
G01*
X149151000Y-112175000D01*
G75*
G02*
X149051000Y-112075000I0J100000D01*
G01*
X149051000Y-110800000D01*
G75*
G02*
X149151000Y-110700000I100000J0D01*
G01*
G37*
%TD.AperFunction*%
%TO.P,U101,6*%
%TO.N,Net-(C110-Pad2)*%
%TA.AperFunction,SMDPad,CuDef*%
G36*
G01*
X149801000Y-110700000D02*
X150001000Y-110700000D01*
G75*
G02*
X150101000Y-110800000I0J-100000D01*
G01*
X150101000Y-112075000D01*
G75*
G02*
X150001000Y-112175000I-100000J0D01*
G01*
X149801000Y-112175000D01*
G75*
G02*
X149701000Y-112075000I0J100000D01*
G01*
X149701000Y-110800000D01*
G75*
G02*
X149801000Y-110700000I100000J0D01*
G01*
G37*
%TD.AperFunction*%
%TO.P,U101,5*%
%TO.N,Net-(C107-Pad1)*%
%TA.AperFunction,SMDPad,CuDef*%
G36*
G01*
X150451000Y-110700000D02*
X150651000Y-110700000D01*
G75*
G02*
X150751000Y-110800000I0J-100000D01*
G01*
X150751000Y-112075000D01*
G75*
G02*
X150651000Y-112175000I-100000J0D01*
G01*
X150451000Y-112175000D01*
G75*
G02*
X150351000Y-112075000I0J100000D01*
G01*
X150351000Y-110800000D01*
G75*
G02*
X150451000Y-110700000I100000J0D01*
G01*
G37*
%TD.AperFunction*%
%TO.P,U101,4*%
%TO.N,GND*%
%TA.AperFunction,SMDPad,CuDef*%
G36*
G01*
X151101000Y-110700000D02*
X151301000Y-110700000D01*
G75*
G02*
X151401000Y-110800000I0J-100000D01*
G01*
X151401000Y-112075000D01*
G75*
G02*
X151301000Y-112175000I-100000J0D01*
G01*
X151101000Y-112175000D01*
G75*
G02*
X151001000Y-112075000I0J100000D01*
G01*
X151001000Y-110800000D01*
G75*
G02*
X151101000Y-110700000I100000J0D01*
G01*
G37*
%TD.AperFunction*%
%TO.P,U101,3*%
%TA.AperFunction,SMDPad,CuDef*%
G36*
G01*
X151751000Y-110700000D02*
X151951000Y-110700000D01*
G75*
G02*
X152051000Y-110800000I0J-100000D01*
G01*
X152051000Y-112075000D01*
G75*
G02*
X151951000Y-112175000I-100000J0D01*
G01*
X151751000Y-112175000D01*
G75*
G02*
X151651000Y-112075000I0J100000D01*
G01*
X151651000Y-110800000D01*
G75*
G02*
X151751000Y-110700000I100000J0D01*
G01*
G37*
%TD.AperFunction*%
%TO.P,U101,2*%
%TO.N,/CP_OUT*%
%TA.AperFunction,SMDPad,CuDef*%
G36*
G01*
X152401000Y-110700000D02*
X152601000Y-110700000D01*
G75*
G02*
X152701000Y-110800000I0J-100000D01*
G01*
X152701000Y-112075000D01*
G75*
G02*
X152601000Y-112175000I-100000J0D01*
G01*
X152401000Y-112175000D01*
G75*
G02*
X152301000Y-112075000I0J100000D01*
G01*
X152301000Y-110800000D01*
G75*
G02*
X152401000Y-110700000I100000J0D01*
G01*
G37*
%TD.AperFunction*%
%TO.P,U101,1*%
%TO.N,Net-(R103-Pad1)*%
%TA.AperFunction,SMDPad,CuDef*%
G36*
G01*
X153051000Y-110700000D02*
X153251000Y-110700000D01*
G75*
G02*
X153351000Y-110800000I0J-100000D01*
G01*
X153351000Y-112075000D01*
G75*
G02*
X153251000Y-112175000I-100000J0D01*
G01*
X153051000Y-112175000D01*
G75*
G02*
X152951000Y-112075000I0J100000D01*
G01*
X152951000Y-110800000D01*
G75*
G02*
X153051000Y-110700000I100000J0D01*
G01*
G37*
%TD.AperFunction*%
%TD*%
D18*
%TO.P,TP102,1*%
%TO.N,/Vp*%
X157607000Y-120269000D03*
%TD*%
%TO.P,TP101,1*%
%TO.N,Net-(D102-Pad2)*%
X160274000Y-113030000D03*
%TD*%
D20*
%TO.P,RV201,1*%
%TO.N,/Reference Oscillator/10MHz_REF_OUT*%
X141478000Y-114046000D03*
D21*
%TO.P,RV201,2*%
X141478000Y-116586000D03*
%TO.P,RV201,3*%
%TO.N,Net-(R201-Pad1)*%
X141478000Y-119126000D03*
%TD*%
D22*
%TO.P,R407,1*%
%TO.N,+5V*%
X142113000Y-109497500D03*
%TO.P,R407,2*%
%TO.N,Net-(C403-Pad1)*%
X142113000Y-107672500D03*
%TD*%
%TO.P,R406,1*%
%TO.N,+5V*%
X138049000Y-109497500D03*
%TO.P,R406,2*%
%TO.N,/VCO/Bias Regulator/V_BIAS_COLLECTOR*%
X138049000Y-107672500D03*
%TD*%
%TO.P,R405,1*%
%TO.N,/VCO/Bias Regulator/V_BIAS_COLLECTOR*%
X136017000Y-109497500D03*
%TO.P,R405,2*%
%TO.N,Net-(R404-Pad1)*%
X136017000Y-107672500D03*
%TD*%
%TO.P,R404,1*%
%TO.N,Net-(R404-Pad1)*%
X133985000Y-107672500D03*
%TO.P,R404,2*%
%TO.N,GND*%
X133985000Y-109497500D03*
%TD*%
%TO.P,R403,1*%
%TO.N,/VCO/V_BIAS_BASE*%
X137795000Y-99671500D03*
%TO.P,R403,2*%
%TO.N,Net-(C401-Pad1)*%
X137795000Y-101496500D03*
%TD*%
%TO.P,R402,1*%
%TO.N,Net-(C401-Pad2)*%
X129921000Y-107672500D03*
%TO.P,R402,2*%
%TO.N,GND*%
X129921000Y-109497500D03*
%TD*%
%TO.P,R401,1*%
%TO.N,+5V*%
X131953000Y-109497500D03*
%TO.P,R401,2*%
%TO.N,Net-(C401-Pad2)*%
X131953000Y-107672500D03*
%TD*%
D11*
%TO.P,R301,1*%
%TO.N,Net-(C304-Pad2)*%
X147851500Y-100431600D03*
%TO.P,R301,2*%
%TO.N,GND*%
X146026500Y-100431600D03*
%TD*%
D22*
%TO.P,R201,1*%
%TO.N,Net-(R201-Pad1)*%
X133096000Y-118387500D03*
%TO.P,R201,2*%
%TO.N,Net-(C201-Pad1)*%
X133096000Y-116562500D03*
%TD*%
D11*
%TO.P,R106,1*%
%TO.N,/RF_OUT*%
X150877900Y-105079800D03*
%TO.P,R106,2*%
%TO.N,GND*%
X152702900Y-105079800D03*
%TD*%
D22*
%TO.P,R105,1*%
%TO.N,/V_TUNE*%
X154686000Y-97432500D03*
%TO.P,R105,2*%
%TO.N,/CP_OUT*%
X154686000Y-95607500D03*
%TD*%
%TO.P,R104,1*%
%TO.N,/CP_OUT*%
X158496000Y-95607500D03*
%TO.P,R104,2*%
%TO.N,Net-(C109-Pad1)*%
X158496000Y-97432500D03*
%TD*%
D11*
%TO.P,R103,1*%
%TO.N,Net-(R103-Pad1)*%
X155043500Y-111379000D03*
%TO.P,R103,2*%
%TO.N,GND*%
X156868500Y-111379000D03*
%TD*%
D22*
%TO.P,R102,1*%
%TO.N,Net-(D102-Pad2)*%
X162052000Y-115038500D03*
%TO.P,R102,2*%
%TO.N,/LOCKED*%
X162052000Y-116863500D03*
%TD*%
D11*
%TO.P,R101,1*%
%TO.N,Net-(D101-Pad2)*%
X124817500Y-111506000D03*
%TO.P,R101,2*%
%TO.N,+5V*%
X126642500Y-111506000D03*
%TD*%
D23*
%TO.P,Q301,2*%
%TO.N,Net-(C304-Pad2)*%
X148775800Y-100361400D03*
D24*
%TO.P,Q301,1*%
%TO.N,Net-(C302-Pad1)*%
X149925800Y-100361400D03*
%TO.P,Q301,3*%
%TO.N,Net-(C306-Pad2)*%
X148625800Y-102381400D03*
%TO.P,Q301,4*%
%TO.N,Net-(C304-Pad2)*%
X149925800Y-102381400D03*
%TD*%
D11*
%TO.P,L303,1*%
%TO.N,/VCO/Bias Regulator/V_BIAS_COLLECTOR*%
X146026500Y-102311200D03*
%TO.P,L303,2*%
%TO.N,Net-(C306-Pad2)*%
X147851500Y-102311200D03*
%TD*%
D22*
%TO.P,L302,1*%
%TO.N,Net-(C302-Pad1)*%
X150114000Y-98550100D03*
%TO.P,L302,2*%
%TO.N,/VCO/V_BIAS_BASE*%
X150114000Y-96725100D03*
%TD*%
D11*
%TO.P,L301,1*%
%TO.N,Net-(C301-Pad1)*%
X153494100Y-100431600D03*
%TO.P,L301,2*%
%TO.N,GND*%
X155319100Y-100431600D03*
%TD*%
%TA.AperFunction,SMDPad,CuDef*%
D25*
%TO.P,JP102,1*%
%TO.N,+5V*%
G36*
X155206000Y-116563000D02*
G01*
X155206000Y-116063000D01*
X155206602Y-116063000D01*
X155206602Y-116038466D01*
X155211412Y-115989635D01*
X155220984Y-115941510D01*
X155235228Y-115894555D01*
X155254005Y-115849222D01*
X155277136Y-115805949D01*
X155304396Y-115765150D01*
X155335524Y-115727221D01*
X155370221Y-115692524D01*
X155408150Y-115661396D01*
X155448949Y-115634136D01*
X155492222Y-115611005D01*
X155537555Y-115592228D01*
X155584510Y-115577984D01*
X155632635Y-115568412D01*
X155681466Y-115563602D01*
X155706000Y-115563602D01*
X155706000Y-115563000D01*
X156206000Y-115563000D01*
X156206000Y-115563602D01*
X156230534Y-115563602D01*
X156279365Y-115568412D01*
X156327490Y-115577984D01*
X156374445Y-115592228D01*
X156419778Y-115611005D01*
X156463051Y-115634136D01*
X156503850Y-115661396D01*
X156541779Y-115692524D01*
X156576476Y-115727221D01*
X156607604Y-115765150D01*
X156634864Y-115805949D01*
X156657995Y-115849222D01*
X156676772Y-115894555D01*
X156691016Y-115941510D01*
X156700588Y-115989635D01*
X156705398Y-116038466D01*
X156705398Y-116063000D01*
X156706000Y-116063000D01*
X156706000Y-116563000D01*
X155206000Y-116563000D01*
G37*
%TD.AperFunction*%
%TA.AperFunction,SMDPad,CuDef*%
%TO.P,JP102,2*%
%TO.N,/Vp*%
G36*
X156705398Y-117363000D02*
G01*
X156705398Y-117387534D01*
X156700588Y-117436365D01*
X156691016Y-117484490D01*
X156676772Y-117531445D01*
X156657995Y-117576778D01*
X156634864Y-117620051D01*
X156607604Y-117660850D01*
X156576476Y-117698779D01*
X156541779Y-117733476D01*
X156503850Y-117764604D01*
X156463051Y-117791864D01*
X156419778Y-117814995D01*
X156374445Y-117833772D01*
X156327490Y-117848016D01*
X156279365Y-117857588D01*
X156230534Y-117862398D01*
X156206000Y-117862398D01*
X156206000Y-117863000D01*
X155706000Y-117863000D01*
X155706000Y-117862398D01*
X155681466Y-117862398D01*
X155632635Y-117857588D01*
X155584510Y-117848016D01*
X155537555Y-117833772D01*
X155492222Y-117814995D01*
X155448949Y-117791864D01*
X155408150Y-117764604D01*
X155370221Y-117733476D01*
X155335524Y-117698779D01*
X155304396Y-117660850D01*
X155277136Y-117620051D01*
X155254005Y-117576778D01*
X155235228Y-117531445D01*
X155220984Y-117484490D01*
X155211412Y-117436365D01*
X155206602Y-117387534D01*
X155206602Y-117363000D01*
X155206000Y-117363000D01*
X155206000Y-116863000D01*
X156706000Y-116863000D01*
X156706000Y-117363000D01*
X156705398Y-117363000D01*
G37*
%TD.AperFunction*%
%TD*%
%TA.AperFunction,SMDPad,CuDef*%
%TO.P,JP101,1*%
%TO.N,+5V*%
G36*
X159881000Y-116863000D02*
G01*
X159881000Y-117363000D01*
X159880398Y-117363000D01*
X159880398Y-117387534D01*
X159875588Y-117436365D01*
X159866016Y-117484490D01*
X159851772Y-117531445D01*
X159832995Y-117576778D01*
X159809864Y-117620051D01*
X159782604Y-117660850D01*
X159751476Y-117698779D01*
X159716779Y-117733476D01*
X159678850Y-117764604D01*
X159638051Y-117791864D01*
X159594778Y-117814995D01*
X159549445Y-117833772D01*
X159502490Y-117848016D01*
X159454365Y-117857588D01*
X159405534Y-117862398D01*
X159381000Y-117862398D01*
X159381000Y-117863000D01*
X158881000Y-117863000D01*
X158881000Y-117862398D01*
X158856466Y-117862398D01*
X158807635Y-117857588D01*
X158759510Y-117848016D01*
X158712555Y-117833772D01*
X158667222Y-117814995D01*
X158623949Y-117791864D01*
X158583150Y-117764604D01*
X158545221Y-117733476D01*
X158510524Y-117698779D01*
X158479396Y-117660850D01*
X158452136Y-117620051D01*
X158429005Y-117576778D01*
X158410228Y-117531445D01*
X158395984Y-117484490D01*
X158386412Y-117436365D01*
X158381602Y-117387534D01*
X158381602Y-117363000D01*
X158381000Y-117363000D01*
X158381000Y-116863000D01*
X159881000Y-116863000D01*
G37*
%TD.AperFunction*%
%TA.AperFunction,SMDPad,CuDef*%
%TO.P,JP101,2*%
%TO.N,Net-(JP101-Pad2)*%
G36*
X158381602Y-116063000D02*
G01*
X158381602Y-116038466D01*
X158386412Y-115989635D01*
X158395984Y-115941510D01*
X158410228Y-115894555D01*
X158429005Y-115849222D01*
X158452136Y-115805949D01*
X158479396Y-115765150D01*
X158510524Y-115727221D01*
X158545221Y-115692524D01*
X158583150Y-115661396D01*
X158623949Y-115634136D01*
X158667222Y-115611005D01*
X158712555Y-115592228D01*
X158759510Y-115577984D01*
X158807635Y-115568412D01*
X158856466Y-115563602D01*
X158881000Y-115563602D01*
X158881000Y-115563000D01*
X159381000Y-115563000D01*
X159381000Y-115563602D01*
X159405534Y-115563602D01*
X159454365Y-115568412D01*
X159502490Y-115577984D01*
X159549445Y-115592228D01*
X159594778Y-115611005D01*
X159638051Y-115634136D01*
X159678850Y-115661396D01*
X159716779Y-115692524D01*
X159751476Y-115727221D01*
X159782604Y-115765150D01*
X159809864Y-115805949D01*
X159832995Y-115849222D01*
X159851772Y-115894555D01*
X159866016Y-115941510D01*
X159875588Y-115989635D01*
X159880398Y-116038466D01*
X159880398Y-116063000D01*
X159881000Y-116063000D01*
X159881000Y-116563000D01*
X158381000Y-116563000D01*
X158381000Y-116063000D01*
X158381602Y-116063000D01*
G37*
%TD.AperFunction*%
%TD*%
D26*
%TO.N,GND*%
%TO.C,J103*%
X161798000Y-100522000D03*
X161798000Y-109282000D03*
D27*
X161348000Y-100522000D03*
X161348000Y-109282000D03*
D28*
%TD*%
%TO.P,J103,2*%
%TO.N,GND*%
X164788000Y-100522000D03*
%TO.P,J103,2*%
%TO.N,GND*%
X164788000Y-109282000D03*
D29*
%TO.P,J103,1*%
%TO.N,/RF_OUT*%
X164788000Y-104902000D03*
%TD*%
D30*
%TO.P,J101,2*%
%TO.N,GND*%
X125603000Y-104394000D03*
D31*
%TO.P,J101,1*%
%TO.N,+5V*%
X125603000Y-101854000D03*
%TD*%
D32*
%TO.P,D301,1*%
%TO.N,/V_TUNE*%
X152527000Y-96889800D03*
%TO.P,D301,2*%
%TO.N,GND*%
X152527000Y-95489800D03*
%TD*%
D22*
%TO.P,C403,2*%
%TO.N,/VCO/Bias Regulator/V_BIAS_COLLECTOR*%
X140081000Y-107672500D03*
%TO.P,C403,1*%
%TO.N,Net-(C403-Pad1)*%
X140081000Y-109497500D03*
%TD*%
D11*
%TO.P,C402,2*%
%TO.N,GND*%
X131294500Y-97536000D03*
%TO.P,C402,1*%
%TO.N,+5V*%
X133119500Y-97536000D03*
%TD*%
D22*
%TO.P,C401,2*%
%TO.N,Net-(C401-Pad2)*%
X137795000Y-105433500D03*
%TO.P,C401,1*%
%TO.N,Net-(C401-Pad1)*%
X137795000Y-103608500D03*
%TD*%
%TO.P,C307,2*%
%TO.N,Net-(C304-Pad2)*%
X149936200Y-103252900D03*
%TO.P,C307,1*%
%TO.N,/RF_OUT*%
X149936200Y-105077900D03*
%TD*%
%TO.P,C306,2*%
%TO.N,Net-(C306-Pad2)*%
X148463000Y-103252900D03*
%TO.P,C306,1*%
%TO.N,GND*%
X148463000Y-105077900D03*
%TD*%
D11*
%TO.P,C305,2*%
%TO.N,GND*%
X145493100Y-99491800D03*
%TO.P,C305,1*%
%TO.N,Net-(C304-Pad2)*%
X147318100Y-99491800D03*
%TD*%
%TO.P,C304,2*%
%TO.N,Net-(C304-Pad2)*%
X148289000Y-99491800D03*
%TO.P,C304,1*%
%TO.N,Net-(C302-Pad1)*%
X150114000Y-99491800D03*
%TD*%
%TO.P,C303,2*%
%TO.N,GND*%
X147347300Y-96723200D03*
%TO.P,C303,1*%
%TO.N,/VCO/V_BIAS_BASE*%
X149172300Y-96723200D03*
%TD*%
%TO.P,C302,2*%
%TO.N,Net-(C301-Pad1)*%
X152525100Y-100431600D03*
%TO.P,C302,1*%
%TO.N,Net-(C302-Pad1)*%
X150700100Y-100431600D03*
%TD*%
D22*
%TO.P,C301,2*%
%TO.N,/V_TUNE*%
X152527000Y-97664900D03*
%TO.P,C301,1*%
%TO.N,Net-(C301-Pad1)*%
X152527000Y-99489900D03*
%TD*%
D11*
%TO.P,C202,2*%
%TO.N,GND*%
X135358500Y-113538000D03*
%TO.P,C202,1*%
%TO.N,+5V*%
X137183500Y-113538000D03*
%TD*%
D22*
%TO.P,C201,2*%
%TO.N,GND*%
X133096000Y-112625500D03*
%TO.P,C201,1*%
%TO.N,Net-(C201-Pad1)*%
X133096000Y-114450500D03*
%TD*%
%TO.P,C110,2*%
%TO.N,Net-(C110-Pad2)*%
X149936200Y-107871900D03*
%TO.P,C110,1*%
%TO.N,/RF_OUT*%
X149936200Y-106046900D03*
%TD*%
%TO.P,C109,2*%
%TO.N,GND*%
X160401000Y-95607500D03*
%TO.P,C109,1*%
%TO.N,Net-(C109-Pad1)*%
X160401000Y-97432500D03*
%TD*%
%TO.P,C108,2*%
%TO.N,GND*%
X156591000Y-97432500D03*
%TO.P,C108,1*%
%TO.N,/CP_OUT*%
X156591000Y-95607500D03*
%TD*%
D11*
%TO.P,C107,2*%
%TO.N,GND*%
X153820500Y-108839000D03*
%TO.P,C107,1*%
%TO.N,Net-(C107-Pad1)*%
X151995500Y-108839000D03*
%TD*%
%TO.P,C106,2*%
%TO.N,GND*%
X155090500Y-121285000D03*
%TO.P,C106,1*%
%TO.N,/Vp*%
X153265500Y-121285000D03*
%TD*%
%TO.P,C105,2*%
%TO.N,GND*%
X155090500Y-119380000D03*
%TO.P,C105,1*%
%TO.N,/Vp*%
X153265500Y-119380000D03*
%TD*%
%TO.P,C104,2*%
%TO.N,GND*%
X144629500Y-109601000D03*
%TO.P,C104,1*%
%TO.N,+5V*%
X146454500Y-109601000D03*
%TD*%
%TO.P,C103,2*%
%TO.N,GND*%
X144629500Y-107569000D03*
%TO.P,C103,1*%
%TO.N,+5V*%
X146454500Y-107569000D03*
%TD*%
%TO.P,C102,2*%
%TO.N,GND*%
X149455500Y-119380000D03*
%TO.P,C102,1*%
%TO.N,+5V*%
X151280500Y-119380000D03*
%TD*%
%TO.P,C101,2*%
%TO.N,GND*%
X149455500Y-121285000D03*
%TO.P,C101,1*%
%TO.N,+5V*%
X151280500Y-121285000D03*
%TD*%
D33*
%TO.N,GND*%
X125476000Y-114681000D03*
X129921000Y-110617000D03*
X133985000Y-110617000D03*
X133096000Y-111506000D03*
X134239000Y-113538000D03*
X135255000Y-118373600D03*
X135636000Y-106553000D03*
X130175000Y-97536000D03*
X143510000Y-107569000D03*
X143510000Y-109601000D03*
X149479000Y-120269000D03*
X148809000Y-118491000D03*
X155194000Y-120269000D03*
X155090490Y-122324490D03*
X149455500Y-122404502D03*
X165227000Y-119507000D03*
X157988000Y-111379000D03*
X150495000Y-113030000D03*
X151537048Y-113044421D03*
X154584398Y-108839000D03*
X153441400Y-105079800D03*
X148463000Y-105816400D03*
X145288000Y-100431600D03*
X144754600Y-99491800D03*
X146608800Y-96723200D03*
X152527000Y-94894400D03*
X156057600Y-100431600D03*
X156591000Y-98171000D03*
X160426400Y-94488000D03*
%TO.N,+5V*%
X131953000Y-110617000D03*
X138049000Y-110617000D03*
X127635000Y-111506000D03*
X138303000Y-113538000D03*
X154701000Y-116063000D03*
X153885026Y-116063006D03*
X160655000Y-117221008D03*
X142113000Y-110617000D03*
X146454500Y-108481492D03*
%TO.N,/LE_PLL*%
X151098590Y-115820163D03*
%TO.N,/DATA_PLL*%
X150495000Y-118364000D03*
%TO.N,/CLK_PLL*%
X150019228Y-115839828D03*
%TO.N,/CP_OUT*%
X154686000Y-94361000D03*
X152630074Y-112934900D03*
%TD*%
D34*
%TO.N,GND*%
X125359000Y-114564000D02*
X125476000Y-114681000D01*
X124079000Y-114564000D02*
X125359000Y-114564000D01*
X129921000Y-109497500D02*
X129921000Y-110617000D01*
X133985000Y-109497500D02*
X133985000Y-110617000D01*
X135207000Y-118325600D02*
X135255000Y-118373600D01*
X135207000Y-117592000D02*
X135207000Y-118325600D01*
X135636000Y-105018400D02*
X135636000Y-106553000D01*
D35*
X131294500Y-97536000D02*
X130175000Y-97536000D01*
X144629500Y-107569000D02*
X143510000Y-107569000D01*
X144629500Y-109601000D02*
X143510000Y-109601000D01*
X149455500Y-120245500D02*
X149479000Y-120269000D01*
X149455500Y-119380000D02*
X149455500Y-120245500D01*
X148601000Y-118283000D02*
X148809000Y-118491000D01*
X148601000Y-117162500D02*
X148601000Y-118283000D01*
X148809000Y-118733500D02*
X148809000Y-118491000D01*
X149455500Y-119380000D02*
X148809000Y-118733500D01*
X149455500Y-120292500D02*
X149479000Y-120269000D01*
X149455500Y-121285000D02*
X149455500Y-120292500D01*
X155090500Y-120165500D02*
X155194000Y-120269000D01*
X155090500Y-119380000D02*
X155090500Y-120165500D01*
X155090500Y-120372500D02*
X155194000Y-120269000D01*
X155090500Y-121285000D02*
X155090500Y-120372500D01*
X155090500Y-121285000D02*
X155090500Y-122324480D01*
X155090500Y-122324480D02*
X155090490Y-122324490D01*
X149455500Y-121285000D02*
X149455500Y-122404502D01*
X165237000Y-119497000D02*
X165227000Y-119507000D01*
X165237000Y-117856000D02*
X165237000Y-119497000D01*
X156868500Y-111379000D02*
X157988000Y-111379000D01*
X151201000Y-111437500D02*
X151201000Y-112324000D01*
X151201000Y-112324000D02*
X150495000Y-113030000D01*
X151892000Y-112689469D02*
X151537048Y-113044421D01*
X151851000Y-111437500D02*
X151892000Y-111478500D01*
X151892000Y-111478500D02*
X151892000Y-112689469D01*
D36*
X153820500Y-108839000D02*
X154584398Y-108839000D01*
D35*
X156591000Y-97432500D02*
X156591000Y-98171000D01*
D37*
X160401000Y-94513400D02*
X160426400Y-94488000D01*
X160401000Y-95607500D02*
X160401000Y-94513400D01*
X152702900Y-105079800D02*
X153441400Y-105079800D01*
X148463000Y-105077900D02*
X148463000Y-105816400D01*
X146026500Y-100431600D02*
X145288000Y-100431600D01*
X145493100Y-99491800D02*
X144754600Y-99491800D01*
D35*
X155319100Y-100431600D02*
X156057600Y-100431600D01*
D37*
X147347300Y-96723200D02*
X146608800Y-96723200D01*
X164788000Y-109282000D02*
X161348000Y-109282000D01*
X164788000Y-100522000D02*
X161348000Y-100522000D01*
X133096000Y-112625500D02*
X133096000Y-111506000D01*
X135358500Y-113538000D02*
X134239000Y-113538000D01*
X152527000Y-94894400D02*
X152527000Y-95489800D01*
D34*
%TO.N,+5V*%
X137183500Y-115468500D02*
X137407000Y-115692000D01*
X137183500Y-113538000D02*
X137183500Y-115468500D01*
X146454500Y-107569000D02*
X146454500Y-109601000D01*
X149251000Y-110516000D02*
X148336000Y-109601000D01*
X148336000Y-109601000D02*
X146454500Y-109601000D01*
X149251000Y-111437500D02*
X149251000Y-110516000D01*
X151280500Y-121285000D02*
X151280500Y-119380000D01*
X152501000Y-118159500D02*
X151280500Y-119380000D01*
X152501000Y-117162500D02*
X152501000Y-118159500D01*
X131953000Y-109497500D02*
X131953000Y-110617000D01*
X138049000Y-109497500D02*
X138049000Y-110617000D01*
X126642500Y-111506000D02*
X127635000Y-111506000D01*
X137183500Y-113538000D02*
X138303000Y-113538000D01*
D35*
X133096000Y-101346000D02*
X133096000Y-100068400D01*
X132588000Y-101854000D02*
X133096000Y-101346000D01*
X125603000Y-101854000D02*
X132588000Y-101854000D01*
X133119500Y-100044900D02*
X133096000Y-100068400D01*
X133119500Y-97536000D02*
X133119500Y-100044900D01*
X154701000Y-116063000D02*
X153885024Y-116063000D01*
X153885024Y-116063000D02*
X153885026Y-116063002D01*
X152501000Y-116399272D02*
X152853082Y-116047190D01*
X153869210Y-116047190D02*
X153885026Y-116063006D01*
X155956000Y-116063000D02*
X153885024Y-116063000D01*
X152501000Y-117162500D02*
X152501000Y-116399272D01*
X153885026Y-116063002D02*
X153885026Y-116063006D01*
X152853082Y-116047190D02*
X153869210Y-116047190D01*
X159131000Y-117363000D02*
X160513008Y-117363000D01*
X160513008Y-117363000D02*
X160655000Y-117221008D01*
D37*
X142113000Y-109497500D02*
X142113000Y-110617000D01*
D34*
X146454500Y-107569000D02*
X146454500Y-108481492D01*
D36*
%TO.N,Net-(C107-Pad1)*%
X150551000Y-111437500D02*
X150551000Y-109164000D01*
X150876000Y-108839000D02*
X151995500Y-108839000D01*
X150551000Y-109164000D02*
X150876000Y-108839000D01*
D37*
%TO.N,Net-(C109-Pad1)*%
X160401000Y-97432500D02*
X158496000Y-97432500D01*
D36*
%TO.N,Net-(C110-Pad2)*%
X149901000Y-107907100D02*
X149936200Y-107871900D01*
X149901000Y-111437500D02*
X149901000Y-107907100D01*
D34*
%TO.N,/RF_OUT*%
X149936200Y-105077900D02*
X149936200Y-106046900D01*
X149938100Y-105079800D02*
X149936200Y-105077900D01*
X150877900Y-105079800D02*
X149938100Y-105079800D01*
%TO.N,Net-(C201-Pad1)*%
X133175500Y-116642000D02*
X133096000Y-116562500D01*
X135207000Y-116642000D02*
X133175500Y-116642000D01*
X133096000Y-114450500D02*
X133096000Y-116562500D01*
%TO.N,/V_TUNE*%
X152527000Y-96889800D02*
X152527000Y-97664900D01*
%TO.N,Net-(C301-Pad1)*%
X152527000Y-100429700D02*
X152525100Y-100431600D01*
X152527000Y-99489900D02*
X152527000Y-100429700D01*
X153494100Y-100431600D02*
X152525100Y-100431600D01*
%TO.N,Net-(C302-Pad1)*%
X150114000Y-98550100D02*
X150114000Y-99491800D01*
X149925800Y-99680000D02*
X150114000Y-99491800D01*
X149925800Y-100361400D02*
X149925800Y-99680000D01*
X149996000Y-100431600D02*
X149925800Y-100361400D01*
X150700100Y-100431600D02*
X149996000Y-100431600D01*
%TO.N,/VCO/V_BIAS_BASE*%
X150112100Y-96723200D02*
X150114000Y-96725100D01*
X149172300Y-96723200D02*
X150112100Y-96723200D01*
X139422500Y-98044000D02*
X137795000Y-99671500D01*
X149172300Y-96723200D02*
X148207100Y-95758000D01*
X141708500Y-95758000D02*
X139422500Y-98044000D01*
X148207100Y-95758000D02*
X141708500Y-95758000D01*
%TO.N,Net-(C304-Pad2)*%
X148289000Y-99874600D02*
X148775800Y-100361400D01*
X148289000Y-99491800D02*
X148289000Y-99874600D01*
X147851500Y-99929300D02*
X148289000Y-99491800D01*
X147851500Y-100431600D02*
X147851500Y-99929300D01*
X147318100Y-99491800D02*
X148289000Y-99491800D01*
X149925800Y-103242500D02*
X149936200Y-103252900D01*
X149925800Y-102381400D02*
X149925800Y-103242500D01*
D38*
X149925800Y-101488000D02*
X149925800Y-102381400D01*
X148799200Y-100361400D02*
X149925800Y-101488000D01*
X148775800Y-100361400D02*
X148799200Y-100361400D01*
D34*
%TO.N,Net-(C306-Pad2)*%
X148555600Y-102311200D02*
X148625800Y-102381400D01*
X147851500Y-102311200D02*
X148555600Y-102311200D01*
X148463000Y-102544200D02*
X148625800Y-102381400D01*
X148463000Y-103252900D02*
X148463000Y-102544200D01*
%TO.N,Net-(C401-Pad2)*%
X129921000Y-107672500D02*
X131953000Y-107672500D01*
X133096000Y-106529500D02*
X131953000Y-107672500D01*
X133096000Y-105018400D02*
X133096000Y-106529500D01*
X133634400Y-103505000D02*
X135866500Y-103505000D01*
X135866500Y-103505000D02*
X137795000Y-105433500D01*
X133096000Y-104043400D02*
X133634400Y-103505000D01*
X133096000Y-105018400D02*
X133096000Y-104043400D01*
%TO.N,Net-(C401-Pad1)*%
X137795000Y-102616000D02*
X137795000Y-101496500D01*
X137795000Y-103608500D02*
X137795000Y-102616000D01*
X135382000Y-102616000D02*
X137795000Y-102616000D01*
X134366000Y-101600000D02*
X135382000Y-102616000D01*
X134366000Y-100068400D02*
X134366000Y-101600000D01*
%TO.N,/VCO/Bias Regulator/V_BIAS_COLLECTOR*%
X137945500Y-107672500D02*
X138049000Y-107672500D01*
X136120500Y-109497500D02*
X137945500Y-107672500D01*
X136017000Y-109497500D02*
X136120500Y-109497500D01*
X140081000Y-107672500D02*
X138049000Y-107672500D01*
X140081000Y-107672500D02*
X140081000Y-106299000D01*
X144068800Y-102311200D02*
X141668500Y-104711500D01*
X146026500Y-102311200D02*
X144068800Y-102311200D01*
X141668500Y-104711500D02*
X141782800Y-104597200D01*
X140081000Y-106299000D02*
X141668500Y-104711500D01*
%TO.N,Net-(C403-Pad1)*%
X142009500Y-107672500D02*
X142113000Y-107672500D01*
X140184500Y-109497500D02*
X142009500Y-107672500D01*
X140081000Y-109497500D02*
X140184500Y-109497500D01*
%TO.N,Net-(D101-Pad2)*%
X124817500Y-111702500D02*
X127679000Y-114564000D01*
X124817500Y-111506000D02*
X124817500Y-111702500D01*
%TO.N,Net-(D102-Pad2)*%
X164454500Y-115038500D02*
X165237000Y-114256000D01*
X162052000Y-115038500D02*
X164454500Y-115038500D01*
X165281000Y-114300000D02*
X165237000Y-114256000D01*
X160274000Y-113157000D02*
X160274000Y-113030000D01*
X162052000Y-114935000D02*
X160274000Y-113157000D01*
X162052000Y-115038500D02*
X162052000Y-114935000D01*
D37*
%TO.N,/LE_PLL*%
X151201000Y-115922573D02*
X151098590Y-115820163D01*
X151201000Y-117162500D02*
X151201000Y-115922573D01*
%TO.N,/DATA_PLL*%
X150551000Y-118308000D02*
X150495000Y-118364000D01*
X150551000Y-117162500D02*
X150551000Y-118308000D01*
%TO.N,/CLK_PLL*%
X149901000Y-115958056D02*
X150019228Y-115839828D01*
X149901000Y-117162500D02*
X149901000Y-115958056D01*
D34*
%TO.N,Net-(JP101-Pad2)*%
X149251000Y-115544000D02*
X149251000Y-117162500D01*
X150114000Y-114681000D02*
X149251000Y-115544000D01*
X157749000Y-114681000D02*
X150114000Y-114681000D01*
X159131000Y-116063000D02*
X157749000Y-114681000D01*
%TO.N,/LOCKED*%
X162028500Y-116840000D02*
X162052000Y-116863500D01*
X157480000Y-117475000D02*
X158369000Y-118364000D01*
X157480000Y-115951000D02*
X157480000Y-117475000D01*
X151851000Y-117162500D02*
X151851000Y-115738000D01*
X152378413Y-115210587D02*
X156739587Y-115210587D01*
X151851000Y-115738000D02*
X152378413Y-115210587D01*
X158369000Y-118364000D02*
X161343800Y-118364000D01*
X156739587Y-115210587D02*
X157480000Y-115951000D01*
X161343800Y-118364000D02*
X162052000Y-117655800D01*
X162052000Y-117655800D02*
X162052000Y-116863500D01*
D37*
%TO.N,Net-(R103-Pad1)*%
X154985000Y-111437500D02*
X155043500Y-111379000D01*
X153151000Y-111437500D02*
X154985000Y-111437500D01*
D34*
%TO.N,Net-(R201-Pad1)*%
X133834500Y-119126000D02*
X133096000Y-118387500D01*
X141478000Y-119126000D02*
X133834500Y-119126000D01*
%TO.N,Net-(R404-Pad1)*%
X133985000Y-107672500D02*
X136017000Y-107672500D01*
X134366000Y-107291500D02*
X133985000Y-107672500D01*
X134366000Y-105018400D02*
X134366000Y-107291500D01*
%TO.N,/Reference Oscillator/10MHz_REF_OUT*%
X140472000Y-117592000D02*
X141478000Y-116586000D01*
X137407000Y-117592000D02*
X140472000Y-117592000D01*
X141478000Y-114046000D02*
X141478000Y-116586000D01*
%TO.N,Net-(C111-Pad1)*%
X148542500Y-111379000D02*
X148601000Y-111437500D01*
%TO.N,/Reference Oscillator/10MHz_REF_OUT*%
X142875000Y-117983000D02*
X141478000Y-116586000D01*
X142875000Y-123063000D02*
X142875000Y-117983000D01*
X141478000Y-124460000D02*
X142875000Y-123063000D01*
D37*
X143002000Y-112522000D02*
X141478000Y-114046000D01*
X145137500Y-112522000D02*
X143002000Y-112522000D01*
D34*
%TO.N,/Vp*%
X153265500Y-121285000D02*
X153265500Y-119380000D01*
X153151000Y-119265500D02*
X153265500Y-119380000D01*
X153151000Y-117162500D02*
X153151000Y-119265500D01*
X157607000Y-119014000D02*
X155956000Y-117363000D01*
X157607000Y-120269000D02*
X157607000Y-119014000D01*
D35*
X153209500Y-117221000D02*
X155814000Y-117221000D01*
X155814000Y-117221000D02*
X155956000Y-117363000D01*
X153151000Y-117162500D02*
X153209500Y-117221000D01*
D37*
%TO.N,/CP_OUT*%
X154686000Y-94361000D02*
X154686000Y-95607500D01*
X158496000Y-95607500D02*
X156591000Y-95607500D01*
X154686000Y-95607500D02*
X156591000Y-95607500D01*
X152501000Y-111437500D02*
X152501000Y-112805826D01*
X152501000Y-112805826D02*
X152630074Y-112934900D01*
D36*
%TO.N,/RF_OUT*%
X150877900Y-105079800D02*
X150877900Y-105027100D01*
X164026000Y-104140000D02*
X164788000Y-104902000D01*
X151765000Y-104140000D02*
X164026000Y-104140000D01*
X150877900Y-105027100D02*
X151765000Y-104140000D01*
D37*
%TO.N,/V_TUNE*%
X152759400Y-97432500D02*
X152527000Y-97664900D01*
X154686000Y-97432500D02*
X152759400Y-97432500D01*
%TO.N,Net-(C111-Pad1)*%
X146962500Y-112522000D02*
X146962500Y-112371500D01*
X147896500Y-111437500D02*
X148601000Y-111437500D01*
X146962500Y-112371500D02*
X147896500Y-111437500D01*
%TD*%
M02*
