%TF.GenerationSoftware,KiCad,Pcbnew,(5.1.6-0-10_14)*%
%TF.CreationDate,2021-11-28T10:34:50-06:00*%
%TF.ProjectId,EE514 Project,45453531-3420-4507-926f-6a6563742e6b,rev?*%
%TF.SameCoordinates,Original*%
%TF.FileFunction,Soldermask,Bot*%
%TF.FilePolarity,Negative*%
%FSLAX46Y46*%
G04 Gerber Fmt 4.6, Leading zero omitted, Abs format (unit mm)*
G04 Created by KiCad (PCBNEW (5.1.6-0-10_14)) date 2021-11-28 10:34:50*
%MOMM*%
%LPD*%
G01*
G04 APERTURE LIST*
%ADD10O,1.800000X1.800000*%
%ADD11R,1.800000X1.800000*%
%ADD12C,0.800000*%
%ADD13C,4.500000*%
%ADD14C,1.600000*%
%ADD15R,1.540000X1.540000*%
%ADD16C,1.540000*%
%ADD17R,5.180000X2.520000*%
%ADD18C,2.200000*%
%ADD19R,2.200000X2.200000*%
%ADD20C,0.900000*%
G04 APERTURE END LIST*
D10*
%TO.C,J102*%
X153162000Y-124460000D03*
X150622000Y-124460000D03*
X148082000Y-124460000D03*
D11*
X145542000Y-124460000D03*
%TD*%
D12*
%TO.C,H104*%
X166012726Y-94845274D03*
X164846000Y-94362000D03*
X163679274Y-94845274D03*
X163196000Y-96012000D03*
X163679274Y-97178726D03*
X164846000Y-97662000D03*
X166012726Y-97178726D03*
X166496000Y-96012000D03*
D13*
X164846000Y-96012000D03*
%TD*%
D12*
%TO.C,H103*%
X166012726Y-122277274D03*
X164846000Y-121794000D03*
X163679274Y-122277274D03*
X163196000Y-123444000D03*
X163679274Y-124610726D03*
X164846000Y-125094000D03*
X166012726Y-124610726D03*
X166496000Y-123444000D03*
D13*
X164846000Y-123444000D03*
%TD*%
D12*
%TO.C,H102*%
X125880726Y-122277274D03*
X124714000Y-121794000D03*
X123547274Y-122277274D03*
X123064000Y-123444000D03*
X123547274Y-124610726D03*
X124714000Y-125094000D03*
X125880726Y-124610726D03*
X126364000Y-123444000D03*
D13*
X124714000Y-123444000D03*
%TD*%
D12*
%TO.C,H101*%
X125880726Y-94845274D03*
X124714000Y-94362000D03*
X123547274Y-94845274D03*
X123064000Y-96012000D03*
X123547274Y-97178726D03*
X124714000Y-97662000D03*
X125880726Y-97178726D03*
X126364000Y-96012000D03*
D13*
X124714000Y-96012000D03*
%TD*%
D14*
%TO.C,TP201*%
X141478000Y-124460000D03*
%TD*%
%TO.C,TP102*%
X157607000Y-120269000D03*
%TD*%
%TO.C,TP101*%
X160274000Y-113030000D03*
%TD*%
D15*
%TO.C,RV201*%
X141478000Y-114046000D03*
D16*
X141478000Y-116586000D03*
X141478000Y-119126000D03*
%TD*%
D17*
%TO.C,J103*%
X164788000Y-100522000D03*
X164788000Y-109282000D03*
%TD*%
D18*
%TO.C,J101*%
X125603000Y-104394000D03*
D19*
X125603000Y-101854000D03*
%TD*%
D20*
X125476000Y-114681000D03*
X129921000Y-110617000D03*
X133985000Y-110617000D03*
X133096000Y-111506000D03*
X134239000Y-113538000D03*
X135255000Y-118373600D03*
X135636000Y-106553000D03*
X130175000Y-97536000D03*
X143510000Y-107569000D03*
X143510000Y-109601000D03*
X149479000Y-120269000D03*
X148809000Y-118491000D03*
X155194000Y-120269000D03*
X155090490Y-122324490D03*
X149455500Y-122404502D03*
X165227000Y-119507000D03*
X157988000Y-111379000D03*
X150495000Y-113030000D03*
X151537048Y-113044421D03*
X154584398Y-108839000D03*
X153441400Y-105079800D03*
X148463000Y-105816400D03*
X145288000Y-100431600D03*
X144754600Y-99491800D03*
X146608800Y-96723200D03*
X152527000Y-94894400D03*
X156057600Y-100431600D03*
X156591000Y-98171000D03*
X160426400Y-94488000D03*
X131953000Y-110617000D03*
X138049000Y-110617000D03*
X127635000Y-111506000D03*
X138303000Y-113538000D03*
X154701000Y-116063000D03*
X153885026Y-116063006D03*
X160655000Y-117221008D03*
X142113000Y-110617000D03*
X146454500Y-108481492D03*
X151098590Y-115820163D03*
X150495000Y-118364000D03*
X150019228Y-115839828D03*
X154686000Y-94361000D03*
X152630074Y-112934900D03*
M02*
